<?xml version="1.0" encoding="UTF-8"?><svg id="_レイヤー_2" xmlns="http://www.w3.org/2000/svg" xmlns:xlink="http://www.w3.org/1999/xlink" viewBox="0 0 614 850"><defs><style>.cls-1,.cls-2,.cls-3,.cls-4,.cls-5,.cls-6,.cls-7,.cls-8,.cls-9,.cls-10,.cls-11{fill:none;}.cls-2{opacity:.4;}.cls-3{stroke-width:.12px;}.cls-3,.cls-4,.cls-5,.cls-6,.cls-7,.cls-8,.cls-9,.cls-10{stroke-linejoin:round;}.cls-3,.cls-4,.cls-5,.cls-6,.cls-8,.cls-9,.cls-10{stroke:#468cbe;}.cls-4{stroke-width:.12px;}.cls-5{stroke-width:.17px;}.cls-6{stroke-width:.22px;}.cls-12{fill:#468cbe;}.cls-13{fill:#3c6eb4;}.cls-7{stroke:#a0b4d2;}.cls-7,.cls-8{stroke-width:.18px;}.cls-9{stroke-width:.15px;}.cls-10{stroke-width:.15px;}.cls-11{clip-path:url(#clippath);}</style><clipPath id="clippath"><rect class="cls-1" width="614" height="850"/></clipPath></defs><g id="bg"><g class="cls-11"><g class="cls-2"><line class="cls-8" x1="138.18" y1="259.48" x2="96.24" y2="160.65"/><line class="cls-8" x1="105.82" y1="6.2" x2="321.94" y2="112.98"/><polygon class="cls-8" points="262.58 306.76 321.94 112.98 160.52 227.91 262.58 306.76"/><line class="cls-8" x1="105.82" y1="6.2" x2="160.52" y2="227.91"/><polygon class="cls-8" points="238.55 374.64 262.58 306.76 186.38 322.41 238.55 374.64"/><line class="cls-8" x1="160.52" y1="227.91" x2="186.38" y2="322.41"/><polyline class="cls-8" points="105.82 6.2 96.24 160.65 160.52 227.91"/><polyline class="cls-8" points="160.52 227.91 138.18 259.48 186.38 322.41"/><polygon class="cls-8" points="304.32 457.48 238.55 374.64 235.38 409.88 304.32 457.48"/><line class="cls-8" x1="186.38" y1="322.41" x2="235.38" y2="409.88"/><line class="cls-8" x1="297.29" y1="527.17" x2="304.32" y2="457.48"/><line class="cls-8" x1="341.7" y1="281.07" x2="327.62" y2="343.29"/><line class="cls-8" x1="357.15" y1="380.39" x2="428.64" y2="454.98"/><line class="cls-8" x1="327.62" y1="343.29" x2="357.15" y2="380.39"/><polyline class="cls-8" points="341.7 281.07 262.58 306.76 327.62 343.29"/><line class="cls-8" x1="341.7" y1="281.07" x2="321.94" y2="112.98"/><polyline class="cls-8" points="327.62 343.29 238.55 374.64 357.15 380.39"/><polygon class="cls-8" points="448.68 525.96 428.64 454.98 346.06 499.73 448.68 525.96"/><line class="cls-8" x1="357.15" y1="380.4" x2="346.06" y2="499.73"/><polygon class="cls-8" points="600.78 605.55 448.68 525.96 399.67 582.34 600.78 605.55"/><line class="cls-8" x1="346.06" y1="499.73" x2="399.67" y2="582.34"/><polyline class="cls-8" points="357.15 380.4 304.32 457.48 346.06 499.73"/><polyline class="cls-8" points="346.06 499.73 297.29 527.17 399.67 582.34"/><polygon class="cls-8" points="541.88 662.82 600.78 605.55 423.79 635.43 541.88 662.82"/><line class="cls-8" x1="399.67" y1="582.34" x2="423.79" y2="635.43"/><polygon class="cls-8" points="562.99 761.22 541.88 662.82 492.69 776.35 562.99 761.22"/><line class="cls-8" x1="423.79" y1="635.43" x2="492.69" y2="776.35"/><polyline class="cls-8" points="399.67 582.34 304.53 621.54 423.79 635.43"/><line class="cls-8" x1="297.29" y1="527.17" x2="304.53" y2="621.54"/><polyline class="cls-8" points="423.79 635.43 350.85 672.81 492.69 776.35"/><line class="cls-8" x1="304.53" y1="621.54" x2="350.85" y2="672.81"/><line class="cls-8" x1="448.68" y1="525.96" x2="566.43" y2="526.43"/><line class="cls-8" x1="566.43" y1="526.43" x2="600.78" y2="605.55"/><line class="cls-8" x1="290.11" y1="793.96" x2="197.19" y2="693.34"/><polyline class="cls-8" points="304.53 621.54 214.6 610.95 350.85 672.81"/><polygon class="cls-8" points="402.56 790.82 350.85 672.81 335.76 725.15 402.56 790.82"/><line class="cls-8" x1="214.6" y1="610.95" x2="335.76" y2="725.15"/><line class="cls-8" x1="402.56" y1="790.82" x2="326.04" y2="873.75"/><line class="cls-8" x1="335.76" y1="725.15" x2="326.04" y2="873.75"/><polyline class="cls-8" points="214.6 610.95 197.19 693.34 335.76 725.15"/><polyline class="cls-8" points="335.76 725.15 290.11 793.96 326.04 873.75"/><line class="cls-8" x1="492.69" y1="776.35" x2="402.56" y2="790.82"/><path class="cls-13" d="m183.61,320.36c1.15-1.62,3.4-2.01,5.02-.86,1.62,1.15,2.01,3.4.86,5.03-1.15,1.62-3.39,2.01-5.02.86-1.62-1.15-2.01-3.4-.86-5.02Z"/><path class="cls-13" d="m258.84,302.95c1.48-2.08,4.35-2.57,6.42-1.1,2.08,1.47,2.57,4.35,1.1,6.43-1.47,2.07-4.34,2.57-6.42,1.1-2.07-1.47-2.57-4.35-1.1-6.42Z"/><path class="cls-13" d="m236.24,372.83c.98-1.39,2.91-1.72,4.3-.73,1.4.98,1.73,2.91.74,4.3-.99,1.39-2.91,1.72-4.3.74-1.39-.99-1.72-2.91-.74-4.31Z"/><path class="cls-13" d="m233.08,407.55c1.07-1.52,3.17-1.88,4.69-.8,1.52,1.07,1.87,3.17.8,4.69-1.07,1.52-3.17,1.88-4.69.8-1.51-1.08-1.88-3.18-.8-4.69Z"/><path class="cls-13" d="m301.65,455c1.08-1.53,3.19-1.89,4.72-.8,1.53,1.08,1.88,3.19.8,4.72-1.08,1.53-3.19,1.89-4.72.81s-1.88-3.19-.8-4.72Z"/><path class="cls-13" d="m342.55,496.99c1.37-1.94,4.07-2.4,6.01-1.03,1.94,1.37,2.4,4.07,1.03,6.01-1.38,1.94-4.07,2.4-6.01,1.03-1.94-1.38-2.41-4.07-1.03-6.01Z"/><path class="cls-13" d="m396.71,579.89c1.15-1.63,3.4-2.01,5.03-.86,1.62,1.15,2.01,3.4.86,5.02-1.15,1.63-3.4,2.01-5.02.86-1.62-1.15-2.01-3.4-.86-5.03Z"/><path class="cls-13" d="m445.1,523.92c1.13-1.6,3.35-1.98,4.94-.84,1.6,1.13,1.97,3.34.84,4.94-1.13,1.6-3.34,1.98-4.94.84-1.6-1.13-1.98-3.34-.85-4.94Z"/><path class="cls-13" d="m562.66,524.51c1.26-1.78,3.73-2.21,5.52-.95,1.78,1.26,2.2,3.73.94,5.51-1.26,1.78-3.74,2.21-5.52.95-1.78-1.26-2.21-3.73-.95-5.51Z"/><path class="cls-13" d="m595.79,602.31c1.79-2.53,5.3-3.13,7.84-1.34,2.53,1.79,3.13,5.3,1.34,7.83-1.8,2.53-5.3,3.13-7.84,1.34-2.54-1.79-3.14-5.3-1.34-7.83Z"/><path class="cls-13" d="m536.83,659.5c1.79-2.53,5.3-3.13,7.83-1.34,2.53,1.79,3.14,5.3,1.34,7.84-1.79,2.53-5.3,3.13-7.83,1.34-2.53-1.79-3.13-5.3-1.34-7.83Z"/><path class="cls-13" d="m488.12,772.87c1.8-2.53,5.3-3.13,7.83-1.34,2.54,1.79,3.13,5.3,1.34,7.83-1.8,2.53-5.3,3.13-7.84,1.34-2.53-1.79-3.13-5.3-1.34-7.84Z"/><path class="cls-13" d="m426.11,452.86c1.05-1.49,3.11-1.84,4.6-.79,1.49,1.05,1.84,3.11.79,4.6-1.05,1.49-3.11,1.84-4.6.79-1.49-1.05-1.84-3.11-.79-4.6Z"/><path class="cls-13" d="m293.71,524.39c1.4-1.98,4.14-2.44,6.11-1.05,1.98,1.4,2.45,4.13,1.04,6.11-1.4,1.97-4.13,2.44-6.11,1.04-1.98-1.4-2.45-4.13-1.05-6.11Z"/><path class="cls-13" d="m301.02,618.7c1.36-1.93,4.03-2.38,5.96-1.02,1.92,1.37,2.39,4.03,1.02,5.96-1.36,1.93-4.03,2.38-5.96,1.02-1.92-1.37-2.39-4.03-1.02-5.96Z"/><path class="cls-13" d="m421.03,634.06c.97-1.37,2.86-1.69,4.23-.72,1.37.97,1.69,2.86.73,4.23-.97,1.37-2.86,1.69-4.23.72-1.37-.97-1.69-2.86-.72-4.23Z"/><path class="cls-13" d="m347.56,670.12c1.29-1.81,3.8-2.24,5.61-.96,1.82,1.28,2.25,3.79.96,5.61-1.28,1.82-3.79,2.24-5.61.96-1.81-1.28-2.24-3.8-.96-5.61Z"/><path class="cls-13" d="m211.26,608.45c1.43-2.03,4.24-2.5,6.26-1.07,2.02,1.43,2.51,4.23,1.07,6.26-1.44,2.03-4.24,2.5-6.27,1.07-2.02-1.43-2.5-4.24-1.07-6.26Z"/><path class="cls-13" d="m193.01,690.1c1.61-2.28,4.76-2.81,7.04-1.2,2.28,1.61,2.82,4.76,1.2,7.04-1.61,2.27-4.76,2.82-7.04,1.2-2.28-1.62-2.82-4.77-1.2-7.04Z"/><path class="cls-13" d="m332.03,722.18c1.39-1.97,4.11-2.43,6.08-1.04,1.96,1.39,2.43,4.11,1.03,6.08-1.39,1.97-4.11,2.43-6.08,1.04-1.97-1.39-2.43-4.11-1.04-6.08Z"/><path class="cls-13" d="m399.48,788.4c1.35-1.91,3.99-2.36,5.89-1.01,1.91,1.35,2.36,3.99,1.01,5.9-1.35,1.91-3.99,2.36-5.89,1.01-1.91-1.35-2.36-3.99-1.01-5.9Z"/><path class="cls-13" d="m285.5,790.35c1.79-2.53,5.3-3.13,7.84-1.34,2.53,1.79,3.13,5.3,1.34,7.84-1.79,2.53-5.3,3.14-7.83,1.34-2.54-1.79-3.13-5.3-1.34-7.83Z"/><path class="cls-13" d="m352.19,377.71c1.6-2.26,4.73-2.79,6.99-1.19,2.26,1.6,2.79,4.73,1.2,6.99-1.6,2.26-4.73,2.79-6.99,1.19-2.26-1.6-2.79-4.73-1.2-6.99Z"/><path class="cls-13" d="m337.38,279.18c1.25-1.78,3.7-2.2,5.48-.94,1.77,1.25,2.19,3.7.93,5.47-1.25,1.77-3.7,2.19-5.47.94-1.77-1.26-2.19-3.71-.94-5.47Z"/><path class="cls-13" d="m324.27,340.57c1.28-1.81,3.78-2.24,5.58-.96,1.81,1.28,2.23,3.77.96,5.58-1.28,1.81-3.78,2.23-5.58.96-1.81-1.28-2.23-3.78-.96-5.58Z"/><path class="cls-13" d="m134.41,256.18c1.45-2.04,4.28-2.53,6.32-1.08,2.04,1.45,2.53,4.28,1.08,6.33-1.45,2.04-4.28,2.53-6.32,1.08-2.04-1.44-2.53-4.27-1.08-6.32Z"/><path class="cls-13" d="m157.66,225.9c.97-1.38,2.88-1.7,4.25-.73,1.37.97,1.7,2.87.73,4.25-.97,1.38-2.87,1.7-4.25.73-1.38-.97-1.7-2.87-.73-4.25Z"/><path class="cls-13" d="m317.91,109.95c1.56-2.21,4.62-2.73,6.83-1.17,2.2,1.56,2.73,4.62,1.17,6.83-1.56,2.2-4.62,2.73-6.82,1.17-2.21-1.56-2.73-4.62-1.17-6.83Z"/><path class="cls-13" d="m91.94,157.64c1.79-2.53,5.3-3.14,7.83-1.34,2.53,1.8,3.14,5.3,1.34,7.84-1.79,2.53-5.3,3.13-7.83,1.34-2.53-1.79-3.13-5.3-1.34-7.83Z"/><path class="cls-13" d="m100.7,2.95c1.98-2.8,5.85-3.46,8.65-1.48,2.79,1.98,3.46,5.85,1.48,8.64-1.98,2.79-5.85,3.45-8.64,1.48-2.8-1.98-3.46-5.85-1.48-8.65Z"/><line class="cls-7" x1="-177.99" y1="884.31" x2="40.73" y2="782.94"/><polygon class="cls-7" points="-13.8 587.74 40.73 782.94 -117.79 664.02 -13.8 587.74"/><polygon class="cls-7" points="31.68 438.11 -36.13 519.28 -38.43 483.98 31.68 438.11"/><line class="cls-7" x1="26.38" y1="368.26" x2="31.68" y2="438.11"/><line class="cls-7" x1="64.65" y1="615.39" x2="52.14" y2="552.84"/><line class="cls-7" x1="82.57" y1="516.48" x2="155.9" y2="443.69"/><line class="cls-7" x1="52.14" y1="552.84" x2="82.57" y2="516.48"/><polyline class="cls-7" points="64.65 615.39 -13.8 587.74 52.14 552.84"/><line class="cls-7" x1="64.65" y1="615.39" x2="40.73" y2="782.94"/><polyline class="cls-7" points="52.14 552.84 -36.13 519.28 82.57 516.48"/><polygon class="cls-7" points="177.7 373.24 155.9 443.69 74.45 396.91 177.7 373.24"/><line class="cls-7" x1="82.57" y1="516.48" x2="74.45" y2="396.91"/><polygon class="cls-7" points="331.72 297.45 177.7 373.24 130.1 315.66 331.72 297.45"/><line class="cls-7" x1="74.45" y1="396.91" x2="130.1" y2="315.66"/><polyline class="cls-7" points="82.57 516.48 31.68 438.11 74.45 396.91"/><polyline class="cls-7" points="74.45 396.91 26.38 368.26 130.1 315.66"/><polygon class="cls-7" points="274.28 238.73 331.72 297.45 155.53 263.18 274.28 238.73"/><line class="cls-7" x1="130.1" y1="315.66" x2="155.53" y2="263.18"/><polygon class="cls-7" points="261.21 197.08 274.28 238.73 227.92 124.02 261.21 197.08"/><line class="cls-7" x1="155.53" y1="263.18" x2="227.92" y2="124.02"/><polyline class="cls-7" points="130.1 315.66 35.96 274.11 155.53 263.18"/><line class="cls-7" x1="26.38" y1="368.26" x2="35.96" y2="274.11"/><polyline class="cls-7" points="155.53 263.18 83.55 224 227.92 124.02"/><line class="cls-7" x1="35.96" y1="274.11" x2="83.55" y2="224"/><line class="cls-7" x1="177.7" y1="373.24" x2="295.41" y2="375.69"/><line class="cls-7" x1="295.41" y1="375.69" x2="331.72" y2="297.45"/><line class="cls-7" x1="25.84" y1="101.38" x2="-69.55" y2="199.66"/><polyline class="cls-7" points="35.96 274.11 -54.19 282.45 83.55 224"/><polygon class="cls-7" points="138.17 107.31 83.55 224 69.76 171.3 138.17 107.31"/><line class="cls-7" x1="-54.19" y1="282.45" x2="69.76" y2="171.3"/><line class="cls-7" x1="138.17" y1="107.31" x2="63.74" y2="22.5"/><line class="cls-7" x1="69.76" y1="171.3" x2="63.74" y2="22.5"/><polyline class="cls-7" points="-54.19 282.45 -69.55 199.65 69.76 171.3"/><polyline class="cls-7" points="69.76 171.3 25.84 101.38 63.74 22.5"/><line class="cls-7" x1="227.92" y1="124.02" x2="138.17" y2="107.31"/><path class="cls-12" d="m28.95,440.52c1.04,1.56,3.14,1.97,4.7.93,1.56-1.04,1.97-3.15.93-4.7-1.04-1.56-3.15-1.96-4.7-.92-1.55,1.04-1.97,3.15-.92,4.7Z"/><path class="cls-12" d="m70.87,399.55c1.33,1.98,4.01,2.51,5.98,1.18,1.98-1.32,2.51-4,1.18-5.98-1.33-1.98-4-2.5-5.98-1.17-1.98,1.32-2.51,4-1.18,5.97Z"/><path class="cls-12" d="m127.07,318.03c1.11,1.66,3.35,2.09,5,.98,1.65-1.11,2.09-3.35.98-5-1.11-1.65-3.35-2.09-5-.98-1.66,1.11-2.09,3.35-.99,5Z"/><path class="cls-12" d="m174.06,375.19c1.09,1.63,3.29,2.06,4.91.97,1.63-1.09,2.06-3.29.97-4.92-1.09-1.63-3.29-2.06-4.92-.97-1.62,1.1-2.06,3.3-.97,4.92Z"/><path class="cls-12" d="m291.61,377.52c1.22,1.82,3.68,2.3,5.5,1.08,1.81-1.22,2.29-3.68,1.07-5.49-1.22-1.81-3.68-2.3-5.49-1.08-1.81,1.22-2.3,3.68-1.08,5.49Z"/><path class="cls-12" d="m326.66,300.57c1.73,2.58,5.22,3.27,7.8,1.54,2.58-1.73,3.26-5.22,1.54-7.8-1.73-2.58-5.22-3.26-7.8-1.54-2.58,1.73-3.26,5.22-1.53,7.8Z"/><path class="cls-12" d="m269.13,241.93c1.73,2.58,5.22,3.26,7.8,1.53,2.58-1.73,3.26-5.22,1.53-7.79-1.73-2.58-5.22-3.27-7.8-1.54-2.58,1.73-3.26,5.22-1.54,7.8Z"/><path class="cls-12" d="m223.26,127.39c1.73,2.58,5.22,3.26,7.8,1.53,2.58-1.72,3.26-5.22,1.53-7.8-1.73-2.57-5.22-3.26-7.79-1.53-2.58,1.73-3.27,5.22-1.54,7.8Z"/><path class="cls-12" d="m153.31,445.75c1.02,1.51,3.06,1.92,4.58.9,1.51-1.02,1.92-3.07.9-4.58-1.01-1.52-3.06-1.92-4.57-.9-1.52,1.01-1.92,3.06-.91,4.57Z"/><path class="cls-12" d="m22.74,370.95c1.35,2.01,4.07,2.55,6.08,1.19,2.01-1.35,2.55-4.07,1.2-6.08-1.35-2.01-4.07-2.55-6.08-1.2-2.01,1.35-2.54,4.07-1.2,6.08Z"/><path class="cls-12" d="m32.38,276.85c1.31,1.96,3.97,2.48,5.93,1.17,1.96-1.32,2.48-3.97,1.17-5.94-1.32-1.96-3.97-2.48-5.94-1.17-1.96,1.31-2.48,3.97-1.17,5.93Z"/><path class="cls-12" d="m152.74,264.47c.93,1.39,2.82,1.77,4.21.83,1.39-.93,1.76-2.82.83-4.21-.93-1.4-2.82-1.76-4.21-.83-1.39.94-1.77,2.82-.83,4.21Z"/><path class="cls-12" d="m80.18,226.61c1.24,1.84,3.74,2.34,5.58,1.1,1.84-1.24,2.34-3.74,1.1-5.58-1.24-1.85-3.74-2.33-5.58-1.1-1.84,1.23-2.33,3.74-1.1,5.58Z"/><path class="cls-12" d="m65.96,174.17c1.34,2,4.05,2.53,6.05,1.19,2-1.34,2.53-4.05,1.19-6.05-1.34-2-4.05-2.53-6.04-1.19-2,1.34-2.54,4.05-1.19,6.05Z"/><path class="cls-12" d="m135.03,109.66c1.3,1.94,3.93,2.46,5.87,1.16,1.94-1.3,2.46-3.93,1.15-5.87-1.3-1.93-3.93-2.45-5.87-1.15-1.94,1.3-2.46,3.93-1.16,5.87Z"/><path class="cls-12" d="m59.04,26c1.73,2.58,5.23,3.27,7.8,1.54,2.58-1.73,3.26-5.22,1.54-7.8-1.73-2.58-5.23-3.26-7.8-1.54-2.58,1.73-3.27,5.22-1.54,7.8Z"/><path class="cls-12" d="m21.14,104.87c1.73,2.58,5.22,3.27,7.8,1.54,2.58-1.73,3.27-5.22,1.54-7.8-1.73-2.58-5.23-3.26-7.8-1.54-2.58,1.73-3.27,5.23-1.54,7.8Z"/><path class="cls-12" d="m9.66,523.35c1.55,2.3,4.66,2.91,6.95,1.37,2.3-1.54,2.91-4.65,1.37-6.95-1.54-2.3-4.66-2.91-6.95-1.37-2.3,1.54-2.91,4.66-1.37,6.96Z"/><path class="cls-12" d="m60.29,617.17c1.21,1.8,3.65,2.28,5.45,1.07,1.8-1.21,2.28-3.65,1.07-5.45-1.21-1.8-3.65-2.28-5.45-1.07-1.8,1.21-2.28,3.65-1.07,5.45Z"/><path class="cls-12" d="m48.72,555.48c1.23,1.84,3.72,2.33,5.56,1.09,1.84-1.23,2.33-3.72,1.09-5.56-1.23-1.84-3.72-2.33-5.56-1.09-1.84,1.23-2.33,3.72-1.1,5.56Z"/><path class="cls-12" d="m36.62,785.87c1.51,2.25,4.55,2.85,6.8,1.34,2.25-1.5,2.84-4.55,1.34-6.79-1.51-2.25-4.55-2.85-6.8-1.34-2.24,1.5-2.85,4.55-1.34,6.79Z"/><line class="cls-10" x1="195.16" y1="488.59" x2="211.98" y2="454.68"/><polyline class="cls-10" points="195.16 488.59 187.27 445.81 211.98 454.68"/><polyline class="cls-10" points="187.27 445.81 196.71 405.51 211.98 454.68"/><path class="cls-13" d="m212.03,452.32c-1.12,0-2.03.91-2.03,2.03s.91,2.03,2.03,2.03,2.03-.91,2.03-2.03-.91-2.03-2.03-2.03Z"/><path class="cls-13" d="m186.86,443.68c-1.12,0-2.03.91-2.03,2.03s.91,2.02,2.03,2.02,2.02-.9,2.02-2.02-.9-2.03-2.02-2.03Z"/><path class="cls-13" d="m195.35,485.61c-1.4,0-2.54,1.14-2.54,2.54s1.14,2.54,2.54,2.54c1.4,0,2.54-1.14,2.54-2.54,0-1.41-1.14-2.54-2.54-2.54Z"/><path class="cls-13" d="m196.69,403.92c-1.04,0-1.88.84-1.88,1.87s.84,1.88,1.88,1.88c1.03,0,1.88-.84,1.88-1.88s-.84-1.87-1.88-1.87Z"/><line class="cls-4" x1="90.33" y1="373.64" x2="146.99" y2="393.45"/><polyline class="cls-4" points="90.33 373.64 90.26 345.87 146.99 393.45"/><line class="cls-4" x1="146.99" y1="393.45" x2="113.92" y2="331.93"/><line class="cls-4" x1="90.26" y1="345.87" x2="113.92" y2="331.93"/><path class="cls-13" d="m146.81,390.74c-1.16,0-2.1.95-2.1,2.11,0,1.16.95,2.1,2.11,2.1,1.17,0,2.1-.95,2.1-2.11,0-1.16-.95-2.1-2.11-2.1Z"/><path class="cls-13" d="m90.71,343.15c-1.6,0-2.9,1.3-2.89,2.9,0,1.6,1.3,2.9,2.91,2.89,1.6,0,2.9-1.3,2.89-2.91,0-1.6-1.3-2.89-2.91-2.89Z"/><path class="cls-13" d="m113.88,330.57c-.99,0-1.8.81-1.8,1.81,0,1,.81,1.8,1.81,1.8.99,0,1.8-.81,1.8-1.81,0-1-.81-1.8-1.81-1.8Z"/><path class="cls-13" d="m90.26,370.62c-1.48,0-2.67,1.21-2.67,2.69s1.21,2.67,2.68,2.67c1.48,0,2.67-1.2,2.67-2.69,0-1.48-1.21-2.67-2.68-2.67Z"/><line class="cls-6" x1="5.26" y1="212.22" x2="10.96" y2="263.72"/><polyline class="cls-6" points="5.26 212.22 51.71 225.01 10.96 263.72"/><polyline class="cls-6" points="51.71 225.01 72.72 267.31 10.96 263.72"/><path class="cls-13" d="m10.97,260.1c-1.68,0-3.04,1.36-3.04,3.04s1.36,3.04,3.04,3.04,3.04-1.36,3.04-3.04-1.36-3.04-3.04-3.04Z"/><path class="cls-13" d="m72.02,264.18c-1.38,0-2.5,1.12-2.5,2.5s1.12,2.49,2.5,2.49c1.38,0,2.5-1.12,2.5-2.49s-1.12-2.5-2.5-2.5Z"/><path class="cls-13" d="m51.33,223.13c-1.2,0-2.17.98-2.17,2.18s.97,2.17,2.17,2.17,2.17-.97,2.17-2.17-.97-2.18-2.17-2.18Z"/><path class="cls-13" d="m5.42,209.91c-1.26,0-2.27,1.02-2.27,2.27s1.02,2.27,2.27,2.27c1.25,0,2.27-1.02,2.27-2.27s-1.02-2.27-2.27-2.27Z"/><polyline class="cls-9" points="-25.74 394.54 5.87 403.24 -21.86 429.58"/><polyline class="cls-9" points="5.87 403.24 20.17 432.02 -21.86 429.58"/><path class="cls-13" d="m6.15,400.72c-1.34,0-2.42,1.09-2.42,2.43s1.08,2.42,2.42,2.42c1.34,0,2.43-1.08,2.43-2.42s-1.08-2.43-2.43-2.43Z"/><path class="cls-13" d="m20.37,429.03c-1.58,0-2.87,1.28-2.87,2.87s1.29,2.87,2.87,2.87c1.59,0,2.87-1.29,2.87-2.87s-1.29-2.87-2.87-2.87Z"/><line class="cls-3" x1="423.37" y1="224.82" x2="418.61" y2="197.84"/><polyline class="cls-3" points="423.37 224.82 393.04 202.35 418.61 197.84"/><polyline class="cls-3" points="393.04 202.35 378.57 174.47 418.61 197.84"/><path class="cls-13" d="m378.82,172.8c-.86,0-1.56.69-1.56,1.56s.7,1.55,1.56,1.55,1.56-.7,1.56-1.55-.7-1.56-1.56-1.56Z"/><path class="cls-13" d="m418.18,196.15c-.78,0-1.41.64-1.41,1.42s.63,1.41,1.41,1.41,1.41-.63,1.41-1.41-.63-1.42-1.41-1.42Z"/><path class="cls-13" d="m423.22,222.9c-.77,0-1.4.63-1.4,1.4s.63,1.4,1.4,1.4,1.4-.63,1.4-1.4-.62-1.4-1.4-1.4Z"/><path class="cls-13" d="m393.45,199.7c-1.33,0-2.4,1.07-2.4,2.41s1.07,2.4,2.4,2.4,2.4-1.07,2.4-2.4-1.08-2.41-2.4-2.41Z"/><line class="cls-9" x1="216.26" y1="515.82" x2="187.94" y2="536.82"/><polyline class="cls-9" points="216.26 515.82 224.65 547.51 187.94 536.82"/><polyline class="cls-9" points="224.65 547.51 206.98 574.36 187.94 536.82"/><path class="cls-13" d="m187.86,535.05c-.95,0-1.73.77-1.73,1.72s.77,1.72,1.73,1.72c.95,0,1.72-.77,1.72-1.72s-.77-1.72-1.72-1.72Z"/><path class="cls-13" d="m216.11,514.64c-.8,0-1.44.65-1.44,1.45s.65,1.44,1.44,1.44,1.45-.65,1.45-1.44c0-.8-.65-1.45-1.45-1.45Z"/><path class="cls-13" d="m224.69,545.76c-.89,0-1.61.72-1.61,1.6s.72,1.6,1.61,1.6,1.6-.72,1.6-1.6-.72-1.6-1.6-1.6Z"/><path class="cls-13" d="m207.03,571.78c-1.28,0-2.32,1.04-2.32,2.33s1.04,2.32,2.32,2.32,2.33-1.04,2.33-2.32-1.04-2.33-2.33-2.33Z"/><line class="cls-5" x1="131.51" y1="761.15" x2="151.82" y2="722.61"/><polyline class="cls-5" points="131.51 761.15 121.99 712.53 151.82 722.61"/><polyline class="cls-5" points="121.99 712.53 133.38 666.71 151.82 722.61"/><path class="cls-13" d="m151.49,719.41c-1.86,0-3.36,1.5-3.36,3.36s1.5,3.36,3.36,3.36,3.36-1.51,3.36-3.36-1.5-3.36-3.36-3.36Z"/><path class="cls-13" d="m131.81,759.14c-.81,0-1.47.66-1.47,1.47s.66,1.47,1.47,1.47,1.47-.66,1.47-1.47-.66-1.47-1.47-1.47Z"/><path class="cls-13" d="m122.22,709.06c-2,0-3.62,1.62-3.62,3.62s1.62,3.62,3.62,3.62,3.62-1.62,3.62-3.62-1.62-3.62-3.62-3.62Z"/><path class="cls-13" d="m133.32,663.67c-1.71,0-3.1,1.39-3.1,3.1s1.39,3.1,3.1,3.1,3.1-1.39,3.1-3.1-1.39-3.1-3.1-3.1Z"/></g></g></g></svg>