<?xml version="1.0" encoding="UTF-8"?><svg id="_レイヤー_2" xmlns="http://www.w3.org/2000/svg" xmlns:xlink="http://www.w3.org/1999/xlink" viewBox="0 0 256 360"><defs><style>.cls-1,.cls-2,.cls-3,.cls-4,.cls-5,.cls-6,.cls-7,.cls-8,.cls-9,.cls-10{fill:none;}.cls-2{opacity:.4;}.cls-3{stroke-width:.12px;}.cls-3,.cls-4,.cls-5,.cls-6,.cls-7,.cls-8,.cls-9{stroke-linejoin:round;}.cls-3,.cls-4,.cls-5,.cls-7,.cls-8,.cls-9{stroke:#468cbe;}.cls-4{stroke-width:.12px;}.cls-5{stroke-width:.17px;}.cls-11{fill:#468cbe;}.cls-12{fill:#3c6eb4;}.cls-6{stroke:#a0b4d2;}.cls-6,.cls-7{stroke-width:.18px;}.cls-8{stroke-width:.15px;}.cls-9{stroke-width:.15px;}.cls-10{clip-path:url(#clippath);}</style><clipPath id="clippath"><rect class="cls-1" width="256" height="360"/></clipPath></defs><g id="bg"><g class="cls-10"><g class="cls-2"><line class="cls-7" x1="19.99" y1="97.74" x2="-9" y2="64.46"/><line class="cls-7" x1="-24.95" y1="2.87" x2="73.14" y2="17.05"/><polygon class="cls-7" points="74.65 100.36 73.14 17.05 24.7 82.55 74.65 100.36"/><line class="cls-7" x1="-24.95" y1="2.87" x2="24.7" y2="82.55"/><polygon class="cls-7" points="73.91 129.95 74.65 100.36 46.86 116.19 73.91 129.95"/><line class="cls-7" x1="24.7" y1="82.55" x2="46.86" y2="116.19"/><polyline class="cls-7" points="-24.95 2.87 -9 64.46 24.7 82.55"/><polyline class="cls-7" points="24.7 82.55 19.99 97.74 46.86 116.19"/><polygon class="cls-7" points="110.18 153.95 73.91 129.95 77.16 144.13 110.18 153.95"/><line class="cls-7" x1="46.86" y1="116.19" x2="77.16" y2="144.13"/><line class="cls-7" x1="116.31" y1="182.08" x2="110.18" y2="153.95"/><line class="cls-7" x1="102.29" y1="80.23" x2="104.73" y2="106.34"/><line class="cls-7" x1="120.99" y1="117.08" x2="158.45" y2="137.12"/><line class="cls-7" x1="104.73" y1="106.34" x2="120.99" y2="117.08"/><polyline class="cls-7" points="102.29 80.23 74.65 100.36 104.73 106.34"/><line class="cls-7" x1="102.29" y1="80.23" x2="73.14" y2="17.05"/><polyline class="cls-7" points="104.73 106.34 73.91 129.95 120.99 117.08"/><polygon class="cls-7" points="175.33 162.3 158.45 137.12 131.88 165.14 175.33 162.3"/><line class="cls-7" x1="121" y1="117.08" x2="131.88" y2="165.14"/><polygon class="cls-7" points="244.93 174.02 175.33 162.3 163.36 190.59 244.93 174.02"/><line class="cls-7" x1="131.88" y1="165.14" x2="163.36" y2="190.59"/><polyline class="cls-7" points="121 117.08 110.18 153.95 131.88 165.14"/><polyline class="cls-7" points="131.88 165.14 116.31 182.08 163.36 190.59"/><polygon class="cls-7" points="229.21 203.91 244.93 174.02 179.56 208.27 229.21 203.91"/><line class="cls-7" x1="163.36" y1="190.59" x2="179.56" y2="208.27"/><polygon class="cls-7" points="250.01 239.68 229.21 203.91 224.46 254.56 250.01 239.68"/><line class="cls-7" x1="179.56" y1="208.27" x2="224.46" y2="254.56"/><polyline class="cls-7" points="163.36 190.59 131.17 218.04 179.56 208.27"/><line class="cls-7" x1="116.31" y1="182.08" x2="131.17" y2="218.04"/><polyline class="cls-7" points="179.56 208.27 155.82 232.17 224.46 254.56"/><line class="cls-7" x1="131.17" y1="218.04" x2="155.82" y2="232.17"/><line class="cls-7" x1="175.33" y1="162.3" x2="221.41" y2="147.48"/><line class="cls-7" x1="221.41" y1="147.48" x2="244.93" y2="174.02"/><line class="cls-7" x1="147.53" y1="287.27" x2="98.38" y2="259.79"/><polyline class="cls-7" points="131.17 218.04 94.68 225.37 155.82 232.17"/><polygon class="cls-7" points="191.07 271.71 155.82 232.18 156.59 254.56 191.07 271.71"/><line class="cls-7" x1="94.68" y1="225.37" x2="156.59" y2="254.56"/><line class="cls-7" x1="191.07" y1="271.71" x2="171.74" y2="313.88"/><line class="cls-7" x1="156.59" y1="254.56" x2="171.74" y2="313.88"/><polyline class="cls-7" points="94.68 225.37 98.38 259.79 156.59 254.56"/><polyline class="cls-7" points="156.59 254.56 147.53 287.27 171.74 313.88"/><line class="cls-7" x1="224.46" y1="254.56" x2="191.07" y2="271.71"/><path class="cls-12" d="m45.51,115.74c.24-.78,1.07-1.22,1.85-.98.78.24,1.22,1.07.98,1.85-.24.78-1.07,1.22-1.85.98-.78-.24-1.22-1.07-.98-1.85Z"/><path class="cls-12" d="m72.7,99.35c.31-1,1.37-1.56,2.37-1.25,1,.31,1.56,1.37,1.25,2.37-.31,1-1.37,1.56-2.37,1.25-1-.31-1.56-1.37-1.25-2.37Z"/><path class="cls-12" d="m72.77,129.54c.21-.67.92-1.04,1.59-.83.67.21,1.05.92.84,1.59-.21.67-.92,1.04-1.59.84-.67-.21-1.04-.92-.84-1.59Z"/><path class="cls-12" d="m75.97,143.52c.23-.73,1-1.14,1.73-.91.73.23,1.14,1,.91,1.73-.23.73-1,1.14-1.73.91-.73-.23-1.14-1-.91-1.73Z"/><path class="cls-12" d="m108.82,153.32c.23-.73,1.01-1.14,1.74-.92.73.23,1.14,1.01.92,1.74-.23.73-1.01,1.14-1.74.92s-1.14-1.01-.92-1.74Z"/><path class="cls-12" d="m130.16,164.52c.29-.93,1.28-1.46,2.22-1.17.94.29,1.46,1.28,1.17,2.22-.29.94-1.28,1.46-2.22,1.17-.94-.29-1.46-1.28-1.17-2.22Z"/><path class="cls-12" d="m161.89,190.01c.24-.78,1.07-1.22,1.85-.98.78.24,1.22,1.07.98,1.85-.24.78-1.07,1.22-1.85.98-.78-.24-1.22-1.07-.98-1.86Z"/><path class="cls-12" d="m173.67,161.96c.24-.77,1.06-1.2,1.82-.96.77.24,1.2,1.05.96,1.82-.24.77-1.05,1.2-1.82.96-.77-.24-1.2-1.05-.96-1.82Z"/><path class="cls-12" d="m219.7,147.21c.27-.86,1.18-1.34,2.04-1.07.86.27,1.34,1.18,1.07,2.04-.27.86-1.18,1.34-2.04,1.07-.86-.27-1.34-1.18-1.07-2.03Z"/><path class="cls-12" d="m242.56,173.39c.38-1.22,1.67-1.9,2.89-1.52,1.22.38,1.9,1.67,1.52,2.89-.38,1.22-1.67,1.9-2.89,1.52-1.22-.38-1.9-1.67-1.52-2.89Z"/><path class="cls-12" d="m226.81,203.26c.38-1.22,1.67-1.9,2.89-1.52,1.22.38,1.9,1.67,1.52,2.89-.38,1.22-1.67,1.9-2.89,1.52-1.22-.38-1.9-1.67-1.52-2.89Z"/><path class="cls-12" d="m222.23,253.78c.38-1.22,1.67-1.9,2.89-1.52,1.22.38,1.9,1.67,1.52,2.89-.38,1.22-1.67,1.9-2.89,1.52-1.22-.38-1.9-1.67-1.52-2.89Z"/><path class="cls-12" d="m157.19,136.61c.22-.72.98-1.12,1.7-.89.71.22,1.11.98.89,1.7-.22.72-.98,1.12-1.7.9-.72-.22-1.11-.98-.89-1.7Z"/><path class="cls-12" d="m114.56,181.45c.3-.95,1.3-1.48,2.26-1.19.95.29,1.48,1.3,1.19,2.25-.29.95-1.3,1.48-2.25,1.19-.95-.29-1.48-1.3-1.19-2.25Z"/><path class="cls-12" d="m129.44,217.38c.29-.93,1.27-1.45,2.2-1.16.93.29,1.45,1.27,1.16,2.2-.29.93-1.27,1.45-2.2,1.16-.93-.29-1.45-1.27-1.16-2.2Z"/><path class="cls-12" d="m178.31,208.09c.2-.66.9-1.03,1.56-.82.66.2,1.03.9.82,1.56-.21.66-.9,1.03-1.56.82-.66-.2-1.03-.9-.82-1.56Z"/><path class="cls-12" d="m154.19,231.54c.27-.87,1.2-1.36,2.07-1.09.87.27,1.36,1.2,1.09,2.07-.27.87-1.2,1.36-2.07,1.09-.87-.27-1.36-1.2-1.09-2.07Z"/><path class="cls-12" d="m93.05,224.82c.3-.98,1.34-1.52,2.31-1.22.97.3,1.52,1.34,1.22,2.31-.3.97-1.34,1.52-2.31,1.22-.97-.3-1.52-1.34-1.22-2.31Z"/><path class="cls-12" d="m96.33,259.06c.34-1.1,1.5-1.71,2.6-1.37,1.1.34,1.71,1.5,1.37,2.6-.34,1.09-1.5,1.71-2.6,1.37-1.1-.34-1.71-1.5-1.37-2.6Z"/><path class="cls-12" d="m154.76,253.87c.29-.95,1.3-1.48,2.24-1.18.95.29,1.47,1.3,1.18,2.24-.29.95-1.3,1.47-2.24,1.18-.95-.29-1.47-1.3-1.18-2.24Z"/><path class="cls-12" d="m189.56,271.15c.28-.92,1.26-1.43,2.17-1.15.92.28,1.43,1.26,1.15,2.18-.28.92-1.26,1.43-2.17,1.15-.92-.28-1.43-1.26-1.15-2.18Z"/><path class="cls-12" d="m169.48,313.05c.38-1.22,1.67-1.9,2.89-1.52,1.22.38,1.9,1.67,1.52,2.89-.38,1.22-1.67,1.9-2.89,1.52-1.22-.38-1.9-1.67-1.52-2.89Z"/><path class="cls-12" d="m145.26,286.45c.38-1.22,1.67-1.9,2.89-1.52,1.22.38,1.9,1.67,1.52,2.89-.38,1.22-1.67,1.9-2.89,1.52-1.22-.38-1.9-1.67-1.52-2.89Z"/><path class="cls-12" d="m118.71,116.67c.34-1.09,1.49-1.69,2.58-1.36,1.09.34,1.69,1.49,1.36,2.58-.34,1.09-1.49,1.69-2.58,1.36-1.09-.34-1.69-1.49-1.36-2.58Z"/><path class="cls-12" d="m100.36,80.04c.26-.85,1.17-1.33,2.02-1.07.85.26,1.33,1.17,1.06,2.02-.26.85-1.17,1.33-2.02,1.06-.85-.27-1.33-1.17-1.06-2.02Z"/><path class="cls-12" d="m103.07,105.71c.27-.87,1.19-1.36,2.06-1.09.87.27,1.35,1.19,1.08,2.06-.27.87-1.19,1.35-2.06,1.09-.87-.27-1.35-1.19-1.08-2.06Z"/><path class="cls-12" d="m18.1,96.93c.31-.98,1.35-1.53,2.33-1.23.98.31,1.53,1.35,1.23,2.33-.31.98-1.35,1.53-2.33,1.23-.98-.3-1.53-1.35-1.23-2.33Z"/><path class="cls-12" d="m23.32,82.13c.2-.66.91-1.03,1.57-.83.66.2,1.03.91.83,1.57-.2.66-.91,1.03-1.57.83-.66-.2-1.03-.91-.83-1.57Z"/><path class="cls-12" d="m71.18,16.38c.33-1.06,1.46-1.66,2.52-1.33,1.06.33,1.66,1.46,1.33,2.52-.33,1.06-1.46,1.66-2.52,1.33-1.06-.33-1.66-1.46-1.33-2.52Z"/><line class="cls-6" x1="-23.91" y1="382.27" x2="48.65" y2="314.76"/><polygon class="cls-6" points="2.45 245.42 48.65 314.76 -28.47 288.5 2.45 245.42"/><polygon class="cls-6" points="-15.01 221.51 2.45 245.42 -29.41 248.23 -15.01 221.51"/><polygon class="cls-6" points="1.14 181.14 -15.01 221.51 -20.41 208.01 1.14 181.14"/><line class="cls-6" x1="-9.83" y1="154.51" x2="1.14" y2="181.14"/><line class="cls-6" x1="36.64" y1="246.23" x2="23.77" y2="223.37"/><line class="cls-6" x1="31.03" y1="205.28" x2="50.41" y2="167.48"/><line class="cls-6" x1="23.77" y1="223.37" x2="31.03" y2="205.28"/><polyline class="cls-6" points="36.64 246.23 2.45 245.42 23.77 223.37"/><line class="cls-6" x1="36.64" y1="246.23" x2="48.65" y2="314.76"/><polyline class="cls-6" points="23.77 223.37 -15.01 221.51 31.03 205.28"/><polygon class="cls-6" points="49.94 137.17 50.41 167.48 12.61 159.58 49.94 137.17"/><line class="cls-6" x1="31.03" y1="205.28" x2="12.61" y2="159.58"/><polygon class="cls-6" points="100.48 87.91 49.94 137.17 24 120.73 100.48 87.91"/><line class="cls-6" x1="12.61" y1="159.58" x2="24" y2="120.73"/><polyline class="cls-6" points="31.03 205.28 1.14 181.14 12.61 159.58"/><polyline class="cls-6" points="12.61 159.58 -9.83 154.51 24 120.73"/><polygon class="cls-6" points="70.54 72.28 100.48 87.91 27.25 96.98 70.54 72.28"/><line class="cls-6" x1="24" y1="120.73" x2="27.25" y2="96.98"/><polygon class="cls-6" points="60.12 57.66 70.54 72.28 37.8 33.35 60.12 57.66"/><line class="cls-6" x1="27.25" y1="96.98" x2="37.8" y2="33.35"/><polyline class="cls-6" points="24 120.73 -18.09 116.49 27.25 96.98"/><polyline class="cls-6" points="27.25 96.98 -5.88 90.84 37.8 33.35"/><line class="cls-6" x1="49.95" y1="137.17" x2="96.27" y2="123.11"/><line class="cls-6" x1="96.27" y1="123.11" x2="100.48" y2="87.91"/><polygon class="cls-6" points=".59 38.27 -5.88 90.84 -17.99 72 .59 38.27"/><line class="cls-6" x1=".59" y1="38.27" x2="-39.32" y2="14.61"/><line class="cls-6" x1="37.8" y1="33.35" x2=".59" y2="38.27"/><path class="cls-11" d="m1.42,247.36c.82.65,2.01.5,2.66-.32.65-.82.5-2.01-.32-2.66-.82-.64-2.01-.5-2.66.32-.65.82-.5,2.01.32,2.66Z"/><path class="cls-11" d="m.38,182.43c.6.48,1.48.37,1.95-.24.47-.61.37-1.48-.24-1.96-.61-.47-1.48-.37-1.96.24-.47.61-.37,1.48.24,1.95Z"/><path class="cls-11" d="m11.55,161.07c.77.61,1.89.47,2.49-.3.6-.77.47-1.88-.3-2.49-.77-.6-1.88-.47-2.49.3-.6.77-.47,1.88.3,2.49Z"/><path class="cls-11" d="m23.12,122.04c.65.51,1.58.39,2.08-.25.51-.64.39-1.58-.25-2.08-.64-.5-1.58-.39-2.08.25-.51.64-.39,1.57.25,2.08Z"/><path class="cls-11" d="m48.77,138.39c.63.5,1.55.39,2.04-.25.5-.63.39-1.55-.25-2.05-.63-.5-1.55-.38-2.05.25-.49.64-.38,1.55.25,2.05Z"/><path class="cls-11" d="m95.01,124.31c.71.56,1.73.43,2.29-.28.55-.71.43-1.73-.28-2.28-.71-.55-1.73-.43-2.28.28-.55.71-.43,1.73.28,2.28Z"/><path class="cls-11" d="m98.9,89.77c1,.79,2.46.61,3.24-.39.79-1,.61-2.46-.39-3.24-1.01-.79-2.46-.61-3.24.39-.79,1.01-.61,2.46.4,3.24Z"/><path class="cls-11" d="m68.94,74.18c1,.79,2.46.61,3.25-.4.79-1,.61-2.46-.39-3.24-1.01-.79-2.46-.61-3.24.39-.79,1-.61,2.46.39,3.24Z"/><path class="cls-11" d="m36.4,35.26c1,.79,2.46.61,3.24-.4.79-1,.61-2.46-.4-3.24-1-.78-2.46-.61-3.24.4-.79,1-.61,2.46.39,3.24Z"/><path class="cls-11" d="m49.66,168.62c.59.46,1.44.36,1.9-.23.46-.59.36-1.44-.23-1.9-.59-.46-1.44-.36-1.9.23-.46.59-.36,1.44.23,1.9Z"/><path class="cls-11" d="m26.32,97.84c.54.42,1.33.33,1.75-.21.43-.54.33-1.33-.21-1.75-.54-.43-1.33-.33-1.75.21-.43.54-.33,1.33.21,1.75Z"/><path class="cls-11" d="m-.34,39.58c.76.59,1.85.46,2.44-.3.59-.76.46-1.85-.3-2.44-.75-.59-1.85-.46-2.44.3-.59.76-.46,1.85.3,2.44Z"/><path class="cls-11" d="m3.41,217.26c.9.7,2.19.54,2.89-.35.7-.9.54-2.19-.35-2.89-.9-.7-2.19-.54-2.89.35-.7.9-.55,2.19.35,2.89Z"/><path class="cls-11" d="m35.16,247.48c.7.55,1.72.43,2.27-.27.55-.7.43-1.72-.28-2.27-.7-.55-1.72-.43-2.27.28-.55.7-.43,1.72.28,2.27Z"/><path class="cls-11" d="m22.77,224.84c.72.56,1.75.43,2.31-.28.56-.72.43-1.75-.28-2.31-.71-.56-1.75-.44-2.31.28-.56.72-.43,1.75.28,2.31Z"/><path class="cls-11" d="m47.41,316.43c.88.69,2.14.53,2.83-.34.69-.87.53-2.14-.34-2.83-.88-.69-2.14-.53-2.83.34-.68.87-.53,2.14.34,2.83Z"/><line class="cls-9" x1="71.48" y1="180.02" x2="73.73" y2="164.63"/><polyline class="cls-9" points="71.48 180.02 62.94 164.31 73.73 164.63"/><polyline class="cls-9" points="62.94 164.31 61.49 147.36 73.73 164.63"/><path class="cls-12" d="m73.45,163.7c-.44.14-.68.61-.53,1.05s.61.68,1.05.53.68-.61.53-1.05-.61-.68-1.05-.53Z"/><path class="cls-12" d="m62.51,163.53c-.44.14-.68.61-.53,1.05s.61.67,1.05.53.68-.61.53-1.05-.61-.68-1.05-.54Z"/><path class="cls-12" d="m71.17,178.83c-.55.18-.85.77-.67,1.32s.77.85,1.32.67.85-.77.67-1.32-.77-.85-1.32-.67Z"/><path class="cls-12" d="m61.28,146.74c-.41.13-.63.57-.5.97s.57.63.97.49.63-.57.49-.97-.57-.62-.97-.49Z"/><line class="cls-4" x1="15.85" y1="148.46" x2="40.52" y2="148.98"/><polyline class="cls-4" points="15.85 148.46 12.28 137.62 40.52 148.98"/><line class="cls-4" x1="40.52" y1="148.98" x2="19.75" y2="129.15"/><line class="cls-4" x1="12.28" y1="137.62" x2="19.75" y2="129.15"/><path class="cls-12" d="m40.1,147.94c-.45.15-.7.64-.55,1.09.15.45.64.7,1.09.55.45-.15.7-.64.55-1.09-.15-.45-.64-.7-1.09-.55Z"/><path class="cls-12" d="m12.11,136.5c-.63.2-.97.88-.76,1.5.21.63.88.97,1.5.76.62-.2.97-.88.76-1.51-.21-.62-.88-.96-1.5-.76Z"/><path class="cls-12" d="m19.56,128.62c-.39.13-.6.55-.47.94.13.39.55.6.94.47.39-.13.6-.55.47-.94-.13-.39-.55-.6-.94-.47Z"/><path class="cls-12" d="m15.44,147.29c-.58.19-.89.81-.7,1.39s.81.89,1.39.7c.58-.19.89-.81.7-1.39-.19-.58-.81-.89-1.39-.7Z"/><line class="cls-3" x1="127.04" y1="47.83" x2="121.74" y2="37.89"/><polyline class="cls-3" points="127.04 47.83 112.32 42.91 121.74 37.89"/><polyline class="cls-3" points="112.32 42.91 103.11 33.86 121.74 37.89"/><path class="cls-12" d="m103,33.18c-.34.11-.52.47-.41.81s.47.52.81.41.52-.47.41-.81-.47-.52-.81-.41Z"/><path class="cls-12" d="m121.36,37.29c-.31.1-.47.43-.37.73s.43.47.73.37.47-.43.37-.73-.43-.47-.73-.37Z"/><path class="cls-12" d="m126.74,47.1c-.3.1-.47.42-.37.73s.42.47.73.37.47-.42.37-.73-.42-.47-.73-.37Z"/><path class="cls-12" d="m112.15,41.83c-.52.17-.8.73-.63,1.25s.73.8,1.25.63.8-.73.63-1.25-.73-.8-1.25-.63Z"/><line class="cls-8" x1="83.2" y1="187.98" x2="74.8" y2="199.8"/><polyline class="cls-8" points="83.2 187.98 90.52 199.29 74.8 199.8"/><polyline class="cls-8" points="90.52 199.29 87.03 212.04 74.8 199.8"/><path class="cls-12" d="m74.55,199.11c-.37.12-.58.52-.45.89s.52.57.89.45.57-.52.45-.89-.52-.57-.89-.45Z"/><path class="cls-12" d="m82.99,187.53c-.31.1-.48.44-.38.75s.44.48.75.38.48-.44.38-.75-.44-.48-.75-.38Z"/><path class="cls-12" d="m90.31,198.61c-.35.11-.54.49-.42.83s.49.53.83.42.53-.48.42-.83-.48-.53-.83-.42Z"/><path class="cls-12" d="m86.72,211.03c-.5.16-.77.7-.61,1.21s.7.78,1.2.61.78-.7.61-1.2-.7-.78-1.21-.61Z"/><line class="cls-5" x1="81.35" y1="294.67" x2="84.37" y2="277.02"/><polyline class="cls-5" points="81.35 294.67 71.43 276.88 84.37 277.02"/><polyline class="cls-5" points="71.43 276.88 70.04 257.52 84.37 277.02"/><path class="cls-12" d="m83.84,275.81c-.73.24-1.12,1.02-.88,1.74s1.01,1.12,1.74.88,1.12-1.02.88-1.74-1.02-1.12-1.74-.89Z"/><path class="cls-12" d="m81.21,293.85c-.32.1-.49.45-.39.76s.45.49.76.39.49-.44.39-.76-.45-.49-.76-.39Z"/><path class="cls-12" d="m71.08,275.5c-.78.26-1.21,1.09-.95,1.88s1.09,1.21,1.88.95,1.21-1.1.95-1.88-1.1-1.21-1.88-.95Z"/><path class="cls-12" d="m69.63,256.34c-.67.22-1.03.94-.82,1.61s.94,1.03,1.61.82,1.04-.94.82-1.61-.94-1.03-1.61-.82Z"/></g></g></g></svg>