<?xml version="1.0" encoding="UTF-8"?><svg id="_レイヤー_2" xmlns="http://www.w3.org/2000/svg" xmlns:xlink="http://www.w3.org/1999/xlink" viewBox="0 0 561 756"><defs><style>.cls-1,.cls-2,.cls-3,.cls-4,.cls-5,.cls-6,.cls-7,.cls-8,.cls-9,.cls-10{fill:none;}.cls-2{opacity:.4;}.cls-3{stroke-width:.12px;}.cls-3,.cls-4,.cls-5,.cls-6,.cls-7,.cls-8,.cls-9{stroke-linejoin:round;}.cls-3,.cls-4,.cls-5,.cls-7,.cls-8,.cls-9{stroke:#468cbe;}.cls-4{stroke-width:.12px;}.cls-5{stroke-width:.17px;}.cls-11{fill:#468cbe;}.cls-12{fill:#3c6eb4;}.cls-6{stroke:#a0b4d2;}.cls-6,.cls-7{stroke-width:.18px;}.cls-8{stroke-width:.15px;}.cls-9{stroke-width:.15px;}.cls-10{clip-path:url(#clippath);}</style><clipPath id="clippath"><rect class="cls-1" width="561" height="756"/></clipPath></defs><g id="bg"><g class="cls-10"><g class="cls-2"><line class="cls-7" x1="-122.7" y1="5.88" x2="115.89" y2="40.37"/><polygon class="cls-7" points="119.56 243.01 115.89 40.37 -1.92 199.7 119.56 243.01"/><polygon class="cls-7" points="117.76 315 119.56 243.01 51.97 281.52 117.76 315"/><line class="cls-7" x1="-1.92" y1="199.7" x2="51.97" y2="281.52"/><polyline class="cls-7" points="-1.92 199.7 -13.38 236.65 51.97 281.52"/><polygon class="cls-7" points="205.98 373.35 117.76 315 125.67 349.48 205.98 373.35"/><line class="cls-7" x1="51.97" y1="281.52" x2="125.67" y2="349.48"/><line class="cls-7" x1="220.91" y1="441.79" x2="205.98" y2="373.35"/><line class="cls-7" x1="186.8" y1="194.05" x2="192.72" y2="257.57"/><line class="cls-7" x1="232.29" y1="283.69" x2="323.39" y2="332.42"/><line class="cls-7" x1="192.72" y1="257.57" x2="232.29" y2="283.69"/><polyline class="cls-7" points="186.8 194.05 119.56 243.01 192.72 257.57"/><line class="cls-7" x1="186.8" y1="194.05" x2="115.89" y2="40.37"/><polyline class="cls-7" points="192.72 257.57 117.76 315 232.29 283.69"/><polygon class="cls-7" points="364.46 393.68 323.39 332.42 258.76 400.58 364.46 393.68"/><line class="cls-7" x1="232.29" y1="283.69" x2="258.76" y2="400.58"/><polygon class="cls-7" points="533.74 422.18 364.46 393.68 335.35 462.49 533.74 422.18"/><line class="cls-7" x1="258.76" y1="400.58" x2="335.35" y2="462.49"/><polyline class="cls-7" points="232.29 283.69 205.98 373.35 258.76 400.58"/><polyline class="cls-7" points="258.76 400.58 220.91 441.79 335.35 462.49"/><polygon class="cls-7" points="495.51 494.89 533.74 422.18 374.75 505.48 495.51 494.89"/><line class="cls-7" x1="335.35" y1="462.49" x2="374.75" y2="505.48"/><polygon class="cls-7" points="546.1 581.89 495.51 494.89 483.96 618.08 546.1 581.89"/><line class="cls-7" x1="374.75" y1="505.48" x2="483.96" y2="618.08"/><polyline class="cls-7" points="335.35 462.49 257.05 529.26 374.75 505.48"/><line class="cls-7" x1="220.91" y1="441.79" x2="257.05" y2="529.26"/><polyline class="cls-7" points="374.75 505.48 317 563.63 483.96 618.08"/><line class="cls-7" x1="257.05" y1="529.26" x2="317" y2="563.63"/><line class="cls-7" x1="364.46" y1="393.68" x2="476.55" y2="357.62"/><line class="cls-7" x1="476.55" y1="357.62" x2="533.74" y2="422.18"/><line class="cls-7" x1="296.82" y1="697.65" x2="177.28" y2="630.81"/><polyline class="cls-7" points="257.05 529.26 168.28 547.08 317 563.63"/><polygon class="cls-7" points="402.75 659.79 317 563.63 318.88 618.08 402.75 659.79"/><line class="cls-7" x1="168.28" y1="547.08" x2="318.88" y2="618.08"/><line class="cls-7" x1="402.75" y1="659.79" x2="355.73" y2="762.36"/><line class="cls-7" x1="318.88" y1="618.08" x2="355.73" y2="762.36"/><polyline class="cls-7" points="168.28 547.08 177.28 630.81 318.88 618.08"/><polyline class="cls-7" points="318.88 618.08 296.82 697.65 355.73 762.36"/><line class="cls-7" x1="483.96" y1="618.08" x2="402.75" y2="659.79"/><path class="cls-12" d="m48.7,280.43c.59-1.9,2.61-2.96,4.51-2.38,1.9.59,2.96,2.61,2.38,4.51-.59,1.9-2.6,2.96-4.51,2.37-1.9-.59-2.97-2.61-2.37-4.51Z"/><path class="cls-12" d="m114.82,240.55c.76-2.43,3.34-3.79,5.77-3.04,2.43.75,3.79,3.34,3.04,5.77-.75,2.43-3.33,3.79-5.76,3.04-2.43-.76-3.79-3.34-3.04-5.76Z"/><path class="cls-12" d="m115.01,313.99c.51-1.62,2.24-2.54,3.86-2.02,1.63.5,2.54,2.23,2.04,3.86-.51,1.63-2.23,2.54-3.86,2.03-1.63-.51-2.54-2.23-2.04-3.87Z"/><path class="cls-12" d="m122.77,347.98c.55-1.77,2.43-2.77,4.21-2.22,1.77.55,2.77,2.43,2.22,4.21-.55,1.77-2.43,2.77-4.21,2.22-1.77-.56-2.77-2.44-2.22-4.21Z"/><path class="cls-12" d="m202.67,371.82c.55-1.79,2.45-2.78,4.24-2.23,1.79.55,2.78,2.45,2.23,4.24-.55,1.79-2.45,2.78-4.24,2.23s-2.78-2.45-2.23-4.24Z"/><path class="cls-12" d="m254.58,399.06c.7-2.27,3.12-3.55,5.39-2.84,2.27.7,3.55,3.12,2.84,5.39-.71,2.27-3.12,3.54-5.39,2.84-2.28-.7-3.55-3.12-2.84-5.39Z"/><path class="cls-12" d="m331.77,461.08c.59-1.9,2.61-2.96,4.51-2.38,1.9.59,2.97,2.61,2.37,4.51-.59,1.9-2.61,2.96-4.51,2.38-1.9-.59-2.97-2.61-2.38-4.51Z"/><path class="cls-12" d="m360.42,392.86c.58-1.87,2.57-2.92,4.44-2.34,1.87.58,2.91,2.56,2.33,4.43-.58,1.87-2.57,2.92-4.43,2.33-1.87-.58-2.91-2.56-2.34-4.43Z"/><path class="cls-12" d="m472.37,356.96c.65-2.09,2.86-3.26,4.95-2.61,2.09.65,3.25,2.86,2.61,4.95-.65,2.09-2.87,3.26-4.95,2.61-2.08-.65-3.26-2.86-2.61-4.95Z"/><path class="cls-12" d="m527.99,420.65c.92-2.96,4.06-4.62,7.03-3.71,2.96.92,4.62,4.07,3.71,7.03-.92,2.97-4.07,4.63-7.04,3.7-2.97-.92-4.62-4.07-3.71-7.03Z"/><path class="cls-12" d="m489.68,493.31c.92-2.97,4.07-4.62,7.03-3.7,2.97.92,4.63,4.07,3.71,7.03-.92,2.96-4.07,4.62-7.03,3.7-2.97-.92-4.62-4.07-3.71-7.03Z"/><path class="cls-12" d="m478.53,616.19c.92-2.96,4.07-4.62,7.03-3.7,2.97.92,4.62,4.07,3.71,7.03-.92,2.97-4.07,4.62-7.04,3.71-2.96-.92-4.62-4.07-3.7-7.03Z"/><path class="cls-12" d="m320.34,331.19c.54-1.74,2.39-2.72,4.13-2.17,1.74.54,2.71,2.39,2.17,4.12-.54,1.74-2.39,2.72-4.13,2.18-1.74-.54-2.71-2.39-2.17-4.13Z"/><path class="cls-12" d="m216.65,440.26c.72-2.31,3.17-3.61,5.49-2.89,2.31.71,3.61,3.17,2.89,5.48-.71,2.31-3.17,3.61-5.48,2.89-2.32-.72-3.61-3.17-2.89-5.48Z"/><path class="cls-12" d="m252.84,527.65c.69-2.25,3.1-3.52,5.35-2.82,2.25.7,3.52,3.1,2.82,5.35-.7,2.26-3.1,3.52-5.35,2.82-2.25-.7-3.52-3.1-2.82-5.35Z"/><path class="cls-12" d="m371.69,505.04c.5-1.6,2.2-2.5,3.8-2,1.6.5,2.5,2.19,2,3.8-.5,1.6-2.2,2.5-3.8,2-1.6-.49-2.49-2.2-2-3.8Z"/><path class="cls-12" d="m313.03,562.1c.66-2.12,2.91-3.31,5.03-2.65,2.12.66,3.31,2.91,2.65,5.03-.65,2.12-2.91,3.31-5.03,2.65-2.12-.66-3.31-2.91-2.65-5.04Z"/><path class="cls-12" d="m164.33,545.74c.74-2.37,3.25-3.69,5.62-2.96,2.37.73,3.7,3.25,2.96,5.62-.74,2.37-3.26,3.7-5.62,2.96-2.36-.74-3.69-3.25-2.96-5.62Z"/><path class="cls-12" d="m172.3,629.02c.82-2.67,3.66-4.15,6.32-3.33,2.66.83,4.16,3.65,3.33,6.32-.83,2.66-3.66,4.15-6.32,3.33-2.67-.83-4.16-3.66-3.33-6.32Z"/><path class="cls-12" d="m314.42,616.41c.71-2.3,3.16-3.59,5.46-2.88,2.3.71,3.58,3.16,2.87,5.46-.71,2.3-3.15,3.59-5.45,2.87-2.3-.71-3.59-3.16-2.87-5.46Z"/><path class="cls-12" d="m399.07,658.44c.69-2.23,3.06-3.48,5.29-2.79,2.23.69,3.48,3.06,2.79,5.29-.69,2.23-3.06,3.48-5.29,2.79-2.23-.69-3.48-3.06-2.79-5.29Z"/><path class="cls-12" d="m291.33,695.65c.92-2.97,4.06-4.62,7.03-3.71,2.96.92,4.62,4.07,3.7,7.03-.92,2.97-4.07,4.63-7.03,3.7-2.97-.92-4.62-4.07-3.7-7.03Z"/><path class="cls-12" d="m226.75,282.67c.82-2.64,3.63-4.12,6.27-3.3,2.64.82,4.12,3.63,3.3,6.27-.82,2.64-3.63,4.12-6.27,3.3-2.64-.82-4.12-3.63-3.3-6.27Z"/><path class="cls-12" d="m182.11,193.59c.64-2.08,2.84-3.24,4.91-2.59,2.07.64,3.23,2.84,2.59,4.91-.64,2.07-2.84,3.23-4.91,2.59-2.07-.65-3.23-2.85-2.59-4.91Z"/><path class="cls-12" d="m188.69,256.02c.65-2.12,2.9-3.3,5.01-2.64,2.11.65,3.29,2.9,2.64,5.01-.65,2.11-2.9,3.29-5.01,2.64-2.12-.66-3.3-2.9-2.64-5.01Z"/><path class="cls-12" d="m-5.27,198.68c.5-1.61,2.21-2.51,3.82-2.01,1.61.5,2.51,2.21,2.01,3.81-.5,1.61-2.21,2.51-3.81,2.01-1.61-.5-2.51-2.21-2.01-3.81Z"/><path class="cls-12" d="m111.12,38.74c.8-2.59,3.54-4.03,6.13-3.23,2.58.8,4.03,3.55,3.22,6.13-.8,2.58-3.54,4.03-6.12,3.23-2.59-.8-4.03-3.55-3.23-6.13Z"/><polygon class="cls-6" points="-56.06 595.86 56.32 764.51 -131.26 700.62 -56.06 595.86"/><line class="cls-6" x1="27.1" y1="597.81" x2="-4.2" y2="542.22"/><line class="cls-6" x1="13.46" y1="498.22" x2="60.6" y2="406.28"/><line class="cls-6" x1="-4.2" y1="542.22" x2="13.46" y2="498.22"/><polyline class="cls-6" points="27.1 597.81 -56.06 595.86 -4.2 542.22"/><line class="cls-6" x1="27.1" y1="597.81" x2="56.32" y2="764.51"/><polyline class="cls-6" points="-4.2 542.22 -98.52 537.69 13.46 498.22"/><polygon class="cls-6" points="59.47 332.54 60.6 406.28 -31.34 387.06 59.47 332.54"/><line class="cls-6" x1="13.46" y1="498.22" x2="-31.34" y2="387.06"/><polygon class="cls-6" points="182.4 212.72 59.47 332.54 -3.64 292.56 182.4 212.72"/><polyline class="cls-6" points="13.46 498.22 -59.23 439.49 -31.34 387.06"/><polygon class="cls-6" points="109.58 174.71 182.4 212.72 4.27 234.78 109.58 174.71"/><line class="cls-6" x1="-3.64" y1="292.56" x2="4.27" y2="234.78"/><polygon class="cls-6" points="84.23 139.16 109.58 174.71 29.93 80.03 84.23 139.16"/><line class="cls-6" x1="4.27" y1="234.78" x2="29.93" y2="80.03"/><polyline class="cls-6" points="-3.64 292.56 -106.02 282.25 4.27 234.78"/><polyline class="cls-6" points="4.27 234.78 -76.31 219.86 29.93 80.03"/><line class="cls-6" x1="59.48" y1="332.54" x2="172.15" y2="298.36"/><line class="cls-6" x1="172.15" y1="298.36" x2="182.4" y2="212.72"/><line class="cls-6" x1="29.93" y1="80.03" x2="-60.58" y2="91.98"/><path class="cls-11" d="m-5.78,295.75c1.57,1.23,3.84.95,5.06-.62,1.23-1.57.95-3.83-.62-5.06-1.56-1.23-3.83-.95-5.06.62-1.23,1.57-.95,3.83.61,5.06Z"/><path class="cls-11" d="m56.62,335.52c1.54,1.21,3.76.94,4.97-.6,1.21-1.54.94-3.77-.6-4.97-1.54-1.21-3.77-.93-4.98.6-1.2,1.55-.93,3.77.61,4.98Z"/><path class="cls-11" d="m169.09,301.28c1.72,1.35,4.21,1.05,5.56-.67,1.34-1.72,1.04-4.21-.68-5.55-1.72-1.35-4.21-1.05-5.55.67-1.35,1.72-1.04,4.21.67,5.55Z"/><path class="cls-11" d="m178.55,217.25c2.44,1.92,5.98,1.49,7.89-.96,1.91-2.44,1.48-5.97-.96-7.89-2.45-1.91-5.98-1.48-7.89.96-1.91,2.45-1.48,5.98.96,7.89Z"/><path class="cls-11" d="m105.68,179.34c2.44,1.91,5.98,1.48,7.89-.96,1.91-2.44,1.48-5.97-.96-7.88-2.45-1.92-5.98-1.49-7.89.96-1.91,2.44-1.48,5.98.96,7.89Z"/><path class="cls-11" d="m26.54,84.68c2.44,1.92,5.97,1.48,7.89-.96,1.91-2.44,1.48-5.97-.96-7.89-2.44-1.91-5.98-1.48-7.88.96-1.92,2.44-1.49,5.98.96,7.89Z"/><path class="cls-11" d="m58.78,409.03c1.44,1.12,3.51.87,4.63-.56,1.12-1.44.87-3.51-.57-4.63-1.43-1.13-3.5-.88-4.62.56-1.13,1.43-.87,3.51.56,4.63Z"/><path class="cls-11" d="m2.01,236.88c1.32,1.03,3.23.81,4.26-.51,1.04-1.32.8-3.23-.52-4.26-1.32-1.04-3.23-.8-4.26.51-1.03,1.32-.8,3.23.52,4.26Z"/><path class="cls-11" d="m23.51,600.86c1.71,1.34,4.18,1.04,5.51-.67,1.34-1.71,1.04-4.18-.67-5.52-1.71-1.33-4.18-1.04-5.51.67-1.34,1.71-1.04,4.18.67,5.51Z"/><line class="cls-9" x1="111.85" y1="436.78" x2="117.32" y2="399.33"/><polyline class="cls-9" points="111.85 436.78 91.08 398.56 117.32 399.33"/><polyline class="cls-9" points="91.08 398.56 87.56 357.32 117.32 399.33"/><path class="cls-12" d="m116.64,397.07c-1.06.35-1.65,1.49-1.3,2.56s1.49,1.64,2.56,1.3,1.65-1.49,1.3-2.56-1.49-1.65-2.56-1.3Z"/><path class="cls-12" d="m90.03,396.66c-1.06.35-1.65,1.49-1.3,2.56s1.49,1.64,2.56,1.29,1.64-1.49,1.3-2.55-1.49-1.65-2.55-1.3Z"/><path class="cls-12" d="m111.11,433.89c-1.33.44-2.07,1.87-1.63,3.21s1.87,2.06,3.21,1.63c1.33-.44,2.06-1.87,1.63-3.2s-1.87-2.07-3.21-1.63Z"/><path class="cls-12" d="m87.05,355.81c-.99.32-1.53,1.38-1.21,2.36s1.38,1.53,2.37,1.2c.98-.32,1.52-1.38,1.2-2.37s-1.38-1.52-2.36-1.2Z"/><line class="cls-4" x1="-23.46" y1="360.01" x2="36.55" y2="361.28"/><polyline class="cls-4" points="-23.46 360.01 -32.14 333.63 36.55 361.28"/><line class="cls-4" x1="36.55" y1="361.28" x2="-13.97" y2="313.05"/><path class="cls-12" d="m35.54,358.75c-1.11.37-1.7,1.55-1.34,2.66.36,1.1,1.55,1.7,2.66,1.34,1.11-.37,1.71-1.55,1.35-2.66-.37-1.11-1.56-1.71-2.66-1.35Z"/><line class="cls-3" x1="247" y1="115.24" x2="234.11" y2="91.07"/><polyline class="cls-3" points="247 115.24 211.2 103.29 234.11 91.07"/><polyline class="cls-3" points="211.2 103.29 188.8 81.27 234.11 91.07"/><path class="cls-12" d="m188.52,79.6c-.82.27-1.27,1.14-1,1.97s1.15,1.26,1.96,1,1.27-1.15,1-1.96-1.15-1.27-1.97-1Z"/><path class="cls-12" d="m233.17,89.6c-.74.24-1.15,1.04-.9,1.78s1.04,1.14,1.78.9,1.14-1.04.9-1.77-1.04-1.15-1.78-.91Z"/><path class="cls-12" d="m246.26,113.47c-.73.24-1.13,1.03-.9,1.77s1.03,1.14,1.76.9c.74-.24,1.14-1.03.89-1.77s-1.03-1.14-1.76-.9Z"/><path class="cls-12" d="m210.77,100.64c-1.26.41-1.95,1.77-1.54,3.03s1.77,1.95,3.03,1.54c1.26-.41,1.95-1.77,1.54-3.03s-1.77-1.95-3.03-1.54Z"/><line class="cls-8" x1="140.35" y1="456.13" x2="119.94" y2="484.88"/><polyline class="cls-8" points="140.35 456.13 158.16 483.66 119.94 484.88"/><polyline class="cls-8" points="158.16 483.66 149.69 514.66 119.94 484.88"/><path class="cls-12" d="m119.31,483.21c-.9.29-1.4,1.27-1.11,2.17s1.27,1.39,2.17,1.1,1.4-1.27,1.1-2.17-1.27-1.4-2.17-1.1Z"/><path class="cls-12" d="m139.84,455.05c-.76.25-1.17,1.06-.92,1.82s1.06,1.17,1.82.93,1.18-1.06.93-1.82-1.07-1.17-1.83-.92Z"/><path class="cls-12" d="m157.65,481.98c-.84.27-1.3,1.18-1.03,2.02s1.18,1.3,2.02,1.02,1.3-1.18,1.02-2.02-1.18-1.3-2.02-1.03Z"/><path class="cls-12" d="m148.93,512.19c-1.22.4-1.89,1.71-1.49,2.93s1.71,1.89,2.93,1.49,1.89-1.71,1.49-2.93-1.71-1.89-2.93-1.49Z"/><line class="cls-5" x1="135.87" y1="715.65" x2="143.22" y2="672.71"/><polyline class="cls-5" points="135.87 715.65 111.73 672.37 143.22 672.71"/><polyline class="cls-5" points="111.73 672.37 108.35 625.28 143.22 672.71"/><path class="cls-12" d="m141.91,669.77c-1.77.58-2.73,2.47-2.15,4.24s2.47,2.73,4.24,2.15c1.76-.57,2.72-2.47,2.15-4.24s-2.47-2.73-4.23-2.15Z"/><path class="cls-12" d="m135.53,713.64c-.77.25-1.2,1.09-.94,1.86s1.08,1.19,1.86.94,1.2-1.08.94-1.85-1.08-1.2-1.86-.94Z"/><path class="cls-12" d="m110.88,669.01c-1.9.62-2.94,2.66-2.32,4.57s2.66,2.94,4.56,2.32c1.9-.62,2.94-2.66,2.32-4.57s-2.67-2.94-4.57-2.32Z"/><path class="cls-12" d="m107.36,622.41c-1.62.53-2.51,2.28-1.98,3.91s2.28,2.52,3.91,1.99c1.63-.53,2.52-2.28,1.99-3.91s-2.28-2.51-3.91-1.98Z"/></g></g></g></svg>