<?xml version="1.0" encoding="UTF-8"?><svg id="_レイヤー_2" xmlns="http://www.w3.org/2000/svg" xmlns:xlink="http://www.w3.org/1999/xlink" viewBox="0 0 498 380"><defs><style>.cls-1,.cls-2,.cls-3,.cls-4,.cls-5,.cls-6,.cls-7,.cls-8{fill:none;}.cls-2{opacity:.4;}.cls-3{stroke-width:.12px;}.cls-3,.cls-4,.cls-5,.cls-6,.cls-7{stroke-linejoin:round;}.cls-3,.cls-5,.cls-6,.cls-7{stroke:#468cbe;}.cls-9{fill:#468cbe;}.cls-10{fill:#3c6eb4;}.cls-4{stroke:#a0b4d2;}.cls-4,.cls-5{stroke-width:.18px;}.cls-6{stroke-width:.15px;}.cls-7{stroke-width:.15px;}.cls-8{clip-path:url(#clippath);}</style><clipPath id="clippath"><rect class="cls-1" width="498" height="380"/></clipPath></defs><g id="bg"><g class="cls-8"><g class="cls-2"><line class="cls-5" x1="29.68" y1="16.16" x2="-12.25" y2="-82.67"/><polygon class="cls-5" points="154.09 63.44 213.45 -130.34 52.03 -15.41 154.09 63.44"/><polygon class="cls-5" points="130.06 131.32 154.09 63.44 77.89 79.09 130.06 131.32"/><line class="cls-5" x1="52.03" y1="-15.41" x2="77.89" y2="79.09"/><polyline class="cls-5" points="52.03 -15.41 29.68 16.16 77.89 79.09"/><polygon class="cls-5" points="195.83 214.16 130.06 131.32 126.89 166.55 195.83 214.16"/><line class="cls-5" x1="77.89" y1="79.09" x2="126.89" y2="166.55"/><line class="cls-5" x1="188.79" y1="283.85" x2="195.83" y2="214.16"/><line class="cls-5" x1="233.2" y1="37.75" x2="219.13" y2="99.97"/><line class="cls-5" x1="248.65" y1="137.07" x2="320.15" y2="211.66"/><line class="cls-5" x1="219.13" y1="99.97" x2="248.65" y2="137.07"/><polyline class="cls-5" points="233.2 37.75 154.09 63.44 219.13 99.97"/><line class="cls-5" x1="233.2" y1="37.75" x2="213.45" y2="-130.34"/><polyline class="cls-5" points="219.13 99.97 130.06 131.32 248.65 137.07"/><polygon class="cls-5" points="340.19 282.64 320.15 211.66 237.57 256.41 340.19 282.64"/><line class="cls-5" x1="248.65" y1="137.08" x2="237.57" y2="256.41"/><polygon class="cls-5" points="492.28 362.23 340.19 282.64 291.17 339.02 492.28 362.23"/><line class="cls-5" x1="237.57" y1="256.41" x2="291.17" y2="339.02"/><polyline class="cls-5" points="248.65 137.08 195.83 214.16 237.57 256.41"/><polyline class="cls-5" points="237.57 256.41 188.79 283.85 291.17 339.02"/><polygon class="cls-5" points="433.39 419.5 492.28 362.23 315.3 392.11 433.39 419.5"/><line class="cls-5" x1="291.17" y1="339.02" x2="315.3" y2="392.11"/><polyline class="cls-5" points="291.17 339.02 196.03 378.21 315.3 392.11"/><line class="cls-5" x1="188.79" y1="283.85" x2="196.03" y2="378.21"/><line class="cls-5" x1="196.03" y1="378.21" x2="242.36" y2="429.48"/><line class="cls-5" x1="340.19" y1="282.64" x2="457.93" y2="283.11"/><line class="cls-5" x1="457.93" y1="283.11" x2="492.28" y2="362.23"/><polyline class="cls-5" points="196.03 378.21 106.11 367.63 242.36 429.48"/><line class="cls-5" x1="106.11" y1="367.63" x2="227.27" y2="481.83"/><polyline class="cls-5" points="106.11 367.63 88.7 450.02 227.27 481.83"/><path class="cls-10" d="m75.12,77.04c1.15-1.62,3.4-2.01,5.02-.86,1.62,1.15,2.01,3.4.86,5.03-1.15,1.62-3.39,2.01-5.02.86-1.62-1.15-2.01-3.4-.86-5.02Z"/><path class="cls-10" d="m150.35,59.63c1.48-2.08,4.35-2.57,6.42-1.1,2.08,1.47,2.57,4.35,1.1,6.43-1.47,2.07-4.34,2.57-6.42,1.1-2.07-1.47-2.57-4.35-1.1-6.42Z"/><path class="cls-10" d="m127.75,129.51c.98-1.39,2.91-1.72,4.3-.73,1.4.98,1.73,2.91.74,4.3-.99,1.39-2.91,1.72-4.3.74-1.39-.99-1.72-2.91-.74-4.31Z"/><path class="cls-10" d="m124.58,164.23c1.07-1.52,3.17-1.88,4.69-.8,1.52,1.07,1.87,3.17.8,4.69-1.07,1.52-3.17,1.88-4.69.8-1.51-1.08-1.88-3.18-.8-4.69Z"/><path class="cls-10" d="m193.16,211.68c1.08-1.53,3.19-1.89,4.72-.8,1.53,1.08,1.88,3.19.8,4.72-1.08,1.53-3.19,1.89-4.72.81s-1.88-3.19-.8-4.72Z"/><path class="cls-10" d="m234.06,253.67c1.37-1.94,4.07-2.4,6.01-1.03,1.94,1.37,2.4,4.07,1.03,6.01-1.38,1.94-4.07,2.4-6.01,1.03-1.94-1.38-2.41-4.07-1.03-6.01Z"/><path class="cls-10" d="m288.21,336.57c1.15-1.63,3.4-2.01,5.03-.86,1.62,1.15,2.01,3.4.86,5.02-1.15,1.63-3.4,2.01-5.02.86-1.62-1.15-2.01-3.4-.86-5.03Z"/><path class="cls-10" d="m336.6,280.59c1.13-1.6,3.35-1.98,4.94-.84,1.6,1.13,1.97,3.34.84,4.94-1.13,1.6-3.34,1.98-4.94.84-1.6-1.13-1.98-3.34-.85-4.94Z"/><path class="cls-10" d="m454.17,281.19c1.26-1.78,3.73-2.21,5.52-.95,1.78,1.26,2.2,3.73.94,5.51-1.26,1.78-3.74,2.21-5.52.95-1.78-1.26-2.21-3.73-.95-5.51Z"/><path class="cls-10" d="m487.29,358.98c1.79-2.53,5.3-3.13,7.84-1.34,2.53,1.79,3.13,5.3,1.34,7.83-1.8,2.53-5.3,3.13-7.84,1.34-2.54-1.79-3.14-5.3-1.34-7.83Z"/><path class="cls-10" d="m317.62,209.54c1.05-1.49,3.11-1.84,4.6-.79,1.49,1.05,1.84,3.11.79,4.6-1.05,1.49-3.11,1.84-4.6.79-1.49-1.05-1.84-3.11-.79-4.6Z"/><path class="cls-10" d="m185.22,281.07c1.4-1.98,4.14-2.44,6.11-1.05,1.98,1.4,2.45,4.13,1.04,6.11-1.4,1.97-4.13,2.44-6.11,1.04-1.98-1.4-2.45-4.13-1.05-6.11Z"/><path class="cls-10" d="m192.53,375.38c1.36-1.93,4.03-2.38,5.96-1.02,1.92,1.37,2.39,4.03,1.02,5.96-1.36,1.93-4.03,2.38-5.96,1.02-1.92-1.37-2.39-4.03-1.02-5.96Z"/><path class="cls-10" d="m102.77,365.12c1.43-2.03,4.24-2.5,6.26-1.07,2.02,1.43,2.51,4.23,1.07,6.26-1.44,2.03-4.24,2.5-6.27,1.07-2.02-1.43-2.5-4.24-1.07-6.26Z"/><path class="cls-10" d="m243.69,134.39c1.6-2.26,4.73-2.79,6.99-1.19,2.26,1.6,2.79,4.73,1.2,6.99-1.6,2.26-4.73,2.79-6.99,1.19-2.26-1.6-2.79-4.73-1.2-6.99Z"/><path class="cls-10" d="m228.88,35.86c1.25-1.78,3.7-2.2,5.48-.94,1.77,1.25,2.19,3.7.93,5.47-1.25,1.77-3.7,2.19-5.47.94-1.77-1.26-2.19-3.71-.94-5.47Z"/><path class="cls-10" d="m215.78,97.25c1.28-1.81,3.78-2.24,5.58-.96,1.81,1.28,2.23,3.77.96,5.58-1.28,1.81-3.78,2.23-5.58.96-1.81-1.28-2.23-3.78-.96-5.58Z"/><path class="cls-10" d="m25.91,12.86c1.45-2.04,4.28-2.53,6.32-1.08,2.04,1.45,2.53,4.28,1.08,6.33-1.45,2.04-4.28,2.53-6.32,1.08-2.04-1.44-2.53-4.27-1.08-6.32Z"/><line class="cls-4" x1="-25.92" y1="273.16" x2="47.4" y2="200.37"/><polygon class="cls-4" points="69.2 129.92 47.4 200.37 -34.04 153.58 69.2 129.92"/><polygon class="cls-4" points="223.22 54.13 69.2 129.92 21.6 72.33 223.22 54.13"/><line class="cls-4" x1="-34.04" y1="153.58" x2="21.6" y2="72.33"/><polyline class="cls-4" points="-34.04 153.58 -82.12 124.94 21.6 72.33"/><polygon class="cls-4" points="165.78 -4.59 223.22 54.13 47.04 19.86 165.78 -4.59"/><line class="cls-4" x1="21.6" y1="72.33" x2="47.04" y2="19.86"/><line class="cls-4" x1="47.04" y1="19.86" x2="119.43" y2="-119.3"/><polyline class="cls-4" points="21.6 72.33 -72.53 30.78 47.04 19.86"/><polyline class="cls-4" points="47.04 19.86 -24.94 -19.32 119.43 -119.3"/><line class="cls-4" x1="69.21" y1="129.92" x2="186.92" y2="132.37"/><line class="cls-4" x1="186.92" y1="132.37" x2="223.22" y2="54.13"/><path class="cls-9" d="m18.58,74.71c1.11,1.66,3.35,2.09,5,.98,1.65-1.11,2.09-3.35.98-5-1.11-1.65-3.35-2.09-5-.98-1.66,1.11-2.09,3.35-.99,5Z"/><path class="cls-9" d="m65.57,131.87c1.09,1.63,3.29,2.06,4.91.97,1.63-1.09,2.06-3.29.97-4.92-1.09-1.63-3.29-2.06-4.92-.97-1.62,1.1-2.06,3.3-.97,4.92Z"/><path class="cls-9" d="m183.11,134.2c1.22,1.82,3.68,2.3,5.5,1.08,1.81-1.22,2.29-3.68,1.07-5.49-1.22-1.81-3.68-2.3-5.49-1.08-1.81,1.22-2.3,3.68-1.08,5.49Z"/><path class="cls-9" d="m218.16,57.25c1.73,2.58,5.22,3.27,7.8,1.54,2.58-1.73,3.26-5.22,1.54-7.8-1.73-2.58-5.22-3.26-7.8-1.54-2.58,1.73-3.26,5.22-1.53,7.8Z"/><path class="cls-9" d="m160.64-1.39c1.73,2.58,5.22,3.26,7.8,1.53,2.58-1.73,3.26-5.22,1.53-7.79-1.73-2.58-5.22-3.27-7.8-1.54-2.58,1.73-3.26,5.22-1.54,7.8Z"/><path class="cls-9" d="m44.82,202.43c1.02,1.51,3.06,1.92,4.58.9,1.51-1.02,1.92-3.07.9-4.58-1.01-1.52-3.06-1.92-4.57-.9-1.52,1.01-1.92,3.06-.91,4.57Z"/><path class="cls-9" d="m44.24,21.15c.93,1.39,2.82,1.77,4.21.83,1.39-.93,1.76-2.82.83-4.21-.93-1.4-2.82-1.76-4.21-.83-1.39.94-1.77,2.82-.83,4.21Z"/><line class="cls-7" x1="86.66" y1="245.26" x2="103.48" y2="211.36"/><polyline class="cls-7" points="86.66 245.26 78.78 202.49 103.48 211.36"/><polyline class="cls-7" points="78.78 202.49 88.21 162.19 103.48 211.36"/><path class="cls-10" d="m103.54,208.99c-1.12,0-2.03.91-2.03,2.03s.91,2.03,2.03,2.03c1.12,0,2.03-.91,2.03-2.03s-.91-2.03-2.03-2.03Z"/><path class="cls-10" d="m78.37,200.36c-1.12,0-2.03.91-2.03,2.03s.91,2.02,2.03,2.02c1.12,0,2.02-.9,2.02-2.02s-.9-2.03-2.02-2.03Z"/><path class="cls-10" d="m86.86,242.28c-1.4,0-2.54,1.14-2.54,2.54s1.14,2.54,2.54,2.54c1.4,0,2.54-1.14,2.54-2.54,0-1.41-1.14-2.54-2.54-2.54Z"/><path class="cls-10" d="m88.2,160.6c-1.04,0-1.88.84-1.88,1.87s.84,1.88,1.88,1.88c1.03,0,1.88-.84,1.88-1.88s-.84-1.87-1.88-1.87Z"/><line class="cls-3" x1="-18.17" y1="130.32" x2="38.5" y2="150.13"/><polyline class="cls-3" points="-18.17 130.32 -18.23 102.55 38.5 150.13"/><line class="cls-3" x1="38.5" y1="150.13" x2="5.43" y2="88.61"/><line class="cls-3" x1="-18.23" y1="102.55" x2="5.43" y2="88.61"/><path class="cls-10" d="m38.32,147.42c-1.16,0-2.1.95-2.1,2.11,0,1.16.95,2.1,2.11,2.1,1.17,0,2.1-.95,2.1-2.11,0-1.16-.95-2.1-2.11-2.1Z"/><path class="cls-10" d="m5.39,87.25c-.99,0-1.8.81-1.8,1.81,0,1,.81,1.8,1.81,1.8.99,0,1.8-.81,1.8-1.81,0-1-.81-1.8-1.81-1.8Z"/><line class="cls-6" x1="107.77" y1="272.5" x2="79.44" y2="293.5"/><polyline class="cls-6" points="107.77 272.5 116.16 304.19 79.44 293.5"/><polyline class="cls-6" points="116.16 304.19 98.49 331.03 79.44 293.5"/><path class="cls-10" d="m79.36,291.72c-.95,0-1.73.77-1.73,1.72s.77,1.72,1.73,1.72c.95,0,1.72-.77,1.72-1.72s-.77-1.72-1.72-1.72Z"/><path class="cls-10" d="m107.61,271.31c-.8,0-1.44.65-1.44,1.45s.65,1.44,1.44,1.44c.8,0,1.45-.65,1.45-1.44s-.65-1.45-1.45-1.45Z"/><path class="cls-10" d="m116.19,302.44c-.89,0-1.61.72-1.61,1.6s.72,1.6,1.61,1.6c.88,0,1.6-.72,1.6-1.6s-.72-1.6-1.6-1.6Z"/><path class="cls-10" d="m98.53,328.45c-1.28,0-2.32,1.04-2.32,2.33s1.04,2.32,2.32,2.32c1.29,0,2.33-1.04,2.33-2.32s-1.04-2.33-2.33-2.33Z"/></g></g></g></svg>