<?xml version="1.0" encoding="UTF-8"?><svg id="_レイヤー_2" xmlns="http://www.w3.org/2000/svg" xmlns:xlink="http://www.w3.org/1999/xlink" viewBox="0 0 336 461"><defs><style>.cls-1,.cls-2,.cls-3,.cls-4,.cls-5,.cls-6,.cls-7,.cls-8{fill:none;}.cls-2{opacity:.4;}.cls-3{stroke-width:.12px;}.cls-3,.cls-4,.cls-5,.cls-6,.cls-7{stroke-linejoin:round;}.cls-3,.cls-4,.cls-5,.cls-7{stroke:#468cbe;}.cls-4{stroke-width:.12px;}.cls-5{stroke-width:.22px;}.cls-9{fill:#468cbe;}.cls-10{fill:#3c6eb4;}.cls-6{stroke:#a0b4d2;}.cls-6,.cls-7{stroke-width:.18px;}.cls-8{clip-path:url(#clippath);}</style><clipPath id="clippath"><rect class="cls-1" width="336" height="461"/></clipPath></defs><g id="bg"><g class="cls-8"><g class="cls-2"><line class="cls-7" x1="231.33" y1="241.64" x2="157.29" y2="319.37"/><line class="cls-7" x1="11.73" y1="371.93" x2="23.89" y2="131.17"/><polygon class="cls-7" points="225.31 108.68 23.89 131.17 193.48 233.66 225.31 108.68"/><line class="cls-7" x1="11.73" y1="371.93" x2="193.48" y2="233.66"/><polygon class="cls-7" points="297.15 103.78 225.31 108.68 269.94 172.4 297.15 103.78"/><line class="cls-7" x1="193.48" y1="233.66" x2="269.94" y2="172.4"/><polyline class="cls-7" points="11.73 371.93 157.29 319.37 193.48 233.66"/><polyline class="cls-7" points="193.48 233.66 231.33 241.64 269.94 172.4"/><polygon class="cls-7" points="347.06 10.52 297.15 103.78 330.75 92.7 347.06 10.52"/><line class="cls-7" x1="269.94" y1="172.4" x2="330.75" y2="92.7"/><line class="cls-7" x1="170.31" y1="46.28" x2="233.01" y2="34.48"/><line class="cls-7" x1="233.01" y1="34.48" x2="255.33" y2="-7.35"/><polyline class="cls-7" points="170.31 46.28 225.31 108.68 233.01 34.48"/><line class="cls-7" x1="170.31" y1="46.28" x2="23.89" y2="131.17"/><polyline class="cls-7" points="233.01 34.48 297.15 103.78 255.33 -7.35"/><polyline class="cls-7" points="255.34 -7.35 347.06 10.52 369.25 -44.57"/><path class="cls-10" d="m269.16,175.76c-1.95-.41-3.19-2.32-2.78-4.27.41-1.95,2.32-3.19,4.27-2.78,1.95.41,3.19,2.32,2.78,4.27-.41,1.95-2.32,3.2-4.27,2.78Z"/><path class="cls-10" d="m223.3,113.63c-2.49-.53-4.08-2.97-3.56-5.46.52-2.49,2.97-4.09,5.46-3.56,2.49.53,4.08,2.97,3.56,5.46-.53,2.49-2.97,4.08-5.46,3.56Z"/><path class="cls-10" d="m296.41,106.62c-1.66-.35-2.73-1.99-2.38-3.66.35-1.67,1.98-2.74,3.65-2.39,1.67.35,2.74,1.99,2.39,3.66-.35,1.67-1.99,2.74-3.66,2.39Z"/><path class="cls-10" d="m329.53,95.73c-1.82-.38-2.98-2.16-2.6-3.98.38-1.82,2.17-2.98,3.98-2.6,1.82.38,2.98,2.17,2.6,3.98-.39,1.82-2.17,2.99-3.98,2.6Z"/><path class="cls-10" d="m170.29,51c-2.13-.45-3.48-2.53-3.04-4.65.45-2.12,2.53-3.48,4.65-3.03,2.12.44,3.48,2.53,3.03,4.65-.45,2.12-2.54,3.48-4.65,3.04Z"/><path class="cls-10" d="m231.84,38.64c-2.17-.45-3.56-2.58-3.1-4.74.45-2.17,2.58-3.55,4.74-3.09,2.16.45,3.55,2.58,3.1,4.74-.46,2.17-2.58,3.55-4.74,3.09Z"/><path class="cls-10" d="m229.8,246.41c-2.45-.52-4.02-2.92-3.5-5.37.52-2.45,2.92-4.02,5.38-3.5,2.45.52,4.02,2.92,3.5,5.37-.51,2.45-2.92,4.02-5.37,3.5Z"/><path class="cls-10" d="m192.78,237.09c-1.65-.35-2.7-1.97-2.36-3.61.35-1.65,1.96-2.7,3.61-2.35,1.65.34,2.7,1.96,2.36,3.61-.35,1.65-1.96,2.7-3.61,2.36Z"/><path class="cls-10" d="m22.71,136.08c-2.65-.56-4.34-3.15-3.78-5.8.56-2.64,3.16-4.34,5.8-3.78,2.64.56,4.34,3.16,3.78,5.8-.56,2.65-3.16,4.34-5.8,3.78Z"/><path class="cls-10" d="m156.24,324.52c-3.03-.64-4.99-3.62-4.34-6.65.64-3.04,3.62-4.98,6.66-4.34,3.03.64,4.98,3.62,4.34,6.66-.64,3.04-3.62,4.98-6.66,4.34Z"/><path class="cls-10" d="m10.79,377.92c-3.35-.71-5.5-3.99-4.79-7.35.71-3.35,3.99-5.5,7.35-4.79,3.35.71,5.49,3.99,4.79,7.34-.71,3.36-4,5.5-7.35,4.79Z"/><polygon class="cls-6" points="320.04 160.18 393.35 152.21 382.76 245.54 320.04 160.18"/><polygon class="cls-6" points="189.31 48.93 320.04 160.18 286.1 226.74 189.31 48.93"/><line class="cls-6" x1="382.76" y1="245.54" x2="286.1" y2="226.74"/><polyline class="cls-6" points="382.76 245.54 375.57 301.03 286.1 226.74"/><polygon class="cls-6" points="158.24 124.97 189.31 48.93 227.84 224.24 158.24 124.97"/><line class="cls-6" x1="286.1" y1="226.74" x2="227.84" y2="224.24"/><polygon class="cls-6" points="125.2 153.51 158.24 124.97 71.37 213.07 125.2 153.51"/><line class="cls-6" x1="227.84" y1="224.24" x2="71.37" y2="213.07"/><polyline class="cls-6" points="286.1 226.74 285.35 329.63 227.84 224.24"/><line class="cls-6" x1="375.57" y1="301.03" x2="285.35" y2="329.63"/><polyline class="cls-6" points="227.84 224.24 220.47 305.86 71.37 213.07"/><line class="cls-6" x1="285.35" y1="329.63" x2="220.47" y2="305.86"/><line class="cls-6" x1="320.04" y1="160.18" x2="275.53" y2="51.18"/><line class="cls-6" x1="275.53" y1="51.18" x2="189.31" y2="48.93"/><line class="cls-6" x1="130.85" y1="407.53" x2="258.94" y2="456.04"/><polyline class="cls-6" points="285.35 329.63 328.82 409.06 220.46 305.86"/><polygon class="cls-6" points="91.68 302.08 220.46 305.86 177.58 339.45 91.68 302.08"/><line class="cls-6" x1="328.82" y1="409.06" x2="177.58" y2="339.45"/><line class="cls-6" x1="91.68" y1="302.08" x2="43.41" y2="404.07"/><line class="cls-6" x1="177.58" y1="339.45" x2="43.41" y2="404.07"/><polyline class="cls-6" points="328.82 409.06 258.93 456.04 177.58 339.45"/><polyline class="cls-6" points="177.58 339.45 130.85 407.53 43.41 404.07"/><line class="cls-6" x1="71.37" y1="213.07" x2="91.68" y2="302.08"/><path class="cls-9" d="m289.47,228.57c1.08-1.68.59-3.91-1.09-4.98-1.67-1.08-3.91-.59-4.98,1.08-1.08,1.67-.59,3.91,1.09,4.98,1.67,1.08,3.9.59,4.98-1.08Z"/><path class="cls-9" d="m323.27,162.74c1.06-1.65.58-3.84-1.06-4.89-1.64-1.06-3.84-.59-4.9,1.06-1.06,1.65-.58,3.84,1.06,4.9,1.65,1.05,3.84.58,4.9-1.07Z"/><path class="cls-9" d="m278.72,53.94c1.19-1.84.65-4.29-1.19-5.47-1.84-1.18-4.29-.64-5.46,1.19-1.18,1.84-.65,4.29,1.19,5.47,1.84,1.18,4.29.65,5.47-1.19Z"/><path class="cls-9" d="m194.18,52.34c1.68-2.61.93-6.09-1.69-7.77-2.61-1.68-6.09-.92-7.77,1.69-1.68,2.61-.92,6.09,1.69,7.77,2.61,1.68,6.09.92,7.77-1.69Z"/><path class="cls-9" d="m163.21,128.42c1.68-2.61.92-6.09-1.69-7.77-2.61-1.68-6.08-.92-7.76,1.69-1.68,2.61-.93,6.09,1.69,7.77,2.61,1.68,6.09.92,7.77-1.69Z"/><path class="cls-9" d="m76.31,216.02c1.68-2.61.92-6.09-1.69-7.77-2.6-1.68-6.08-.92-7.77,1.69-1.67,2.61-.92,6.09,1.69,7.76,2.61,1.68,6.09.93,7.77-1.69Z"/><path class="cls-9" d="m289.29,331.83c1.28-1.99.7-4.63-1.28-5.91-1.99-1.27-4.63-.7-5.91,1.29-1.28,1.99-.7,4.63,1.29,5.91,1.98,1.28,4.63.7,5.91-1.29Z"/><path class="cls-9" d="m230.13,226.29c.91-1.41.5-3.29-.91-4.2-1.41-.91-3.29-.5-4.19.91-.91,1.41-.5,3.29.91,4.19,1.42.91,3.29.5,4.2-.91Z"/><path class="cls-9" d="m224.2,307.92c1.2-1.87.66-4.36-1.21-5.56-1.87-1.2-4.36-.66-5.56,1.21-1.21,1.87-.66,4.36,1.21,5.56,1.86,1.2,4.35.66,5.56-1.21Z"/><path class="cls-9" d="m332.39,411.22c1.35-2.09.74-4.87-1.35-6.21-2.08-1.34-4.86-.74-6.2,1.35-1.34,2.09-.74,4.86,1.35,6.2,2.08,1.34,4.86.74,6.2-1.35Z"/><path class="cls-9" d="m263.51,458.71c1.51-2.35.83-5.47-1.52-6.98-2.35-1.51-5.47-.83-6.98,1.52-1.51,2.35-.83,5.47,1.52,6.98,2.35,1.51,5.48.83,6.98-1.52Z"/><path class="cls-9" d="m181.72,341.79c1.3-2.03.71-4.73-1.31-6.03-2.02-1.3-4.72-.72-6.02,1.31-1.31,2.02-.72,4.72,1.31,6.02,2.03,1.3,4.73.72,6.03-1.31Z"/><path class="cls-9" d="m95.08,304.03c1.26-1.97.69-4.58-1.27-5.84-1.96-1.26-4.58-.69-5.85,1.27-1.26,1.96-.69,4.58,1.27,5.84,1.97,1.26,4.58.69,5.84-1.27Z"/><path class="cls-9" d="m48.49,406.99c1.68-2.62.92-6.09-1.69-7.77-2.61-1.68-6.09-.92-7.77,1.69-1.68,2.61-.92,6.09,1.69,7.77,2.61,1.68,6.09.92,7.77-1.68Z"/><path class="cls-9" d="m135.92,410.45c1.68-2.62.93-6.09-1.69-7.77-2.61-1.68-6.09-.93-7.77,1.69-1.68,2.61-.92,6.09,1.69,7.77,2.62,1.68,6.1.92,7.77-1.69Z"/><polyline class="cls-4" points="355.11 240.21 329.64 251.3 350.78 180.33"/><line class="cls-4" x1="350.78" y1="180.33" x2="307.46" y2="235.12"/><line class="cls-4" x1="329.64" y1="251.3" x2="307.46" y2="235.12"/><path class="cls-10" d="m326.98,251.97c.64,1.47,2.35,2.14,3.81,1.5,1.47-.64,2.14-2.35,1.5-3.82-.63-1.47-2.35-2.14-3.82-1.5-1.46.64-2.14,2.34-1.5,3.81Z"/><path class="cls-10" d="m306.22,235.69c.4.91,1.46,1.33,2.38.93.91-.4,1.33-1.46.93-2.38-.4-.91-1.46-1.33-2.38-.93-.91.4-1.33,1.46-.93,2.37Z"/><line class="cls-5" x1="240.75" y1="382.39" x2="285.75" y2="356.7"/><polyline class="cls-5" points="240.75 382.39 234.04 334.68 285.75 356.7"/><polyline class="cls-5" points="234.04 334.68 264.52 298.6 285.75 356.7"/><path class="cls-10" d="m282.42,358.14c.67,1.54,2.46,2.25,4,1.58s2.25-2.46,1.58-4-2.46-2.25-4-1.58-2.25,2.46-1.58,4Z"/><path class="cls-10" d="m261.92,300.49c.55,1.26,2.02,1.85,3.28,1.3s1.84-2.02,1.3-3.28c-.55-1.26-2.02-1.85-3.28-1.3-1.27.55-1.85,2.02-1.3,3.28Z"/><path class="cls-10" d="m232.46,335.78c.48,1.1,1.76,1.6,2.86,1.13,1.1-.48,1.61-1.75,1.13-2.85s-1.76-1.61-2.86-1.13-1.61,1.76-1.13,2.86Z"/><path class="cls-10" d="m238.57,383.16c.5,1.16,1.84,1.68,2.99,1.19s1.68-1.83,1.18-2.99c-.5-1.15-1.84-1.68-2.99-1.18s-1.68,1.84-1.18,2.99Z"/><line class="cls-3" x1="86.25" y1="-6.33" x2="63.38" y2="8.76"/><polyline class="cls-3" points="86.25 -6.33 77.68 30.43 63.38 8.76"/><polyline class="cls-3" points="77.68 30.43 57.84 54.78 63.38 8.76"/><path class="cls-10" d="m56.2,55.21c.34.79,1.25,1.15,2.05.81s1.15-1.26.81-2.05-1.26-1.16-2.05-.82-1.15,1.26-.81,2.05Z"/><path class="cls-10" d="m62,9.82c.31.72,1.14,1.04,1.86.73s1.04-1.14.73-1.86c-.31-.71-1.14-1.04-1.85-.73s-1.05,1.14-.74,1.85Z"/><path class="cls-10" d="m75.08,31.1c.53,1.22,1.94,1.78,3.16,1.25s1.78-1.94,1.25-3.16-1.94-1.78-3.16-1.25c-1.22.53-1.78,1.94-1.25,3.16Z"/></g></g></g></svg>