<?xml version="1.0" encoding="UTF-8"?><svg id="_レイヤー_2" xmlns="http://www.w3.org/2000/svg" xmlns:xlink="http://www.w3.org/1999/xlink" viewBox="0 0 91 171"><defs><style>.cls-1,.cls-2,.cls-3,.cls-4,.cls-5,.cls-6{fill:none;}.cls-2{opacity:.4;}.cls-3{stroke-width:.12px;}.cls-3,.cls-4,.cls-5{stroke-linejoin:round;}.cls-3,.cls-5{stroke:#468cbe;}.cls-7{fill:#468cbe;}.cls-8{fill:#3c6eb4;}.cls-4{stroke:#a0b4d2;}.cls-4,.cls-5{stroke-width:.18px;}.cls-6{clip-path:url(#clippath);}</style><clipPath id="clippath"><rect class="cls-1" width="91" height="171"/></clipPath></defs><g id="bg"><g class="cls-6"><g class="cls-2"><line class="cls-5" x1="93.11" y1="80.53" x2="62.66" y2="112.49"/><line class="cls-5" x1="2.82" y1="134.1" x2="7.82" y2="35.11"/><polygon class="cls-5" points="90.63 25.87 7.82 35.11 77.55 77.25 90.63 25.87"/><line class="cls-5" x1="2.82" y1="134.1" x2="77.55" y2="77.25"/><polygon class="cls-5" points="120.17 23.85 90.63 25.87 108.98 52.06 120.17 23.85"/><line class="cls-5" x1="77.55" y1="77.25" x2="108.98" y2="52.06"/><polyline class="cls-5" points="2.82 134.1 62.66 112.49 77.55 77.25"/><polyline class="cls-5" points="77.55 77.25 93.11 80.53 108.98 52.06"/><line class="cls-5" x1="68.02" y1=".21" x2="93.8" y2="-4.64"/><polyline class="cls-5" points="68.02 .21 90.63 25.87 93.8 -4.64"/><line class="cls-5" x1="68.02" y1=".21" x2="7.82" y2="35.11"/><path class="cls-8" d="m89.81,27.9c-1.03-.22-1.68-1.22-1.46-2.24.21-1.02,1.22-1.68,2.25-1.46,1.02.22,1.68,1.22,1.46,2.24-.22,1.02-1.22,1.68-2.24,1.46Z"/><path class="cls-8" d="m68.01,2.15c-.88-.18-1.43-1.04-1.25-1.91.18-.87,1.04-1.43,1.91-1.25.87.18,1.43,1.04,1.25,1.91-.18.87-1.04,1.43-1.91,1.25Z"/><path class="cls-8" d="m92.48,82.49c-1.01-.21-1.65-1.2-1.44-2.21.21-1.01,1.2-1.65,2.21-1.44,1.01.21,1.65,1.2,1.44,2.21-.21,1.01-1.2,1.65-2.21,1.44Z"/><path class="cls-8" d="m77.26,78.66c-.68-.14-1.11-.81-.97-1.49.14-.68.81-1.11,1.48-.97.68.14,1.11.81.97,1.48-.14.68-.81,1.11-1.48.97Z"/><path class="cls-8" d="m7.34,37.13c-1.09-.23-1.79-1.3-1.56-2.38.23-1.09,1.3-1.78,2.39-1.55,1.09.23,1.78,1.3,1.56,2.38-.23,1.09-1.3,1.79-2.38,1.56Z"/><path class="cls-8" d="m62.23,114.6c-1.25-.26-2.05-1.49-1.79-2.74.26-1.25,1.49-2.05,2.74-1.79,1.25.26,2.05,1.49,1.78,2.74-.26,1.25-1.49,2.05-2.74,1.78Z"/><path class="cls-8" d="m2.44,136.56c-1.38-.29-2.26-1.64-1.97-3.02.29-1.38,1.64-2.26,3.02-1.97,1.38.29,2.26,1.64,1.97,3.02-.29,1.38-1.64,2.26-3.02,1.97Z"/><polygon class="cls-4" points="75.83 1.3 129.58 47.04 115.62 74.4 75.83 1.3"/><polygon class="cls-4" points="63.06 32.56 75.83 1.3 91.67 73.37 63.06 32.56"/><polygon class="cls-4" points="49.47 44.3 63.06 32.56 27.34 68.78 49.47 44.3"/><line class="cls-4" x1="91.67" y1="73.37" x2="27.34" y2="68.78"/><polyline class="cls-4" points="91.67 73.37 88.64 106.93 27.34 68.78"/><line class="cls-4" x1="115.32" y1="116.71" x2="88.64" y2="106.93"/><line class="cls-4" x1="111.28" y1="2.22" x2="75.83" y2="1.3"/><line class="cls-4" x1="51.8" y1="148.73" x2="104.46" y2="168.67"/><polyline class="cls-4" points="115.32 116.71 133.19 149.36 88.64 106.93"/><polygon class="cls-4" points="35.69 105.38 88.64 106.93 71.01 120.74 35.69 105.38"/><line class="cls-4" x1="133.19" y1="149.36" x2="71.01" y2="120.74"/><line class="cls-4" x1="35.69" y1="105.38" x2="15.85" y2="147.31"/><line class="cls-4" x1="71.01" y1="120.74" x2="15.85" y2="147.31"/><polyline class="cls-4" points="133.19 149.36 104.45 168.67 71.01 120.74"/><polyline class="cls-4" points="71.01 120.74 51.8 148.73 15.85 147.31"/><line class="cls-4" x1="27.34" y1="68.78" x2="35.69" y2="105.38"/><path class="cls-7" d="m77.83,2.7c.69-1.07.38-2.5-.69-3.19-1.07-.69-2.5-.38-3.19.69-.69,1.07-.38,2.5.69,3.19,1.07.69,2.5.38,3.19-.69Z"/><path class="cls-7" d="m65.1,33.98c.69-1.07.38-2.5-.7-3.19-1.07-.69-2.5-.38-3.19.69-.69,1.07-.38,2.5.69,3.19,1.07.69,2.5.38,3.19-.69Z"/><path class="cls-7" d="m29.37,69.99c.69-1.07.38-2.5-.7-3.19-1.07-.69-2.5-.38-3.19.69-.69,1.07-.38,2.5.7,3.19,1.07.69,2.5.38,3.19-.69Z"/><path class="cls-7" d="m92.61,74.22c.37-.58.21-1.35-.37-1.73-.58-.37-1.35-.2-1.72.38-.37.58-.2,1.35.37,1.72.58.37,1.35.21,1.72-.37Z"/><path class="cls-7" d="m90.17,107.78c.49-.77.27-1.79-.5-2.29-.77-.49-1.79-.27-2.28.5-.5.77-.27,1.79.5,2.29.77.49,1.79.27,2.28-.5Z"/><path class="cls-7" d="m72.71,121.7c.53-.83.29-1.94-.54-2.48-.83-.54-1.94-.29-2.48.54-.54.83-.29,1.94.54,2.47.83.54,1.94.3,2.48-.54Z"/><path class="cls-7" d="m37.09,106.18c.52-.81.28-1.88-.52-2.4-.81-.52-1.88-.28-2.4.52-.52.81-.28,1.88.52,2.4.81.52,1.88.29,2.4-.52Z"/><path class="cls-7" d="m17.93,148.51c.69-1.08.38-2.51-.69-3.2-1.07-.69-2.5-.38-3.2.69-.69,1.07-.38,2.5.69,3.19,1.07.69,2.5.38,3.19-.69Z"/><path class="cls-7" d="m53.88,149.93c.69-1.08.38-2.5-.69-3.19-1.07-.69-2.5-.38-3.19.69-.69,1.07-.38,2.5.69,3.19,1.08.69,2.51.38,3.19-.69Z"/><polyline class="cls-3" points="29.93 -6.31 21.78 3.71 24.06 -15.22"/><path class="cls-8" d="m21.11,3.88c.14.32.52.47.84.33s.47-.52.33-.84-.52-.48-.84-.34-.47.52-.33.84Z"/></g></g></g></svg>