<?xml version="1.0" encoding="UTF-8"?><svg id="_レイヤー_2" xmlns="http://www.w3.org/2000/svg" viewBox="0 0 165 59"><defs><style>.cls-1{fill:#cad5e6;}</style></defs><g id="nav"><path class="cls-1" d="m13.45,14.47s-.09.03-.14.03-.09-.02-.12-.06c-.08-.12-.18-.28-.33-.5-.14-.21-.29-.43-.42-.64s-.25-.38-.32-.5c-.03-.05-.04-.1-.03-.14.02-.05.07-.08.14-.08.05-.01.12-.02.2-.03.08-.01.17-.03.28-.05.25-.07.54-.16.87-.26.34-.1.65-.21.95-.31v-4.93h-.29c-.17,0-.36,0-.56,0-.2,0-.34,0-.42,0-.42.01-.75.04-1.01.08l-.16-.69c.32.06.71.11,1.15.13h1.04c.06,0,.12-.03.18-.08.05-.07.13-.17.22-.28.09-.11.17-.21.23-.28.06-.1.17-.11.31-.03.09.04.21.12.36.22.15.11.31.21.47.32.16.11.28.19.35.26.07.05.11.12.1.21,0,.09-.06.15-.17.21-.05.03-.1.06-.15.09-.05.03-.1.06-.15.09-.05.03-.09.07-.12.12-.03.05-.04.13-.04.25v3.78c0,.52.29.92.88,1.19.59.27,1.5.41,2.72.41,1.46,0,2.84-.04,4.12-.12,1.28-.08,2.35-.19,3.2-.33-.2.2-.38.47-.54.81-.15.34-.25.64-.28.92h-6.43c-.8,0-1.48-.11-2.04-.33-.56-.22-.99-.5-1.31-.86-.32-.35-.54-.71-.66-1.09-.15.15-.35.34-.59.58-.25.24-.49.47-.73.7s-.44.41-.58.54c-.09.07-.14.14-.15.19-.02.05,0,.13.04.22.02.12-.01.2-.1.24Zm2-10.76c-.16.04-.31.03-.44-.02-.13-.06-.23-.18-.28-.38-.18-.57-.41-1.07-.67-1.51-.27-.44-.64-.81-1.11-1.11-.04-.16.01-.26.16-.29.4.09.81.21,1.23.38.43.17.8.38,1.13.65.33.27.53.61.6,1.02.06.33.03.61-.1.84-.13.23-.31.37-.52.42Zm5.58,8.72c-.25,0-.37-.1-.37-.29,0-.04,0-.17,0-.38,0-.21.01-.47.02-.78,0-.31.02-.64.02-.98,0-.35,0-.67,0-.98h-1.94v2.83c0,.12-.12.22-.34.32-.23.1-.47.14-.73.14-.23,0-.35-.11-.35-.32,0-.1,0-.39.03-.9.02-.5.04-1.18.06-2.02.02-.85.02-1.83.02-2.94,0-.57,0-1.04-.02-1.42-.02-.38-.06-.65-.12-.81v-.02c-.02-.06-.02-.11.02-.14.04-.04.1-.05.18-.02.1.03.23.09.4.17s.35.16.53.25c.18.09.34.16.46.22h2.24s-.06-.05-.08-.08l-.06-.1c-.23-.48-.53-.9-.88-1.25-.35-.35-.81-.67-1.38-.94-.05-.15-.01-.25.13-.3.58.07,1.11.19,1.61.34.5.15.89.36,1.18.62.14-.13.3-.28.47-.46.18-.18.35-.35.51-.52.17-.17.3-.31.39-.42h-4.63c-.54.01-.96.04-1.25.08l-.16-.69c.37.06.84.11,1.41.13h4.76c.11,0,.19-.03.26-.1.05-.05.14-.13.25-.23.11-.1.2-.18.27-.23.1-.1.21-.1.34-.02.12.07.27.18.45.31.18.13.36.27.54.41.18.14.31.26.41.35.11.11.12.22.05.34-.07.11-.17.15-.29.14-.27-.05-.54-.04-.82.05-.25.06-.53.16-.85.3-.32.13-.64.27-.97.42-.33.15-.61.29-.86.43.06.1.11.2.14.32.1.22.11.43.06.63-.06.2-.16.34-.31.44,0,.01,0,.02-.02.02h2.02c.1,0,.17-.03.22-.1s.11-.14.18-.22c.06-.08.12-.16.18-.23.05-.06.1-.1.15-.11.05-.01.12.01.2.06.15.07.35.19.59.34.25.15.44.29.58.39.09.06.13.14.12.23,0,.09-.06.16-.15.2-.04.01-.09.03-.14.06-.05.03-.1.05-.14.07-.12.06-.18.19-.18.37v1.54c0,.58,0,1.12.02,1.62.02.5.03.92.04,1.26.01.34.02.56.02.66,0,.46-.12.85-.36,1.16-.24.31-.7.55-1.37.71-.13-.48-.28-.82-.46-1.01-.18-.19-.49-.32-.93-.38-.1-.14-.08-.25.05-.32.12.01.3.02.55.02h.7c.28,0,.42-.12.42-.37v-1.31h-2.07c0,.38,0,.79.02,1.22s.02.81.03,1.14c.01.33.02.53.02.62,0,.12-.11.22-.34.31-.22.09-.47.14-.74.14Zm-2.24-5.99h1.94v-1.6h-1.96l.02,1.6Zm0,2.08h1.94v-1.6h-1.94v1.6Zm3.25-2.08h2.07v-1.6h-2.07v1.6Zm0,2.08h2.07v-1.6h-2.07v1.6Z"/><path class="cls-1" d="m29.67,6.1c-.32.01-.54-.07-.67-.26-.12-.18-.16-.39-.11-.62.05-.23.17-.42.36-.54.4-.26.72-.57.97-.93.25-.36.4-.83.46-1.39.12-.13.23-.14.34-.03.04.14.08.28.1.42.03.14.05.28.07.42h2.08c-.16-.05-.27-.17-.34-.35-.12-.46-.29-.89-.51-1.28-.22-.39-.51-.7-.85-.93-.05-.15,0-.25.14-.29.6.09,1.12.27,1.58.54.45.28.73.66.84,1.14.06.28.04.53-.06.74-.11.22-.26.35-.46.41-.03,0-.05,0-.06.02h1.84v-1.97c0-.25-.01-.44-.04-.59-.03-.15-.06-.26-.09-.34-.04-.06-.05-.13-.02-.19.03-.04.09-.06.16-.06.14.01.33.03.58.07.25.04.49.08.74.12.25.04.43.09.56.13.13.03.18.11.16.24-.01.13-.08.19-.21.19-.12.01-.22.04-.3.09s-.12.14-.12.26v2.05h.91c.2-.33.38-.68.53-1.04.15-.36.27-.7.36-1.02.09-.31.14-.55.15-.71.02-.09.05-.13.08-.14.04-.03.1-.03.16,0,.13.04.3.11.53.2.22.09.45.19.67.29.22.1.4.18.53.25.1.04.12.13.08.26-.04.12-.11.17-.21.14-.14-.02-.24-.02-.31,0-.07.03-.15.09-.23.18-.28.29-.57.57-.89.85-.31.28-.61.52-.89.74h2.45c.09,0,.16-.04.22-.11.05-.05.13-.14.23-.26.1-.12.18-.21.25-.27.1-.11.21-.12.34-.05.13.07.29.19.47.34.19.15.38.31.57.47.19.16.35.3.46.42.1.1.11.22.03.38-.05.13-.16.18-.32.16-.16-.02-.3-.03-.41-.02-.11,0-.24.03-.39.09-.26.05-.55.15-.87.3-.32.15-.6.31-.83.5-.08,0-.14-.02-.18-.06-.05-.04-.07-.1-.06-.16.05-.12.14-.31.27-.58.13-.27.23-.49.3-.66h-9.61c.03.68-.09,1.26-.35,1.73-.27.47-.67.71-1.2.74Zm6.01,8.45c-.25,0-.37-.11-.37-.34,0-.05,0-.21.02-.48.01-.27.02-.6.02-.99,0-.39.01-.82.02-1.26.01-.45.02-.87.02-1.26v-.66h-2.84v4.13c0,.14-.13.26-.4.35s-.54.14-.83.14c-.24,0-.35-.11-.35-.32,0-.06.01-.28.03-.66.02-.37.04-.82.06-1.34.02-.52.02-1.05.02-1.57s-.01-.93-.03-1.18c-.02-.25-.06-.44-.11-.57-.04-.06-.04-.11.02-.14.04-.04.1-.05.18-.03.11.03.26.09.46.18.2.09.4.18.62.27.21.1.38.18.51.26h2.68v-1.49h-1.47v.32c0,.13-.13.23-.38.32-.25.09-.5.13-.75.13s-.37-.11-.37-.34c0-.11.01-.37.04-.8.03-.43.04-.95.04-1.57,0-.34,0-.61-.02-.8-.02-.19-.05-.35-.09-.46-.03-.06-.03-.12.02-.16.05-.04.11-.05.18-.02.12.04.27.1.46.18.19.08.38.17.58.26.2.09.36.17.47.23h3.94c.1,0,.17-.03.22-.1.05-.06.12-.15.21-.26.09-.11.15-.19.21-.26.07-.09.18-.1.32-.03.11.04.24.11.39.21.15.1.31.19.47.3.16.1.28.19.37.26.1.06.14.14.14.24,0,.1-.07.17-.18.21-.04.02-.08.04-.12.06-.04.02-.08.04-.12.06-.13.07-.19.21-.19.42,0,.16,0,.36.02.61.02.25.03.47.05.68.02.21.02.35.02.42,0,.15-.13.27-.4.36-.27.09-.53.14-.78.14-.24,0-.35-.11-.35-.32v-.3h-1.49v1.49h2.72c.12,0,.2-.04.24-.11.05-.07.13-.17.22-.28.1-.11.17-.2.22-.26.08-.1.18-.12.32-.06.11.05.25.13.42.23.17.1.34.21.5.32.17.11.3.21.39.28.09.06.13.14.13.24s-.06.17-.18.22c-.04.01-.09.03-.14.06-.05.03-.11.06-.16.08-.13.07-.19.21-.19.42,0,.3,0,.61.02.92.01.31.02.59.03.82,0,.23.02.38.02.44,0,.46-.14.83-.41,1.11-.27.28-.78.51-1.51.7-.08-.37-.17-.66-.27-.86s-.26-.35-.46-.44c-.2-.09-.49-.15-.85-.18-.04-.05-.06-.11-.05-.18,0-.06.04-.11.08-.14.11,0,.32,0,.63.02.31.01.61.02.89.02.3,0,.45-.13.45-.38v-2.48h-3.06v.66c0,.39,0,.81.02,1.23.01.43.02.82.02,1.19,0,.37.01.68.02.94s.02.42.02.48c0,.14-.13.26-.39.35-.26.1-.54.14-.83.14Zm-1.76-7.44h4.39v-1.74h-4.39v1.74Z"/><path class="cls-1" d="m47.42,14.53c-.26,0-.38-.11-.38-.34,0-.05,0-.28.02-.69.02-.41.03-.92.05-1.54.02-.62.03-1.29.05-1.98.02-.7.02-1.36.02-1.98v-1.63c-.58.86-1.17,1.63-1.78,2.3-.17,0-.26-.07-.26-.21.33-.51.65-1.09.97-1.74.31-.65.61-1.32.88-2.01.27-.69.51-1.37.71-2.03.2-.66.34-1.26.44-1.81,0-.01,0-.03.02-.05.02-.13.04-.23.05-.32.01-.09.01-.18,0-.27-.01-.05,0-.09.04-.12.04-.03.09-.03.15,0,.09.02.25.07.5.15.25.08.5.17.77.26.27.1.48.18.62.26.11.04.14.12.1.24-.03.11-.1.16-.21.16-.12-.02-.22-.01-.3.02-.08.04-.15.14-.2.3-.17.45-.36.89-.55,1.33-.2.44-.41.88-.63,1.31v4.95c0,.49,0,1.01,0,1.56,0,.55.01,1.09.02,1.59,0,.51,0,.93,0,1.26v.54c0,.14-.12.25-.35.34-.23.09-.49.14-.75.14Zm2.71-.21c-.11,0-.19-.03-.26-.08-.07-.05-.1-.14-.1-.26,0-.06,0-.3.02-.71s.03-.94.05-1.58c.02-.64.03-1.34.05-2.1.02-.76.02-1.53.02-2.3,0-.57,0-1.02-.02-1.35-.01-.34-.03-.59-.05-.78-.02-.18-.05-.32-.1-.42-.02-.05-.02-.11.02-.16.04-.02.1-.03.18-.02.1.03.23.09.42.17.18.08.37.16.57.25.2.09.36.16.49.22h1.17v-3.01h-1.43c-.54.01-.98.04-1.3.1l-.16-.7c.4.06.88.11,1.46.13h6.3c.14,0,.24-.04.3-.13.06-.09.17-.22.3-.41.14-.19.23-.32.29-.39.09-.12.2-.13.35-.05.11.06.25.17.42.3.17.14.33.28.49.42.16.14.27.25.35.34.09.09.11.17.09.26-.03.09-.08.14-.17.14h-3.51v3.01h1.06c.07,0,.13-.03.18-.08.04-.05.11-.14.21-.26.1-.12.17-.21.21-.27.07-.1.17-.11.29-.05.1.04.23.12.41.22.18.11.35.21.52.32.17.11.31.2.4.27.07.04.11.11.1.19-.01.09-.06.14-.14.18-.04.02-.09.05-.14.08-.05.03-.11.06-.16.08-.08.04-.13.09-.15.15-.03.06-.04.16-.04.31v1.01c0,.44,0,.93.02,1.46.01.54.02,1.08.03,1.62s.02,1.05.03,1.52c.01.47.02.86.03,1.16,0,.3.02.48.02.52,0,.13-.13.23-.4.32-.27.09-.53.13-.78.13-.24,0-.35-.1-.35-.3v-.58h-6.38v.62c0,.13-.13.24-.38.33-.25.09-.52.14-.79.14Zm1.17-1.57h1.28v-7.06h-1.28v7.06Zm2.56-7.54h1.22v-3.01h-1.22v3.01Zm0,7.54h1.22v-7.06h-1.22v7.06Zm2.5,0h1.31v-7.04l-1.31-.02v7.06Z"/><path class="cls-1" d="m64.81,14.53c-.26,0-.39-.12-.39-.35,0-.04,0-.21.02-.5.01-.29.02-.65.04-1.1.02-.44.03-.92.05-1.42.02-.51.03-1.01.04-1.5.01-.49.02-.93.02-1.31v-.66c-.35.7-.74,1.36-1.15,1.96-.42.6-.83,1.13-1.23,1.58-.17.02-.26-.05-.26-.21.32-.53.65-1.18.99-1.93.34-.75.64-1.56.92-2.42.28-.86.48-1.73.61-2.61h-.96c-.52.01-.92.04-1.19.08l-.16-.7c.34.07.79.12,1.35.14h1.09V1.41c0-.34-.01-.6-.03-.78s-.05-.31-.1-.39c-.04-.05-.04-.1,0-.14.02-.03.07-.05.14-.05.13.01.3.03.53.07.22.04.45.08.69.13.23.05.42.09.56.14.12.03.17.11.14.22-.01.12-.08.19-.19.21-.13.01-.23.04-.32.08-.09.04-.13.15-.13.34v2.35h.4c.12,0,.21-.04.27-.11.05-.07.14-.18.25-.33.11-.14.2-.25.25-.33.1-.11.21-.11.34-.02.14.11.31.25.51.43.2.18.36.33.46.45.07.07.1.16.08.25-.02.09-.08.14-.16.14h-2.4v1.6c.31.04.63.12.95.24.33.12.61.27.87.46.25.19.41.43.49.72.09.3.06.56-.07.78-.13.22-.29.35-.47.39-.3.06-.52-.09-.66-.46-.14-.34-.29-.66-.46-.94-.17-.29-.38-.54-.65-.75v2.29c0,.63,0,1.27,0,1.91,0,.65,0,1.24.02,1.79,0,.55.01,1,.02,1.35,0,.35,0,.55,0,.59,0,.14-.12.26-.35.35-.23.1-.49.14-.77.14Zm3.81-.06c-.23,0-.35-.11-.35-.34,0-.06,0-.26.02-.58.02-.33.03-.73.05-1.22.02-.49.02-1,.02-1.52,0-.49-.01-.87-.03-1.14-.02-.27-.06-.46-.11-.59-.02-.04-.02-.08,0-.11-.29.11-.58.21-.86.3-.29.09-.57.17-.85.25-.14-.09-.17-.19-.1-.32.47-.18.98-.42,1.54-.73.56-.3,1.12-.66,1.68-1.08s1.1-.89,1.6-1.42c-.25-.35-.46-.73-.64-1.12-.18-.39-.33-.82-.45-1.26-.35.49-.74.96-1.15,1.41-.41.45-.84.85-1.29,1.2-.17,0-.25-.07-.22-.22.43-.48.8-1.01,1.12-1.59.32-.58.59-1.15.82-1.71.22-.56.4-1.06.51-1.49.12-.43.18-.74.19-.94,0-.07.02-.12.05-.14.03-.02.08-.02.14,0,.1.02.26.07.5.16.24.09.48.17.72.26.24.09.41.16.52.2.05.01.09.04.1.09s0,.09-.02.14c-.03.12-.1.17-.21.16-.1-.02-.18-.02-.26,0-.07.02-.15.11-.22.26-.16.36-.35.72-.56,1.07h2.19c.1,0,.17-.03.22-.1.02-.02.09-.1.2-.22.11-.13.17-.21.18-.24.09-.1.19-.11.32-.03.11.05.25.14.43.27.18.13.37.26.55.38s.33.23.42.32c.09.07.11.18.08.3-.05.12-.14.18-.26.18-.19.01-.33.03-.4.06-.07.03-.16.13-.26.31-.27.47-.56.91-.86,1.32-.31.41-.64.79-.98,1.13.67.43,1.39.75,2.16.98s1.49.36,2.16.42c-.33.17-.64.42-.92.74-.28.33-.48.62-.58.89-.66-.23-1.31-.54-1.93-.93-.62-.38-1.19-.84-1.69-1.36-.56.46-1.13.86-1.73,1.19-.6.34-1.21.63-1.83.87h.02c.1.02.23.07.41.14.18.07.37.14.57.22.2.08.37.15.51.22h3.25c.1,0,.17-.03.21-.08l.38-.45c.06-.11.17-.13.3-.06.1.04.22.11.38.21.16.1.32.19.48.28.16.09.28.17.37.23.09.06.13.13.12.21,0,.07-.05.14-.14.19-.04.02-.08.05-.12.07-.04.03-.07.05-.1.07-.11.05-.16.17-.16.34,0,.27,0,.58.02.94.02.36.03.7.05,1.04.02.34.03.63.05.88s.02.41.02.47c0,.14-.13.26-.39.36-.26.1-.55.15-.86.15-.24,0-.35-.11-.35-.34v-.5h-3.64v.5c0,.13-.12.24-.37.34-.25.1-.51.14-.8.14Zm1.17-1.46h3.64v-3.04h-3.64v3.04Zm2-7.7c.28-.35.54-.73.78-1.14.24-.41.45-.83.62-1.26l-2.6-.02c-.05.1-.11.18-.16.26.15.44.34.84.57,1.19.23.36.49.68.79.97Z"/><path class="cls-1" d="m8.31,58.47c-.23,0-.36-.13-.38-.4-.02-.26.04-.52.19-.77.14-.25.31-.37.52-.37,1.41-.15,2.51-.38,3.3-.7.79-.32,1.29-.98,1.5-1.98l.99-4.67H2.76c-.53,0-.74-.23-.64-.7l.15-.7c.03-.15.08-.26.16-.35.08-.09.14-.19.2-.31,1.32-1.5,2.52-2.85,3.6-4.07,1.08-1.22,2.27-2.56,3.57-4.03,1.3-1.47,2.59-2.93,3.89-4.4,1.3-1.47,2.49-2.82,3.57-4.05,1.08-1.23,1.96-2.23,2.62-2.99.66-.76,1.01-1.16,1.05-1.19.2-.26.55-.4,1.05-.4h.62c.38,0,.53.22.43.66l-4.36,20.48h5.33c.32,0,.49.17.51.51.02.34-.07.68-.26,1.03-.19.35-.45.53-.77.53h-5.25l-.99,4.67c-.21,1-.04,1.66.53,1.98.56.32,1.51.56,2.83.7.21,0,.31.13.32.37,0,.25-.05.51-.16.77-.12.26-.28.4-.48.4h-11.95Zm-2.16-10.96h8.73l3.1-14.57c.05-.23,0-.26-.16-.09l-12.06,13.78c-.19.21-.26.4-.19.59.06.19.25.29.58.29Z"/><path class="cls-1" d="m36.06,59c-1.91,0-3.6-.37-5.06-1.1s-2.53-1.76-3.22-3.08c-.69-1.32-.85-2.85-.48-4.58.27-1.26.82-2.47,1.65-3.61.83-1.14,1.9-2.14,3.22-2.99,1.31-.85,2.8-1.45,4.46-1.81-1.07-.35-2.02-.9-2.85-1.63-.83-.73-1.44-1.61-1.84-2.64-.4-1.03-.46-2.17-.19-3.43.36-1.7,1.13-3.16,2.32-4.36,1.18-1.2,2.58-2.14,4.19-2.8,1.61-.66,3.22-.99,4.84-.99s3.09.33,4.42.99c1.33.66,2.33,1.59,3.02,2.8.68,1.2.85,2.66.48,4.36-.26,1.23-.8,2.36-1.6,3.39-.81,1.03-1.78,1.91-2.92,2.64-1.14.73-2.34,1.29-3.6,1.67,1.54.35,2.77.96,3.69,1.83.92.87,1.54,1.87,1.87,3.02s.36,2.33.1,3.57c-.37,1.73-1.18,3.26-2.43,4.58-1.25,1.32-2.76,2.35-4.54,3.08s-3.61,1.1-5.52,1.1Zm.41-1.94c2.12,0,3.83-.69,5.16-2.07,1.32-1.38,2.19-3.07,2.62-5.06.49-2.29.29-4.02-.59-5.2-.88-1.17-2.28-1.76-4.19-1.76s-3.52.59-4.92,1.76c-1.4,1.17-2.34,2.91-2.82,5.2-.42,2-.25,3.68.51,5.06.76,1.38,2.17,2.07,4.23,2.07Zm3.47-16.29c1.41,0,2.58-.32,3.51-.97.93-.65,1.66-1.48,2.19-2.51.53-1.03.91-2.1,1.15-3.21.33-1.56.33-2.78.01-3.68-.32-.9-.86-1.53-1.6-1.89-.74-.37-1.59-.55-2.53-.55-.88,0-1.77.18-2.67.55-.9.37-1.71,1-2.43,1.89-.72.9-1.24,2.12-1.58,3.68-.24,1.14-.32,2.22-.23,3.24.09,1.01.46,1.84,1.1,2.49.64.65,1.67.97,3.08.97Z"/><path class="cls-1" d="m50.73,58.41c-.33.18-.56.15-.69-.09-.06-.12-.07-.26-.04-.4.03-.14.13-.27.29-.37.33-.21.78-.55,1.33-1.05.56-.49,1-1.04,1.33-1.63.17-.31.25-.59.26-.83s-.19-.38-.58-.4c-.57-.02-1.02-.2-1.34-.52-.32-.33-.42-.78-.3-1.36.1-.47.38-.9.83-1.29.45-.39,1.01-.59,1.67-.59s1.14.26,1.51.79c.37.52.47,1.22.28,2.08-.18.82-.53,1.61-1.08,2.37-.54.76-1.13,1.43-1.77,2-.64.58-1.21,1.01-1.73,1.29Z"/><path class="cls-1" d="m68.36,59c-1.94,0-3.6-.63-4.97-1.89-1.38-1.26-2.31-3.12-2.8-5.57-.49-2.45-.36-5.47.4-9.05.76-3.58,1.91-6.6,3.45-9.05,1.54-2.45,3.26-4.31,5.18-5.57,1.91-1.26,3.84-1.89,5.78-1.89s3.6.63,4.98,1.89c1.38,1.26,2.31,3.12,2.8,5.57.49,2.45.36,5.47-.4,9.05-.76,3.58-1.91,6.6-3.45,9.05-1.54,2.45-3.26,4.31-5.18,5.57-1.91,1.26-3.84,1.89-5.78,1.89Zm.41-1.94c1.7,0,3.15-.62,4.35-1.87,1.19-1.25,2.21-2.96,3.06-5.15.85-2.19,1.57-4.7,2.18-7.55.61-2.85.95-5.36,1.03-7.55.08-2.19-.21-3.9-.87-5.15-.66-1.25-1.84-1.87-3.55-1.87s-3.12.62-4.32,1.87c-1.21,1.25-2.23,2.97-3.08,5.17-.85,2.2-1.58,4.71-2.18,7.53-.6,2.82-.94,5.33-1.03,7.53-.09,2.2.21,3.93.88,5.17.67,1.25,1.85,1.87,3.52,1.87Z"/><path class="cls-1" d="m94.15,59c-1.94,0-3.6-.63-4.97-1.89-1.38-1.26-2.31-3.12-2.8-5.57-.49-2.45-.36-5.47.4-9.05.76-3.58,1.91-6.6,3.45-9.05,1.54-2.45,3.26-4.31,5.18-5.57,1.91-1.26,3.84-1.89,5.78-1.89s3.6.63,4.98,1.89c1.38,1.26,2.31,3.12,2.8,5.57.49,2.45.36,5.47-.4,9.05-.76,3.58-1.91,6.6-3.45,9.05-1.54,2.45-3.26,4.31-5.18,5.57-1.91,1.26-3.84,1.89-5.78,1.89Zm.41-1.94c1.7,0,3.15-.62,4.35-1.87,1.19-1.25,2.21-2.96,3.06-5.15.85-2.19,1.57-4.7,2.18-7.55.61-2.85.95-5.36,1.03-7.55.08-2.19-.21-3.9-.87-5.15-.66-1.25-1.84-1.87-3.55-1.87s-3.12.62-4.32,1.87c-1.21,1.25-2.23,2.97-3.08,5.17-.85,2.2-1.58,4.71-2.18,7.53-.6,2.82-.94,5.33-1.03,7.53-.09,2.2.21,3.93.88,5.17.67,1.25,1.85,1.87,3.52,1.87Z"/><path class="cls-1" d="m119.94,59c-1.94,0-3.6-.63-4.97-1.89-1.38-1.26-2.31-3.12-2.8-5.57-.49-2.45-.36-5.47.4-9.05.76-3.58,1.91-6.6,3.45-9.05,1.54-2.45,3.26-4.31,5.18-5.57,1.91-1.26,3.84-1.89,5.78-1.89s3.6.63,4.98,1.89c1.38,1.26,2.31,3.12,2.8,5.57.49,2.45.36,5.47-.4,9.05-.76,3.58-1.91,6.6-3.45,9.05-1.54,2.45-3.26,4.31-5.18,5.57-1.91,1.26-3.84,1.89-5.78,1.89Zm.41-1.94c1.7,0,3.15-.62,4.35-1.87,1.19-1.25,2.21-2.96,3.06-5.15.85-2.19,1.57-4.7,2.18-7.55.61-2.85.95-5.36,1.03-7.55.08-2.19-.21-3.9-.87-5.15-.66-1.25-1.84-1.87-3.55-1.87s-3.12.62-4.32,1.87c-1.21,1.25-2.23,2.97-3.08,5.17-.85,2.2-1.58,4.71-2.18,7.53-.6,2.82-.94,5.33-1.03,7.53-.09,2.2.21,3.93.88,5.17.67,1.25,1.85,1.87,3.52,1.87Z"/><path class="cls-1" d="m142.46,57.37c-.43,0-.65-.19-.65-.58,0-.08,0-.44.03-1.08.02-.63.04-1.46.06-2.49.02-1.03.05-2.17.07-3.43.03-1.26.05-2.57.06-3.94.02-1.37.03-2.7.03-4s-.01-2.35-.04-3.1c-.03-.75-.05-1.32-.09-1.71-.03-.39-.08-.69-.15-.89-.02-.13,0-.23.05-.28.07-.08.17-.1.3-.05.17.07.4.18.7.34.3.16.62.32.95.49.33.17.62.31.85.43h13.32c.17,0,.3-.06.4-.17.07-.1.18-.25.34-.46.16-.21.27-.36.34-.46.13-.17.32-.2.55-.1.17.08.38.21.64.38.26.17.53.34.8.53.28.18.5.34.66.48.18.12.26.25.24.41-.03.16-.13.29-.31.39-.2.07-.38.14-.53.23-.15.08-.25.17-.3.27-.05.1-.08.26-.08.48v6.35c0,.82,0,1.69.03,2.61.02.93.03,1.8.04,2.64,0,.83.02,1.55.04,2.14.02.59.03.96.03,1.11,0,.93-.25,1.68-.74,2.23-.49.55-1.4.97-2.72,1.25-.13-.68-.3-1.21-.5-1.59s-.49-.65-.88-.83c-.38-.18-.93-.3-1.63-.39-.17-.2-.14-.38.08-.53.12,0,.39,0,.81.02.43.02.88.03,1.36.05.48.02.86.03,1.13.03.45,0,.68-.23.68-.68v-6.6h-14.12v9.65c0,.23-.18.43-.53.6-.35.17-.79.25-1.33.25Zm1.85-11.25h5.93v-8.28h-5.93v8.28Zm8.29,0h5.83v-8.28h-5.83v8.28Z"/><path class="cls-1" d="m142.59,32.51c-.33-.26-.64-.57-.93-.94-.29-.37-.52-.78-.7-1.24s-.27-.97-.27-1.51.09-1.05.27-1.51.41-.88.7-1.24c.29-.37.6-.68.93-.94.04,0,.07,0,.1.03.03.03.04.06.04.1-.27.28-.51.6-.73.96-.22.36-.39.76-.52,1.19s-.19.9-.19,1.41.06.98.19,1.41.3.83.52,1.19c.22.36.46.68.73.96,0,.04-.01.07-.04.1-.03.03-.06.04-.1.04Z"/><path class="cls-1" d="m145.03,32.44c-.12,0-.18-.05-.18-.16,0-.02,0-.12,0-.29s.01-.38.02-.64.02-.53.02-.81c0-.28,0-.55,0-.8v-.36c-.19.4-.4.76-.62,1.07-.22.31-.44.58-.64.8-.03,0-.06,0-.09-.02-.03-.02-.04-.05-.04-.08.17-.27.33-.58.5-.95.17-.37.32-.76.46-1.19.14-.43.26-.87.34-1.33h-.51c-.22,0-.41.02-.57.03l-.07-.33c.19.03.4.05.64.06h.6v-1.12c-.22.04-.44.08-.65.11-.21.03-.4.06-.57.07-.03-.02-.04-.05-.05-.08s0-.06.02-.08c.24-.06.47-.13.71-.22.24-.09.46-.18.67-.27.21-.1.39-.19.54-.28.15-.09.26-.18.32-.26.02-.03.03-.05.06-.06.02,0,.04,0,.08.02.06.04.13.09.22.16.09.07.18.14.27.21s.16.13.22.18c.04.03.04.07.02.12-.03.04-.07.06-.12.04-.06-.02-.11-.03-.16-.03-.05,0-.11,0-.18.02-.24.07-.49.14-.77.21v1.25h.25s.09-.02.11-.05c.03-.04.07-.09.12-.16.06-.07.1-.12.12-.16.05-.06.1-.06.17-.02.06.04.14.11.24.2.1.09.18.16.24.22.04.05.06.09.04.14-.02.05-.04.07-.09.07h-1.21v.66c.28.07.52.17.71.31s.33.31.4.52c.05.13.05.26,0,.37-.05.11-.12.19-.21.22-.07.02-.14.02-.2,0-.06-.02-.11-.08-.14-.17-.05-.2-.12-.39-.21-.57s-.21-.33-.36-.46v1.17c0,.15,0,.33,0,.54,0,.2,0,.41.01.62,0,.21,0,.41.02.6,0,.19,0,.34.01.47s0,.2,0,.23c0,.06-.06.12-.17.17-.11.05-.24.08-.38.08Zm.83-.06c-.07-.04-.09-.09-.06-.16.57-.21,1.01-.54,1.33-.98.32-.45.52-1.08.6-1.88h-.12v.14c0,.06-.06.12-.17.16-.12.05-.24.07-.36.07-.11,0-.17-.05-.17-.15,0-.03,0-.14.01-.32,0-.18.02-.4.02-.66,0-.26.01-.52.01-.77,0-.28,0-.48-.02-.6-.01-.11-.03-.2-.05-.27-.02-.03-.01-.05.02-.08.02-.02.05-.02.08,0,.09.04.21.09.36.16.15.07.27.13.36.18h1.84s.08-.02.1-.06c.03-.03.06-.07.1-.12.04-.06.08-.1.1-.13.04-.05.09-.06.15-.02.05.03.12.07.2.12.08.05.16.1.24.15s.14.09.18.12c.04.03.06.07.06.12s-.03.08-.09.11c-.03.01-.05.02-.08.03-.02.01-.05.02-.08.03-.03.02-.05.05-.07.08-.01.03-.02.08-.02.14,0,.12,0,.27,0,.45,0,.18.01.36.02.53s.02.33.02.45c0,.13,0,.2,0,.22,0,.06-.06.12-.18.17-.12.05-.25.07-.39.07-.12,0-.18-.05-.18-.16v-.14h-.24v2.04c0,.06.01.1.04.13.03.03.09.05.17.06.06,0,.14,0,.24-.01.1,0,.18-.02.24-.03.12-.02.2-.09.25-.2.03-.07.06-.18.1-.33.04-.14.08-.29.12-.42.04-.14.06-.23.07-.29.07-.04.13-.03.17.03,0,.04-.01.1-.02.19,0,.09-.01.19-.02.3,0,.11-.01.2-.02.29,0,.09,0,.15,0,.18,0,.09.03.15.1.17.18.07.27.18.27.32,0,.1-.04.18-.11.24-.07.06-.19.11-.36.15-.13.02-.28.04-.46.05-.18.01-.35.02-.53.02s-.32,0-.45,0c-.17-.01-.28-.04-.36-.1-.07-.06-.11-.15-.11-.28v-2.5h-.36c-.06.63-.21,1.15-.44,1.55s-.52.71-.88.94c-.36.23-.78.4-1.25.53Zm2.2-5.39c-.08.02-.15.02-.22-.01s-.11-.09-.14-.18c-.06-.28-.14-.52-.24-.74-.1-.21-.25-.4-.43-.55,0-.03,0-.06.02-.09.02-.03.04-.04.07-.05.19.04.37.11.54.2.17.09.32.21.45.34.13.14.21.3.24.49.03.15.02.28-.04.38-.06.11-.15.17-.25.2Zm-.44,2.13h2.07v-1.67h-2.07v1.67Zm1.39-1.94s-.06,0-.09-.02-.04-.04-.05-.07c.11-.19.21-.41.3-.64.09-.23.17-.46.22-.67.06-.21.09-.37.1-.48,0-.04,0-.06.02-.08.02-.02.05-.02.08,0,.06.02.16.06.28.1s.25.1.37.15c.12.05.22.09.28.12.05.02.06.06.04.13-.01.06-.04.08-.1.07-.06-.01-.11,0-.14.01-.04.02-.08.06-.12.12-.11.15-.24.3-.38.46-.14.16-.28.31-.42.45-.14.14-.27.26-.39.36Z"/><path class="cls-1" d="m152.61,32.4c-.05.03-.1.02-.13-.02-.04-.06-.09-.14-.16-.25s-.14-.22-.21-.33c-.07-.11-.12-.2-.16-.26-.02-.03-.02-.05,0-.07.02-.02.05-.03.09-.03.03,0,.06,0,.09-.01.03,0,.07,0,.1-.02.1-.03.24-.08.4-.13s.33-.11.49-.16v-2.31h-.14c-.09,0-.18,0-.28,0-.1,0-.17,0-.21,0-.21,0-.37.02-.5.04l-.08-.34c.15.03.34.05.57.06h.49s.07-.01.09-.04c.03-.04.06-.08.11-.14.04-.05.08-.1.11-.14.03-.05.08-.05.15,0,.05.02.12.06.21.11.09.05.18.1.28.15.09.05.16.09.2.12.04.03.06.06.06.11s-.03.08-.08.11c-.03.01-.05.02-.08.04s-.05.03-.08.04c-.06.04-.09.1-.09.18v1.7s0,.09.02.14c.01.04.02.09.04.13h0c.33-.23.64-.53.93-.91.29-.38.54-.82.75-1.3.21-.49.34-.99.41-1.51,0-.06.04-.07.1-.04.03.01.07.04.13.08s.13.08.2.12c-.03-.22-.05-.46-.06-.71-.01-.25-.01-.51,0-.78h-1.15c-.23,0-.41.02-.55.03l-.07-.33c.17.02.38.04.62.05h.84s.09-.02.11-.05c.04-.05.08-.11.13-.18.05-.07.09-.12.13-.17.04-.05.09-.06.15-.02.06.03.14.08.24.14.1.06.2.13.3.2s.17.13.21.17c.04.03.05.07.05.11,0,.04-.04.07-.09.09-.07.03-.16.06-.28.1-.12.04-.2.07-.25.08-.04.01-.06.03-.07.05,0,.02-.01.06-.01.1,0,.64.07,1.18.22,1.63.15.45.35.82.61,1.11s.54.53.86.72c.31.18.62.33.93.43-.2.07-.39.19-.57.34-.18.15-.32.3-.41.45-.4-.27-.75-.63-1.05-1.08-.31-.45-.54-1.01-.69-1.7-.16.48-.38.9-.65,1.27-.27.37-.57.69-.91.96s-.67.5-1.01.69h0c.11.13.3.23.56.3.26.07.61.1,1.05.1s.85,0,1.31-.02c.45-.02.89-.04,1.31-.07s.77-.07,1.07-.1c-.06.06-.12.15-.17.26-.05.11-.09.23-.12.34-.03.12-.05.22-.06.3h-3.29c-.4,0-.73-.06-1-.18-.27-.12-.48-.27-.64-.44-.16-.18-.26-.36-.31-.56-.08.08-.18.18-.31.31-.13.13-.25.25-.37.36-.12.12-.21.21-.28.26-.04.04-.07.07-.08.1-.01.03-.01.07,0,.12.01.06,0,.1-.05.12Zm1.01-5.25c-.09.03-.17.02-.24-.01-.08-.03-.14-.11-.18-.22-.09-.26-.2-.49-.33-.7s-.32-.38-.55-.51c-.02-.08,0-.13.08-.14.21.03.42.08.63.16.21.07.4.17.56.3.16.13.26.3.3.52.03.15.02.28-.04.39-.06.11-.14.18-.23.22Z"/><path class="cls-1" d="m160.3,32.51s-.07-.01-.1-.04c-.03-.03-.04-.06-.04-.1.27-.28.52-.6.73-.96.22-.36.39-.76.52-1.19s.19-.9.19-1.41-.06-.98-.19-1.41-.3-.83-.52-1.19c-.22-.36-.46-.68-.73-.96,0-.04.01-.08.04-.1.03-.03.06-.04.1-.03.33.26.64.57.93.94.29.37.52.78.7,1.24s.27.96.27,1.51-.09,1.05-.27,1.51-.41.88-.7,1.24c-.29.37-.6.68-.93.94Z"/><rect class="cls-1" y="42.09" width="165" height="1"/></g></svg>