<?xml version="1.0" encoding="UTF-8"?><svg id="_レイヤー_2" xmlns="http://www.w3.org/2000/svg" viewBox="0 0 234.63 60"><defs><style>.cls-1{fill:#fff;}</style></defs><g id="nav"><path class="cls-1" d="m30,.44c16.33,0,29.56,13.23,29.56,29.56s-13.23,29.56-29.56,29.56S.44,46.33.44,30,13.67.44,30,.44m0-.44C13.46,0,0,13.46,0,30s13.46,30,30,30,30-13.46,30-30S46.54,0,30,0h0Z"/><path class="cls-1" d="m30,58.09c-15.49,0-28.09-12.6-28.09-28.09S14.51,1.91,30,1.91s28.09,12.6,28.09,28.09-12.6,28.09-28.09,28.09Zm0-55.3C15,2.79,2.79,15,2.79,30s12.21,27.21,27.21,27.21,27.21-12.21,27.21-27.21S45,2.79,30,2.79Z"/><path class="cls-1" d="m42.21,20.73v1.28h3.11c.34,0,.58.33.47.65l-6.29,18.34-7.27-12.78c.11-.18.49-.97.6-1.15.43-.79.82-1.59,1.17-2.38.34-.79.52-1.6.52-2.42,0-.5-.07-.98-.22-1.45-.14-.47-.4-.94-.76-1.41-.33-.47-.73-.82-1.22-1.06-.49-.23-.99-.37-1.49-.4-1.38,0-2.39.41-3.04,1.23-.65.82-1.05,1.72-1.19,2.69-.04.18-.06.36-.08.55-.02.19-.03.37-.03.55,0,1.38.27,2.72.81,4.03.54,1.31,1.16,2.59,1.85,3.85l-4.35,8.35h0s-.7,1.34-.7,1.34l-6.96-17.87c-.13-.32.11-.67.46-.67h2.75v-1.28h-11.72v1.28h3.09c.59,0,1.12.37,1.32.92l9.1,24.59,7.92-15.15,8.68,14.93,8.62-24.49c.17-.48.62-.79,1.13-.79h2.9v-1.28h-9.17Zm-26.63,1.28l7.72,20.05-1.22,2.33-8.1-22.38h1.6Zm14.32-2.29c.18-.29.47-.46.87-.48.29,0,.55.07.79.22.23.15.46.35.68.62.25.35.43.7.54,1.06.11.35.16.72.16,1.1,0,.21-.02.42-.05.64-.04.22-.07.43-.11.64-.14.5-.33,1-.54,1.5-.22.5-.45.97-.71,1.41-.04.06-.06.11-.08.15-.02.04-.05.08-.08.11-.04-.03-.14-.24-.3-.64-.16-.4-.35-.87-.57-1.43-.11-.26-.21-.54-.3-.81-.09-.28-.17-.57-.24-.86-.11-.38-.19-.75-.24-1.1-.05-.35-.08-.69-.08-1.01,0-.44.09-.81.27-1.1Zm-.06,9.91c-.47-.79-.93-1.62-1.28-2.51-1.63-4.2-.39-6.07-.39-6.11.14.46.55,2.41,1.23,4.09.44,1.09.72,1.73,1.38,3.03.65,1.27,1.43,2.46,2.12,3.68.69,1.22,1.39,2.44,2.12,3.68.69,1.23,1.38,2.46,2.09,3.68.7,1.2,1.38,2.41,1.87,3.34l-.73,2.08-8.4-14.95Z"/><path class="cls-1" d="m103.9,28.61v.34c-2.87,0-3.24.74-5.78,7.39l-5.28,14.03h-.4l-5.29-13.94-4.86,13.94h-.43l-7.56-19.04c-.86-2.1-1.98-2.38-3.24-2.38v-.34h8.09v.34c-2.91,0-2.38,1.89-2.25,2.19l6.14,16.07,3.9-11.28-1.65-4.61c-.86-2.1-1.98-2.38-3.2-2.38v-.34h8.06v.34c-2.94,0-2.35,1.89-2.25,2.19l5.78,16.17,4.03-11.04c1.42-4.42,2.58-7.33-1.55-7.33v-.34h7.73Z"/><path class="cls-1" d="m108.9,50.37h-4.92v-.34c1.25-.34,1.32-.49,1.32-2.07v-9.46c0-1.05-.26-1.48-1.65-1.67v-.31l3.9-.71v12.15c0,1.7.17,1.79,1.35,2.07v.34Zm-4.2-18.49c0-.74.6-1.33,1.39-1.33s1.42.59,1.42,1.33-.66,1.3-1.42,1.3-1.39-.59-1.39-1.3Z"/><path class="cls-1" d="m115.44,50.06c4.95,0,7.23-.87,7.66-4.39h.4l-.3,4.7h-10.74l8.52-13.97c-4.43,0-7.53.43-7.93,3.77h-.4l.17-4.08h10.83l-8.23,13.97Z"/><path class="cls-1" d="m149.89,44.22l.34,4.58c-2.49,1.47-4.17,1.85-7.77,1.85-6.87,0-11.68-3.8-11.68-10.8s4.81-10.8,11.68-10.8c3.47,0,5.65.3,7.77,1.82l-.34,4.58h-.37c-.47-5.38-4.91-6.07-7.07-6.07-3.4,0-8.25,1.02-8.25,10.47s4.95,10.47,8.25,10.47c2.05,0,6.87-.9,7.07-6.1h.37Z"/><path class="cls-1" d="m168.08,43.89v6.49h-15.62v-.33c1.45,0,1.58-1.05,1.58-3.08v-14.86c0-1.82-.4-2.48-1.85-2.48v-.3h6.66v.3c-1.45,0-2.15.51-2.15,2.66v17.77h1.21c5.42.03,9.53,0,9.83-6.16h.34Z"/><path class="cls-1" d="m177.99,29.33v.3c-1.45,0-2.09.36-2.09,2.21v15.55c0,2.03.67,2.66,2.09,2.66v.33h-6.93v-.33c1.45,0,2.12-.63,2.12-2.66v-15.55c0-1.85-.64-2.21-2.12-2.21v-.3h6.93Z"/><path class="cls-1" d="m204.83,29.33v.3c-4.75,0-4.65,2.9-4.65,7.06v13.7h-.71l-14.14-16.39v8.97c0,3.98,0,7.09,4.34,7.09v.33h-9.49v-.33c4.75,0,4.78-3.05,4.78-7.09v-9.36l-1.41-1.64c-2.15-2.39-3.13-2.27-4.01-2.33v-.3h5.22l15.05,17.59v-10.23c0-4.16,0-7.06-4.31-7.06v-.3h9.32Z"/><path class="cls-1" d="m213.77,29.33v.3c-1.45,0-2.09.36-2.09,2.21v15.55c0,2.03.67,2.66,2.09,2.66v.33h-6.93v-.33c1.45,0,2.12-.63,2.12-2.66v-15.55c0-1.85-.64-2.21-2.12-2.21v-.3h6.93Z"/><path class="cls-1" d="m234.29,44.22l.34,4.58c-2.49,1.47-4.17,1.85-7.77,1.85-6.87,0-11.68-3.8-11.68-10.8s4.81-10.8,11.68-10.8c3.47,0,5.65.3,7.77,1.82l-.34,4.58h-.37c-.47-5.38-4.91-6.07-7.07-6.07-3.4,0-8.25,1.02-8.25,10.47s4.95,10.47,8.25,10.47c2.05,0,6.87-.9,7.07-6.1h.37Z"/><path class="cls-1" d="m108.83,20c-2.89,0-4.27-2.02-4.27-4.59s1.38-4.72,4.27-4.72,4.27,2.17,4.27,4.72-1.38,4.59-4.27,4.59Zm0-9.14c-1.57,0-2.76,1.02-2.76,4.55s1.2,4.42,2.76,4.42,2.75-.88,2.75-4.42-1.2-4.55-2.75-4.55Z"/><path class="cls-1" d="m125.33,19.72v.17h-3.37v-.17c.55,0,.95-.3.95-1.34v-7.08l-3.18,8.7h-.16l-3.67-7.89v4.56c0,1.5.22,3.04,1.68,3.04v.17h-3.72v-.17c1.63,0,1.87-1.59,1.87-3.04v-4.85c-.5-.84-1.16-.82-1.47-.85v-.17h2.62l3.42,7.3,2.62-7.3h2.33v.17c-.57,0-1.01.26-1.01,1.13v6.26c0,1.04.54,1.34,1.11,1.34Z"/><path class="cls-1" d="m130.71,20c-2.89,0-4.27-2.02-4.27-4.59s1.38-4.72,4.27-4.72,4.27,2.17,4.27,4.72-1.38,4.59-4.27,4.59Zm0-9.14c-1.57,0-2.76,1.02-2.76,4.55s1.2,4.42,2.76,4.42,2.75-.88,2.75-4.42-1.2-4.55-2.75-4.55Z"/><path class="cls-1" d="m144.32,10.81v2.27h-.17c-.05-2.07-2.25-2.1-2.43-2.1h-.78v7.66c0,.85.41,1.08.96,1.08v.17h-3.21v-.17c.55,0,.95-.23.95-1.08v-7.66h-.78c-.41,0-2.37.03-2.42,2.1h-.17v-2.27h8.05Z"/><path class="cls-1" d="m152.33,17.2v2.68h-6.62v-.17c.55,0,.71-.46.71-1.34v-6.19c0-.8-.13-1.21-.71-1.21v-.17h6.44v2.32h-.17c-.16-2.13-2.43-2.15-3.5-2.15h-.71v4.24h.86c.36,0,1.75,0,1.81-1.3h.17v2.77h-.17c-.07-1.29-1.49-1.3-1.81-1.3h-.86v4.33h.61c1.17,0,3.5.06,3.77-2.51h.17Z"/><path class="cls-1" d="m157.31,20c-2.14,0-3.13-.72-3.13-.72v-2.47h.16c.14,1.57.74,3.03,2.97,3.03,2,0,2.26-2.18.72-3.25l-2.18-1.38c-1.25-.81-2.45-1.99-1.43-3.51,0,0,.64-1.01,2.47-1.01s3.01.61,3.01.61v2.17h-.18c-.12-1.26-.63-2.6-2.83-2.6-1.42,0-2.5,1.79-.51,3.05l2.17,1.4c1.76,1.13,2.05,2.57,1.37,3.62,0,0-.57,1.06-2.6,1.06Z"/><path class="cls-1" d="m170.01,19.88h-3v-.17c.71,0,.58-.73.28-1.46l-.46-1.12h-3.41c-.36,1.03-.93,2.63.89,2.58v.17h-2.93v-.17c.5-.01.83-.06,1.97-3.04l2.2-5.86h.14c1.6,3.79,3.24,7.86,3.24,7.86.43,1.03.71,1.02,1.08,1.04v.17Zm-3.24-2.91l-1.72-4.28-1.59,4.28h3.31Z"/><path class="cls-1" d="m181.31,10.81v.15c-1.91,0-1.87,1.86-1.87,3.05v5.86h-.42l-5.59-7.06v3.84c0,1.13,0,3.06,1.72,3.06v.17h-3.8v-.17c1.91,0,1.91-1.89,1.91-3.06v-4.03l-.54-.68c-.84-1.03-1.22-.95-1.57-.98v-.15h2.43l5.68,7.19v-3.98c0-1.2.01-3.05-1.72-3.05v-.15h3.76Z"/><path class="cls-1" d="m185.65,19.88h-2.83v-.17c.57,0,.89-.49.89-1.37v-6.02c0-.8-.32-1.35-.89-1.35v-.17h2.83c2.62,0,5.22.79,5.22,4.56s-2.6,4.51-5.22,4.51Zm0-8.91h-.58v8.74h.58c1.42,0,3.64-.06,3.64-4.34s-2.2-4.4-3.64-4.4Z"/><path class="cls-1" d="m196.86,20c-2.89,0-4.27-2.02-4.27-4.59s1.38-4.72,4.27-4.72,4.27,2.17,4.27,4.72-1.38,4.59-4.27,4.59Zm0-9.14c-1.57,0-2.76,1.02-2.76,4.55s1.2,4.42,2.76,4.42,2.75-.88,2.75-4.42-1.2-4.55-2.75-4.55Z"/></g></svg>