<?xml version="1.0" encoding="UTF-8"?><svg id="_レイヤー_2" xmlns="http://www.w3.org/2000/svg" viewBox="0 0 161.02 108.32"><defs><style>.cls-1{fill:#fff;}</style></defs><g id="design"><path class="cls-1" d="m32.32,86.62v.33c-2.83,0-3.19.73-5.69,7.27l-5.2,13.82h-.39l-5.2-13.73-4.78,13.73h-.42l-7.45-18.75c-.85-2.07-1.95-2.34-3.19-2.34v-.33h7.97v.33c-2.86,0-2.34,1.86-2.21,2.16l6.05,15.82,3.84-11.11-1.63-4.53c-.85-2.07-1.95-2.34-3.15-2.34v-.33h7.93v.33c-2.89,0-2.31,1.86-2.21,2.16l5.69,15.92,3.97-10.86c1.4-4.35,2.54-7.21-1.53-7.21v-.33h7.61Z"/><path class="cls-1" d="m37.25,108.05h-4.84v-.33c1.24-.33,1.3-.49,1.3-2.04v-9.31c0-1.03-.26-1.46-1.63-1.64v-.3l3.84-.7v11.96c0,1.67.16,1.76,1.33,2.04v.33Zm-4.13-18.2c0-.73.59-1.31,1.37-1.31s1.4.58,1.4,1.31-.65,1.28-1.4,1.28-1.37-.58-1.37-1.28Z"/><path class="cls-1" d="m43.68,107.74c4.88,0,7.12-.85,7.54-4.32h.39l-.29,4.63h-10.57l8.39-13.76c-4.36,0-7.41.43-7.8,3.71h-.39l.16-4.02h10.67l-8.1,13.76Z"/><path class="cls-1" d="m77.6,101.99l.33,4.5c-2.45,1.44-4.11,1.83-7.65,1.83-6.76,0-11.5-3.74-11.5-10.63s4.74-10.63,11.5-10.63c3.41,0,5.57.29,7.65,1.8l-.33,4.51h-.36c-.46-5.3-4.84-5.98-6.96-5.98-3.35,0-8.12,1-8.12,10.31s4.87,10.3,8.12,10.3c2.02,0,6.76-.88,6.96-6.01h.36Z"/><path class="cls-1" d="m95.51,101.67v6.39h-15.37v-.32c1.43,0,1.56-1.03,1.56-3.03v-14.63c0-1.8-.4-2.44-1.82-2.44v-.29h6.56v.29c-1.42,0-2.12.5-2.12,2.62v17.49h1.19c5.33.03,9.38,0,9.68-6.07h.33Z"/><path class="cls-1" d="m105.27,87.33v.29c-1.43,0-2.05.35-2.05,2.18v15.31c0,2,.66,2.62,2.05,2.62v.32h-6.83v-.32c1.43,0,2.09-.62,2.09-2.62v-15.31c0-1.83-.63-2.18-2.09-2.18v-.29h6.83Z"/><path class="cls-1" d="m131.68,87.33v.29c-4.67,0-4.57,2.86-4.57,6.95v13.49h-.7l-13.92-16.13v8.83c0,3.92,0,6.98,4.27,6.98v.32h-9.34v-.32c4.67,0,4.7-3,4.7-6.98v-9.22l-1.39-1.62c-2.12-2.36-3.08-2.24-3.94-2.3v-.29h5.14l14.81,17.31v-10.07c0-4.09,0-6.95-4.24-6.95v-.29h9.18Z"/><path class="cls-1" d="m140.48,87.33v.29c-1.43,0-2.05.35-2.05,2.18v15.31c0,2,.66,2.62,2.05,2.62v.32h-6.83v-.32c1.43,0,2.09-.62,2.09-2.62v-15.31c0-1.83-.63-2.18-2.09-2.18v-.29h6.83Z"/><path class="cls-1" d="m160.69,101.99l.33,4.5c-2.45,1.44-4.11,1.83-7.65,1.83-6.76,0-11.5-3.74-11.5-10.63s4.74-10.63,11.5-10.63c3.41,0,5.57.29,7.65,1.8l-.33,4.51h-.36c-.46-5.3-4.84-5.98-6.96-5.98-3.35,0-8.12,1-8.12,10.31s4.87,10.3,8.12,10.3c2.02,0,6.76-.88,6.96-6.01h.36Z"/><path class="cls-1" d="m102.79,5.07v2.33h5.67c.62,0,1.05.6.85,1.18l-11.48,33.47-13.27-23.32c.2-.32.89-1.77,1.09-2.09.79-1.45,1.5-2.89,2.13-4.34.63-1.45.94-2.92.94-4.42,0-.91-.13-1.8-.4-2.65-.26-.86-.73-1.72-1.39-2.57-.59-.86-1.34-1.5-2.23-1.93-.89-.43-1.8-.67-2.72-.72-2.51,0-4.36.75-5.55,2.25-1.19,1.5-1.92,3.14-2.18,4.9-.07.32-.12.66-.15,1-.03.35-.05.68-.05,1.01,0,2.52.5,4.97,1.49,7.36.99,2.39,2.11,4.73,3.37,7.04l-7.93,15.23h0s-1.28,2.45-1.28,2.45l-12.69-32.62c-.23-.59.21-1.22.84-1.22h5.02v-2.33h-21.39v2.33h5.63c1.08,0,2.04.67,2.41,1.67l16.61,44.88,14.46-27.66,15.85,27.26,15.73-44.7c.31-.87,1.13-1.45,2.05-1.45h5.29v-2.33h-16.74Zm-48.61,2.33l14.09,36.59-2.22,4.25L51.27,7.4h2.91Zm26.13-4.18c.33-.54.86-.83,1.58-.88.53,0,1.01.13,1.44.4.43.27.84.64,1.24,1.13.46.64.79,1.29.99,1.93.2.64.3,1.31.3,2.01,0,.38-.03.76-.1,1.17-.07.4-.13.79-.2,1.17-.26.91-.59,1.82-.99,2.73-.4.91-.83,1.77-1.29,2.57-.07.11-.12.2-.15.28-.03.08-.08.15-.15.2-.07-.05-.25-.44-.54-1.17-.3-.72-.64-1.59-1.04-2.61-.2-.48-.38-.98-.54-1.49-.17-.51-.31-1.03-.45-1.57-.2-.7-.35-1.37-.45-2.01-.1-.64-.15-1.26-.15-1.85,0-.8.16-1.47.5-2.01Zm-.12,18.09c-.86-1.45-1.7-2.95-2.33-4.58-2.97-7.67-.71-11.09-.71-11.15.25.84,1,4.39,2.24,7.47.8,1.98,1.32,3.16,2.52,5.53,1.18,2.33,2.61,4.49,3.86,6.71,1.25,2.22,2.54,4.46,3.86,6.71,1.25,2.25,2.53,4.49,3.81,6.71,1.27,2.19,2.52,4.4,3.4,6.09l-1.34,3.79-15.33-27.28Z"/><path class="cls-1" d="m37.18,78.15c-2.85,0-4.21-1.99-4.21-4.52s1.36-4.64,4.21-4.64,4.21,2.13,4.21,4.64-1.36,4.52-4.21,4.52Zm0-9c-1.54,0-2.72,1-2.72,4.48s1.18,4.35,2.72,4.35,2.71-.86,2.71-4.35-1.18-4.48-2.71-4.48Z"/><path class="cls-1" d="m53.42,77.87v.16h-3.31v-.16c.54,0,.93-.29.93-1.32v-6.97l-3.13,8.57h-.16l-3.61-7.77v4.49c0,1.47.22,2.99,1.66,2.99v.16h-3.66v-.16c1.61,0,1.84-1.56,1.84-2.99v-4.77c-.49-.82-1.14-.81-1.45-.84v-.16h2.58l3.37,7.18,2.58-7.18h2.29v.16c-.56,0-1,.25-1,1.12v6.17c0,1.03.53,1.32,1.09,1.32Z"/><path class="cls-1" d="m58.72,78.15c-2.85,0-4.21-1.99-4.21-4.52s1.36-4.64,4.21-4.64,4.21,2.13,4.21,4.64-1.36,4.52-4.21,4.52Zm0-9c-1.54,0-2.72,1-2.72,4.48s1.18,4.35,2.72,4.35,2.71-.86,2.71-4.35-1.18-4.48-2.71-4.48Z"/><path class="cls-1" d="m72.11,69.1v2.23h-.17c-.05-2.04-2.21-2.07-2.4-2.07h-.76v7.54c0,.84.4,1.07.95,1.07v.16h-3.16v-.16c.54,0,.93-.23.93-1.07v-7.54h-.76c-.4,0-2.33.03-2.38,2.07h-.17v-2.23h7.92Z"/><path class="cls-1" d="m80,75.39v2.64h-6.51v-.16c.54,0,.7-.46.7-1.32v-6.09c0-.79-.13-1.19-.7-1.19v-.16h6.34v2.28h-.17c-.16-2.09-2.4-2.12-3.44-2.12h-.7v4.17h.84c.35,0,1.72,0,1.79-1.28h.17v2.73h-.17c-.06-1.27-1.46-1.28-1.79-1.28h-.84v4.26h.6c1.15,0,3.44.06,3.72-2.47h.17Z"/><path class="cls-1" d="m84.91,78.15c-2.11,0-3.08-.71-3.08-.71v-2.44h.16c.14,1.55.73,2.98,2.93,2.98,1.97,0,2.23-2.14.71-3.2l-2.15-1.36c-1.23-.8-2.41-1.95-1.41-3.45,0,0,.63-.99,2.43-.99s2.96.6,2.96.6v2.13h-.18c-.12-1.24-.62-2.56-2.78-2.56-1.4,0-2.46,1.76-.51,3.01l2.14,1.38c1.74,1.12,2.02,2.53,1.35,3.57,0,0-.56,1.04-2.56,1.04Z"/><path class="cls-1" d="m97.41,78.03h-2.95v-.16c.7,0,.57-.72.27-1.43l-.45-1.1h-3.35c-.35,1.02-.92,2.59.88,2.54v.16h-2.89v-.16c.49-.01.82-.06,1.94-2.99l2.16-5.77h.14c1.58,3.73,3.18,7.74,3.18,7.74.43,1.01.7,1,1.06,1.03v.16Zm-3.18-2.87l-1.7-4.21-1.57,4.21h3.26Z"/><path class="cls-1" d="m108.54,69.1v.15c-1.88,0-1.84,1.83-1.84,3.01v5.77h-.41l-5.5-6.95v3.78c0,1.12,0,3.01,1.7,3.01v.16h-3.74v-.16c1.88,0,1.88-1.87,1.88-3.01v-3.97l-.53-.67c-.83-1.02-1.2-.94-1.54-.96v-.15h2.39l5.59,7.08v-3.92c0-1.18.01-3.01-1.7-3.01v-.15h3.7Z"/><path class="cls-1" d="m112.81,78.03h-2.78v-.16c.56,0,.88-.48.88-1.34v-5.93c0-.79-.31-1.33-.88-1.33v-.16h2.78c2.58,0,5.14.77,5.14,4.49s-2.56,4.44-5.14,4.44Zm0-8.77h-.57v8.6h.57c1.4,0,3.59-.06,3.59-4.28s-2.16-4.33-3.59-4.33Z"/><path class="cls-1" d="m123.84,78.15c-2.85,0-4.21-1.99-4.21-4.52s1.36-4.64,4.21-4.64,4.21,2.13,4.21,4.64-1.36,4.52-4.21,4.52Zm0-9c-1.54,0-2.72,1-2.72,4.48s1.18,4.35,2.72,4.35,2.71-.86,2.71-4.35-1.18-4.48-2.71-4.48Z"/></g></svg>