<?xml version="1.0" encoding="UTF-8"?><svg id="_レイヤー_2" xmlns="http://www.w3.org/2000/svg" viewBox="0 0 176.46 118.71"><defs><style>.cls-1{fill:#221815;}</style></defs><g id="design"><path class="cls-1" d="m35.42,94.93v.37c-3.1,0-3.49.8-6.24,7.97l-5.7,15.14h-.43l-5.7-15.04-5.24,15.04h-.46l-8.16-20.54c-.93-2.27-2.14-2.57-3.49-2.57v-.37h8.73v.37c-3.14,0-2.57,2.03-2.42,2.37l6.63,17.34,4.2-12.17-1.78-4.97c-.93-2.27-2.14-2.57-3.46-2.57v-.37h8.7v.37c-3.17,0-2.53,2.03-2.42,2.37l6.24,17.44,4.35-11.91c1.53-4.77,2.78-7.9-1.67-7.9v-.37h8.34Z"/><path class="cls-1" d="m40.82,118.41h-5.31v-.37c1.35-.37,1.43-.53,1.43-2.23v-10.21c0-1.13-.29-1.6-1.78-1.8v-.33l4.2-.77v13.11c0,1.83.18,1.93,1.46,2.23v.37Zm-4.53-19.94c0-.8.64-1.43,1.5-1.43s1.53.63,1.53,1.43-.71,1.4-1.53,1.4-1.5-.63-1.5-1.4Z"/><path class="cls-1" d="m47.87,118.07c5.35,0,7.8-.93,8.27-4.74h.43l-.32,5.07h-11.58l9.19-15.07c-4.78,0-8.12.47-8.55,4.07h-.43l.18-4.4h11.69l-8.87,15.07Z"/><path class="cls-1" d="m85.04,111.77l.36,4.94c-2.69,1.58-4.5,2-8.39,2-7.41,0-12.6-4.1-12.6-11.65s5.19-11.65,12.6-11.65c3.74,0,6.1.32,8.39,1.97l-.36,4.94h-.4c-.51-5.81-5.3-6.55-7.63-6.55-3.67,0-8.9,1.1-8.9,11.29s5.34,11.29,8.9,11.29c2.21,0,7.41-.97,7.63-6.58h.4Z"/><path class="cls-1" d="m104.67,111.41v7h-16.85v-.36c1.56,0,1.71-1.13,1.71-3.32v-16.04c0-1.97-.44-2.68-2-2.68v-.32h7.19v.32c-1.56,0-2.32.55-2.32,2.87v19.17h1.31c5.85.03,10.28,0,10.6-6.65h.36Z"/><path class="cls-1" d="m115.36,95.7v.32c-1.56,0-2.25.39-2.25,2.39v16.78c0,2.19.73,2.87,2.25,2.87v.36h-7.48v-.36c1.56,0,2.29-.68,2.29-2.87v-16.78c0-2-.69-2.39-2.29-2.39v-.32h7.48Z"/><path class="cls-1" d="m144.31,95.7v.32c-5.12,0-5.01,3.13-5.01,7.61v14.78h-.76l-15.25-17.68v9.68c0,4.29,0,7.65,4.68,7.65v.36h-10.24v-.36c5.12,0,5.16-3.29,5.16-7.65v-10.1l-1.52-1.77c-2.32-2.58-3.38-2.45-4.32-2.52v-.32h5.63l16.23,18.97v-11.04c0-4.49,0-7.61-4.65-7.61v-.32h10.06Z"/><path class="cls-1" d="m153.95,95.7v.32c-1.56,0-2.25.39-2.25,2.39v16.78c0,2.19.73,2.87,2.25,2.87v.36h-7.48v-.36c1.56,0,2.29-.68,2.29-2.87v-16.78c0-2-.69-2.39-2.29-2.39v-.32h7.48Z"/><path class="cls-1" d="m176.1,111.77l.36,4.94c-2.69,1.58-4.5,2-8.39,2-7.41,0-12.6-4.1-12.6-11.65s5.19-11.65,12.6-11.65c3.74,0,6.1.32,8.39,1.97l-.36,4.94h-.4c-.51-5.81-5.3-6.55-7.63-6.55-3.67,0-8.9,1.1-8.9,11.29s5.34,11.29,8.9,11.29c2.21,0,7.41-.97,7.63-6.58h.4Z"/><path class="cls-1" d="m112.65,5.55v2.55h6.22c.68,0,1.16.66.94,1.3l-12.58,36.68-14.54-25.55c.22-.35.98-1.94,1.19-2.29.87-1.59,1.64-3.17,2.33-4.76.69-1.59,1.03-3.2,1.03-4.85,0-1-.15-1.97-.43-2.91-.29-.94-.8-1.88-1.52-2.82-.65-.94-1.47-1.64-2.44-2.12-.98-.47-1.97-.73-2.98-.79-2.75,0-4.78.82-6.08,2.47-1.3,1.65-2.1,3.44-2.39,5.37-.07.35-.13.72-.16,1.1-.04.38-.05.75-.05,1.1,0,2.76.54,5.45,1.63,8.06,1.09,2.61,2.31,5.19,3.69,7.71l-8.69,16.69h0s-1.4,2.68-1.4,2.68l-13.91-35.75c-.25-.64.23-1.34.92-1.34h5.5v-2.55h-23.44v2.55h6.17c1.18,0,2.24.73,2.65,1.83l18.21,49.18,15.85-30.31,17.37,29.87,17.24-48.99c.33-.95,1.24-1.59,2.25-1.59h5.8v-2.55h-18.34Zm-53.27,2.55l15.44,40.1-2.43,4.66L56.19,8.11h3.19Zm28.63-4.58c.36-.59.94-.91,1.74-.97.58,0,1.1.15,1.57.44.47.3.92.7,1.36,1.23.51.71.87,1.41,1.09,2.11.22.7.33,1.44.33,2.2,0,.41-.04.84-.11,1.28-.07.44-.15.87-.22,1.28-.29,1-.65,2-1.09,3-.43,1-.91,1.94-1.41,2.82-.07.12-.13.22-.16.31-.04.09-.09.16-.16.22-.07-.06-.27-.48-.6-1.28-.33-.79-.71-1.75-1.14-2.86-.22-.53-.42-1.07-.6-1.63-.18-.56-.34-1.13-.49-1.72-.22-.76-.38-1.5-.49-2.2-.11-.7-.16-1.38-.16-2.03,0-.88.18-1.62.54-2.2Zm-.13,19.82c-.94-1.59-1.86-3.23-2.55-5.02-3.25-8.41-.78-12.15-.78-12.22.27.93,1.1,4.81,2.46,8.18.88,2.17,1.45,3.46,2.76,6.06,1.29,2.55,2.86,4.92,4.23,7.36,1.37,2.44,2.78,4.89,4.23,7.36,1.37,2.47,2.77,4.92,4.18,7.36,1.39,2.41,2.76,4.82,3.73,6.67l-1.47,4.15-16.8-29.9Z"/><path class="cls-1" d="m40.74,85.64c-3.12,0-4.61-2.18-4.61-4.95s1.49-5.09,4.61-5.09,4.61,2.34,4.61,5.09-1.49,4.95-4.61,4.95Zm0-9.86c-1.69,0-2.98,1.1-2.98,4.91s1.29,4.77,2.98,4.77,2.97-.95,2.97-4.77-1.29-4.91-2.97-4.91Z"/><path class="cls-1" d="m58.55,85.33v.18h-3.63v-.18c.6,0,1.02-.32,1.02-1.45v-7.63l-3.43,9.39h-.17l-3.96-8.51v4.92c0,1.61.24,3.28,1.82,3.28v.18h-4.02v-.18c1.76,0,2.01-1.71,2.01-3.28v-5.23c-.54-.9-1.25-.89-1.59-.92v-.18h2.82l3.69,7.87,2.82-7.87h2.51v.18c-.61,0-1.09.28-1.09,1.22v6.76c0,1.13.58,1.45,1.19,1.45Z"/><path class="cls-1" d="m64.35,85.64c-3.12,0-4.61-2.18-4.61-4.95s1.49-5.09,4.61-5.09,4.61,2.34,4.61,5.09-1.49,4.95-4.61,4.95Zm0-9.86c-1.69,0-2.98,1.1-2.98,4.91s1.29,4.77,2.98,4.77,2.97-.95,2.97-4.77-1.29-4.91-2.97-4.91Z"/><path class="cls-1" d="m79.03,75.72v2.45h-.18c-.06-2.24-2.43-2.27-2.63-2.27h-.84v8.26c0,.92.44,1.17,1.04,1.17v.18h-3.46v-.18c.6,0,1.02-.25,1.02-1.17v-8.26h-.84c-.44,0-2.55.03-2.61,2.27h-.18v-2.45h8.68Z"/><path class="cls-1" d="m87.67,82.62v2.89h-7.14v-.18c.6,0,.77-.5.77-1.45v-6.67c0-.86-.14-1.31-.77-1.31v-.18h6.95v2.5h-.18c-.17-2.29-2.63-2.32-3.77-2.32h-.77v4.58h.92c.38,0,1.89,0,1.96-1.4h.19v2.99h-.19c-.07-1.39-1.6-1.4-1.96-1.4h-.92v4.67h.65c1.26,0,3.77.07,4.07-2.71h.18Z"/><path class="cls-1" d="m93.05,85.64c-2.31,0-3.38-.78-3.38-.78v-2.67h.17c.16,1.7.79,3.27,3.21,3.27,2.16,0,2.44-2.35.78-3.5l-2.35-1.49c-1.35-.88-2.64-2.14-1.55-3.78,0,0,.7-1.08,2.67-1.08s3.25.65,3.25.65v2.34h-.2c-.13-1.36-.68-2.81-3.05-2.81-1.53,0-2.7,1.93-.55,3.3l2.34,1.52c1.9,1.22,2.21,2.77,1.48,3.91,0,0-.61,1.14-2.81,1.14Z"/><path class="cls-1" d="m106.75,85.51h-3.23v-.18c.77,0,.62-.79.3-1.57l-.5-1.21h-3.68c-.38,1.11-1.01,2.84.97,2.78v.18h-3.16v-.18c.54-.01.89-.07,2.13-3.28l2.37-6.33h.16c1.73,4.09,3.49,8.48,3.49,8.48.47,1.11.77,1.1,1.16,1.13v.18Zm-3.49-3.14l-1.86-4.62-1.72,4.62h3.58Z"/><path class="cls-1" d="m118.94,75.72v.17c-2.06,0-2.01,2-2.01,3.3v6.33h-.45l-6.03-7.62v4.14c0,1.22,0,3.3,1.86,3.3v.18h-4.1v-.18c2.06,0,2.06-2.04,2.06-3.3v-4.35l-.58-.74c-.91-1.11-1.32-1.03-1.69-1.06v-.17h2.62l6.13,7.76v-4.3c0-1.29.01-3.3-1.86-3.3v-.17h4.06Z"/><path class="cls-1" d="m123.63,85.51h-3.05v-.18c.61,0,.96-.53.96-1.47v-6.49c0-.86-.34-1.46-.96-1.46v-.18h3.05c2.82,0,5.63.85,5.63,4.92s-2.81,4.87-5.63,4.87Zm0-9.61h-.62v9.43h.62c1.53,0,3.93-.07,3.93-4.69s-2.37-4.74-3.93-4.74Z"/><path class="cls-1" d="m135.72,85.64c-3.12,0-4.61-2.18-4.61-4.95s1.49-5.09,4.61-5.09,4.61,2.34,4.61,5.09-1.49,4.95-4.61,4.95Zm0-9.86c-1.69,0-2.98,1.1-2.98,4.91s1.29,4.77,2.98,4.77,2.97-.95,2.97-4.77-1.29-4.91-2.97-4.91Z"/></g></svg>