<?xml version="1.0" encoding="UTF-8"?><svg id="_レイヤー_2" xmlns="http://www.w3.org/2000/svg" viewBox="0 0 46 170.62"><defs><style>.cls-1{fill:#a0b4d2;}.cls-2{fill:#1a3d70;}</style></defs><g id="design"><path class="cls-2" d="m6.9,85.82c-.32-.24-.36-.51-.12-.8,4.13-.67,7.59-1.56,10.36-2.68s5.05-2.69,6.84-4.72c-1.12-.37-2.25-.69-3.38-.94-1.13-.25-2.29-.47-3.46-.66-.16.37-.3.69-.42.94-.12.25-.21.45-.26.58-.05.13-.24.23-.56.3-.32.07-.65.09-1,.08-.35-.01-.64-.07-.88-.18-.59-.27-.75-.6-.48-1,.27-.4.68-1.13,1.24-2.2.56-1.07,1.19-2.31,1.88-3.74.69-1.43,1.37-2.86,2.04-4.3h-9.6c-.88.03-1.59.09-2.12.2l-.32-1.76c.67.16,1.48.27,2.44.32h10.12c.53-1.17,1-2.26,1.4-3.26s.68-1.81.84-2.42c.11-.37.15-.68.14-.92-.01-.24-.02-.43-.02-.56-.03-.24-.01-.39.04-.44.11-.08.24-.09.4-.04.27.08.64.22,1.12.42.48.2.97.39,1.46.58.49.19.87.35,1.14.48.27.08.35.25.24.52-.03.24-.19.36-.48.36-.27-.03-.53-.01-.8.04-.27.05-.49.27-.68.64-.13.27-.39.82-.78,1.66-.39.84-.83,1.82-1.34,2.94h15.16c.19,0,.33-.05.44-.16l1.84-1.84c.21-.21.45-.23.72-.04.35.27.79.64,1.34,1.12.55.48.95.85,1.22,1.12.21.24.29.47.22.7-.07.23-.22.34-.46.34h-10.36c-.96,4.24-2.37,7.68-4.24,10.32,2.11.56,4.1,1.25,5.98,2.08,1.88.83,3.45,1.81,4.7,2.96.43.4.73.87.92,1.4.19.53.25,1.03.2,1.5-.05.47-.24.78-.56.94-.27.13-.54.16-.82.08-.28-.08-.65-.33-1.1-.76-1.63-1.44-3.33-2.7-5.12-3.78-1.79-1.08-3.64-1.99-5.56-2.74-2.19,2.4-4.9,4.14-8.14,5.22-3.24,1.08-7.03,1.78-11.38,2.1Zm1.76-22c-.61.11-1.09.01-1.42-.28-.33-.29-.49-.65-.48-1.08.01-.43.23-.8.66-1.12,1.09-.77,1.97-1.9,2.62-3.38s1.1-3.07,1.34-4.78c.13-.13.27-.21.42-.22.15-.01.27.05.38.18.08.67.12,1.37.12,2.12h11.08v-3.2c0-.99-.09-1.61-.28-1.88-.08-.13-.08-.28,0-.44.13-.08.27-.11.4-.08.32.05.74.13,1.26.24.52.11,1.03.21,1.54.32.51.11.91.2,1.2.28.21.08.32.24.32.48-.03.27-.17.4-.44.4-.27.03-.55.09-.84.18-.29.09-.44.34-.44.74v2.96h10.48c.19,0,.35-.05.48-.16.19-.13.45-.34.8-.62.35-.28.61-.5.8-.66.21-.19.45-.16.72.08.19.13.49.38.9.74.41.36.82.71,1.22,1.06.4.35.69.61.88.8.24.24.24.51,0,.8-.24.32-.52.41-.84.28-.32-.13-.61-.19-.88-.18-.27.01-.61.14-1.04.38-.27.16-.64.41-1.12.74-.48.33-.98.69-1.5,1.08-.52.39-.99.74-1.42,1.06-.43.32-.75.55-.96.68-.4,0-.6-.19-.6-.56.16-.24.41-.65.74-1.22.33-.57.67-1.16,1.02-1.76.35-.6.6-1.05.76-1.34H12.3c-.03,1.15-.16,2.26-.4,3.34-.24,1.08-.62,1.99-1.14,2.72-.52.73-1.22,1.17-2.1,1.3Zm16.44,12.36c.88-1.25,1.65-2.67,2.3-4.26.65-1.59,1.23-3.39,1.74-5.42h-7.76c-.67,1.47-1.34,2.97-2.02,4.52-.68,1.55-1.27,2.89-1.78,4.04,1.17.11,2.39.25,3.66.42,1.27.17,2.55.41,3.86.7Z"/><path class="cls-2" d="m6.18,111.31c-.37-.13-.49-.37-.36-.72,1.23-.8,2.57-1.79,4.04-2.96,1.47-1.17,2.95-2.47,4.44-3.9,1.49-1.43,2.91-2.96,4.24-4.6,1.33-1.64,2.48-3.34,3.44-5.1.21-.4.35-.75.4-1.04.05-.29.08-.53.08-.72.03-.13.04-.24.04-.32s.03-.13.08-.16c.11-.08.24-.08.4,0,.29.11.69.27,1.18.48.49.21.99.43,1.5.64.51.21.91.39,1.2.52.21.11.29.29.24.56-.08.27-.25.37-.52.32-.11,0-.19-.01-.24-.04,1.12,2.19,2.45,4.04,4,5.56,1.55,1.52,3.15,2.76,4.8,3.72,1.65.96,3.24,1.72,4.76,2.28s2.8.99,3.84,1.28c-.77.16-1.51.53-2.2,1.1-.69.57-1.19,1.09-1.48,1.54-1.07-.53-2.26-1.23-3.58-2.08-1.32-.85-2.67-1.91-4.06-3.16-1.39-1.25-2.69-2.71-3.92-4.38-1.23-1.67-2.28-3.58-3.16-5.74-1.28,2.05-2.74,3.97-4.38,5.74-1.64,1.77-3.33,3.38-5.08,4.82-1.75,1.44-3.46,2.7-5.14,3.78s-3.2,1.94-4.56,2.58Zm1.12,15.56l-.36-1.76c.67.19,1.49.31,2.48.36h13.64v-6.92h-8.52c-.88.03-1.59.09-2.12.2l-.32-1.76c.67.19,1.48.31,2.44.36h8.52v-6.6h-8.28c-.88.03-1.59.09-2.12.2l-.32-1.72c.67.16,1.48.27,2.44.32h17.28c.16,0,.31-.07.44-.2.08-.11.22-.26.42-.46.2-.2.41-.41.62-.62.21-.21.35-.35.4-.4.21-.21.47-.21.76,0,.13.08.36.25.68.52.32.27.63.53.94.78.31.25.51.43.62.54.21.19.29.41.24.66-.05.25-.19.38-.4.38h-11.16v6.6h6.8c.16,0,.31-.07.44-.2.08-.08.23-.25.44-.5.21-.25.43-.5.64-.74.21-.24.36-.4.44-.48.19-.19.43-.2.72-.04.16.11.39.31.7.6.31.29.62.58.94.86.32.28.53.49.64.62.24.24.33.48.26.72-.07.24-.23.36-.5.36h-11.52v6.92h10.56c.16,0,.31-.07.44-.2.08-.08.26-.26.54-.54.28-.28.57-.57.86-.86.29-.29.47-.47.52-.52.19-.19.41-.2.68-.04.13.08.43.29.88.64.45.35.9.69,1.34,1.02.44.33.71.55.82.66.21.19.29.41.24.66-.05.25-.19.38-.4.38H9.42c-.88.03-1.59.09-2.12.2Z"/><path class="cls-2" d="m7.54,153.34c-.59.03-.97-.22-1.16-.74-.19-.52-.03-1.03.48-1.54.72-.77,1.25-1.84,1.58-3.2.33-1.36.47-2.81.42-4.36.24-.32.51-.36.8-.12.43,1.68.66,3.27.7,4.76.04,1.49-.15,2.72-.58,3.68-.43.96-1.17,1.47-2.24,1.52Zm5.28,17.28c-.56,0-.84-.23-.84-.68,0-.11.01-.51.04-1.22.03-.71.06-1.62.1-2.74.04-1.12.07-2.37.1-3.74.03-1.37.05-2.79.08-4.24.03-1.45.04-2.83.04-4.14v-17c0-.93-.09-1.56-.28-1.88-.13-.13-.13-.28,0-.44.08-.08.2-.11.36-.08.43.08,1.02.2,1.78.36.76.16,1.35.31,1.78.44.27.08.37.24.32.48,0,.24-.13.39-.4.44-.29.03-.58.08-.86.16-.28.08-.42.32-.42.72v16.84c0,1.71.01,3.45.04,5.24.03,1.79.06,3.45.1,4.98.04,1.53.07,2.8.1,3.8.03,1,.04,1.58.04,1.74,0,.21-.22.43-.66.64-.44.21-.91.32-1.42.32Zm6.16-22.28c-.24.03-.49-.03-.74-.16-.25-.13-.43-.47-.54-1-.13-.93-.39-1.93-.76-2.98-.37-1.05-.89-1.95-1.56-2.7,0-.4.19-.6.56-.6.93.51,1.79,1.17,2.56,1.98s1.29,1.67,1.56,2.58c.21.67.21,1.29,0,1.86-.21.57-.57.91-1.08,1.02Zm-.44,20.84l-.32-1.72c.67.16,1.48.27,2.44.32h9.04v-10.76h-6.2c-.88.03-1.59.09-2.12.2l-.32-1.72c.67.16,1.48.27,2.44.32h6.2v-9.08h-5.96c-.8,1.73-1.67,3.39-2.62,4.96-.95,1.57-1.86,2.95-2.74,4.12-.37.08-.61-.07-.72-.44.61-1.01,1.23-2.21,1.86-3.6.63-1.39,1.22-2.85,1.78-4.38.56-1.53,1.05-3.04,1.46-4.52.41-1.48.7-2.82.86-4.02.03-.24.03-.45.02-.64-.01-.19-.03-.35-.06-.48-.03-.29,0-.48.08-.56.13-.08.28-.09.44-.04.27.08.64.21,1.12.4.48.19.96.37,1.44.54.48.17.87.33,1.16.46.21.11.29.29.24.56-.08.27-.24.37-.48.32-.43-.03-.74,0-.94.06-.2.07-.33.25-.38.54-.24.91-.53,1.82-.86,2.74-.33.92-.7,1.85-1.1,2.78h5.4v-8.68c0-.99-.09-1.61-.28-1.88-.11-.16-.11-.31,0-.44.08-.08.21-.11.4-.08.29.05.68.13,1.16.22.48.09.97.19,1.46.28.49.09.89.18,1.18.26.21.05.32.21.32.48-.03.24-.17.39-.44.44-.27.03-.55.08-.84.16-.29.08-.44.33-.44.76v8.48h4.8c.19,0,.33-.05.44-.16.13-.16.39-.45.76-.88.37-.43.63-.72.76-.88.21-.21.45-.21.72,0,.27.19.65.51,1.16.98.51.47.88.82,1.12,1.06.24.27.33.51.26.74-.07.23-.23.34-.5.34h-9.52v9.08h4.36c.19,0,.33-.05.44-.16.13-.16.39-.45.76-.88.37-.43.63-.72.76-.88.21-.21.45-.21.72,0,.29.19.69.51,1.18.98.49.47.87.82,1.14,1.06.21.27.29.51.24.74-.05.23-.23.34-.52.34h-9.08v10.76h5.48c.27,0,.47-.08.6-.24.13-.21.37-.53.72-.94.35-.41.59-.71.72-.9.19-.24.44-.25.76-.04.21.13.49.35.84.66.35.31.7.61,1.06.92.36.31.62.54.78.7.21.21.29.44.24.68-.05.24-.2.36-.44.36h-22.32c-.88.03-1.59.09-2.12.2Z"/><path class="cls-1" d="m11.82,30c-1.76,0-3.39-.57-4.88-1.72-1.49-1.15-2.7-2.83-3.62-5.06-.92-2.23-1.38-4.97-1.38-8.22s.46-5.99,1.38-8.22c.92-2.23,2.13-3.91,3.62-5.06,1.49-1.15,3.12-1.72,4.88-1.72s3.39.57,4.88,1.72c1.49,1.15,2.7,2.83,3.62,5.06.92,2.23,1.38,4.97,1.38,8.22s-.46,5.99-1.38,8.22c-.92,2.23-2.13,3.91-3.62,5.06-1.49,1.15-3.12,1.72-4.88,1.72Zm0-1.76c1.55,0,2.74-.57,3.58-1.7.84-1.13,1.43-2.69,1.78-4.68.35-1.99.52-4.27.52-6.86s-.17-4.87-.52-6.86c-.35-1.99-.94-3.55-1.78-4.68-.84-1.13-2.03-1.7-3.58-1.7s-2.71.57-3.56,1.7c-.85,1.13-1.45,2.7-1.8,4.7-.35,2-.52,4.28-.52,6.84s.17,4.84.52,6.84c.35,2,.95,3.57,1.8,4.7.85,1.13,2.04,1.7,3.56,1.7Z"/><path class="cls-1" d="m35.58,30c-2.43,0-4.36-.41-5.8-1.24-1.44-.83-2.16-1.83-2.16-3,0-.53.16-1,.48-1.4.32-.4.77-.6,1.36-.6.4,0,.75.12,1.04.36.29.24.57.67.84,1.28.35.77.88,1.4,1.6,1.88.37.27.78.47,1.22.62.44.15.91.22,1.42.22,1.49,0,2.69-.35,3.6-1.04.91-.69,1.57-1.55,2-2.56.43-1.01.64-1.97.64-2.88,0-1.28-.19-2.33-.58-3.16-.39-.83-.87-1.46-1.44-1.9-.57-.44-1.15-.75-1.74-.92-.59-.17-1.09-.26-1.52-.26-.51,0-1.09.02-1.76.06-.67.04-1.11.06-1.32.06-.64,0-.96-.37-.96-1.12s.32-1.16.96-1.16c.29,0,.67,0,1.12.02.45.01.87.02,1.24.02.29,0,.72-.13,1.28-.4.56-.27,1.13-.68,1.72-1.24.59-.56,1.09-1.27,1.5-2.12.41-.85.62-1.87.62-3.04,0-1.57-.48-2.75-1.44-3.54-.96-.79-2.07-1.18-3.32-1.18-.91,0-1.78.2-2.62.6-.84.4-1.45,1.05-1.82,1.96-.19.45-.25.85-.2,1.18.05.33.12.63.2.9.03.13.05.26.08.38.03.12.04.23.04.34,0,.56-.21,1-.62,1.32-.41.32-.85.48-1.3.48-.56,0-1-.2-1.32-.6-.32-.4-.51-.9-.58-1.5-.07-.6-.03-1.22.1-1.86.29-1.09.86-2.01,1.7-2.74.84-.73,1.85-1.29,3.04-1.66,1.19-.37,2.41-.56,3.66-.56,1.65,0,3.08.31,4.28.92,1.2.61,2.13,1.41,2.8,2.4.67.99,1,2.07,1,3.24,0,1.71-.6,3.22-1.8,4.54-1.2,1.32-2.68,2.29-4.44,2.9-.11.03-.15.09-.14.18.01.09.09.14.22.14,1.36,0,2.59.33,3.7.98,1.11.65,1.99,1.53,2.64,2.64.65,1.11.98,2.33.98,3.66,0,1.81-.49,3.35-1.46,4.6-.97,1.25-2.24,2.2-3.8,2.84-1.56.64-3.21.96-4.94.96Z"/><rect class="cls-1" y="36.65" width="46" height="1"/></g></svg>