<?xml version="1.0" encoding="UTF-8"?><svg id="_レイヤー_2" xmlns="http://www.w3.org/2000/svg" viewBox="0 0 332.48 70.32"><defs><style>.cls-1{fill:#a0b4d2;}.cls-2{fill:#1a3d70;}</style></defs><g id="design"><path class="cls-2" d="m116.95,65.63c-.58-.43-.65-.91-.22-1.44,7.44-1.2,13.66-2.81,18.65-4.82,4.99-2.02,9.1-4.85,12.31-8.5-2.02-.67-4.04-1.23-6.08-1.69-2.04-.46-4.12-.85-6.23-1.19-.29.67-.54,1.24-.76,1.69-.22.46-.37.8-.47,1.04-.1.24-.43.42-1.01.54-.58.12-1.18.17-1.8.14-.62-.02-1.15-.13-1.58-.32-1.06-.48-1.34-1.08-.86-1.8.48-.72,1.22-2.04,2.23-3.96,1.01-1.92,2.14-4.16,3.38-6.73,1.25-2.57,2.47-5.15,3.67-7.74h-17.28c-1.58.05-2.86.17-3.82.36l-.58-3.17c1.2.29,2.66.48,4.39.58h18.22c.96-2.11,1.8-4.07,2.52-5.87.72-1.8,1.22-3.25,1.51-4.36.19-.67.28-1.22.25-1.66-.02-.43-.04-.77-.04-1.01-.05-.43-.02-.7.07-.79.19-.14.43-.17.72-.07.48.14,1.15.4,2.02.76.86.36,1.74.71,2.63,1.04.89.34,1.57.62,2.05.86.48.14.62.46.43.94-.05.43-.34.65-.86.65-.48-.05-.96-.02-1.44.07-.48.1-.89.48-1.22,1.15-.24.48-.71,1.48-1.4,2.99-.7,1.51-1.5,3.28-2.41,5.29h27.29c.34,0,.6-.1.79-.29l3.31-3.31c.38-.38.82-.41,1.3-.07.62.48,1.43,1.15,2.41,2.02.98.86,1.72,1.54,2.2,2.02.38.43.52.85.4,1.26-.12.41-.4.61-.83.61h-18.65c-1.73,7.63-4.27,13.82-7.63,18.58,3.79,1.01,7.38,2.26,10.76,3.74,3.38,1.49,6.2,3.26,8.46,5.33.77.72,1.32,1.56,1.66,2.52.33.96.46,1.86.36,2.7-.1.84-.43,1.4-1.01,1.69-.48.24-.97.29-1.48.14s-1.16-.6-1.98-1.37c-2.93-2.59-6-4.86-9.22-6.8-3.22-1.94-6.55-3.59-10.01-4.93-3.94,4.32-8.82,7.45-14.65,9.4-5.83,1.94-12.66,3.2-20.48,3.78Zm3.17-39.6c-1.1.19-1.96.02-2.56-.5-.6-.53-.89-1.18-.86-1.94.02-.77.42-1.44,1.19-2.02,1.97-1.39,3.54-3.42,4.72-6.08,1.18-2.66,1.98-5.53,2.41-8.6.24-.24.49-.37.76-.4.26-.02.49.08.68.32.14,1.2.22,2.47.22,3.82h19.94v-5.76c0-1.78-.17-2.9-.5-3.38-.14-.24-.14-.5,0-.79.24-.14.48-.19.72-.14.58.1,1.33.24,2.27.43.94.19,1.86.38,2.77.58.91.19,1.63.36,2.16.5.38.14.58.43.58.86-.05.48-.31.72-.79.72-.48.05-.98.16-1.51.32-.53.17-.79.61-.79,1.33v5.33h18.86c.34,0,.62-.1.86-.29.34-.24.82-.61,1.44-1.12.62-.5,1.1-.9,1.44-1.19.38-.34.82-.29,1.3.14.33.24.88.68,1.62,1.33.74.65,1.48,1.28,2.2,1.91.72.62,1.25,1.1,1.58,1.44.43.43.43.91,0,1.44-.43.58-.94.74-1.51.5-.58-.24-1.1-.35-1.58-.32-.48.02-1.1.25-1.87.68-.48.29-1.15.73-2.02,1.33-.86.6-1.76,1.25-2.7,1.94-.94.7-1.79,1.33-2.56,1.91-.77.58-1.34.98-1.73,1.22-.72,0-1.08-.34-1.08-1.01.29-.43.73-1.16,1.33-2.2.6-1.03,1.21-2.09,1.84-3.17.62-1.08,1.08-1.88,1.37-2.41h-43.63c-.05,2.06-.29,4.07-.72,6.01-.43,1.94-1.12,3.58-2.05,4.9-.94,1.32-2.2,2.1-3.78,2.34Zm29.59,22.25c1.58-2.26,2.96-4.81,4.14-7.67,1.18-2.86,2.22-6.11,3.13-9.76h-13.97c-1.2,2.64-2.41,5.35-3.64,8.14-1.22,2.78-2.29,5.21-3.2,7.27,2.11.19,4.31.44,6.59.76,2.28.31,4.6.73,6.95,1.26Z"/><path class="cls-2" d="m190.54,35.24c-.67-.24-.89-.67-.65-1.3,2.21-1.44,4.63-3.22,7.27-5.33,2.64-2.11,5.3-4.45,7.99-7.02,2.69-2.57,5.23-5.33,7.63-8.28,2.4-2.95,4.46-6.01,6.19-9.18.38-.72.62-1.34.72-1.87.1-.53.14-.96.14-1.3.05-.24.07-.43.07-.58s.05-.24.14-.29c.19-.14.43-.14.72,0,.53.19,1.24.48,2.12.86.89.38,1.79.77,2.7,1.15.91.38,1.63.7,2.16.94.38.19.53.53.43,1.01-.14.48-.46.67-.94.58-.19,0-.34-.02-.43-.07,2.02,3.94,4.42,7.27,7.2,10.01,2.78,2.74,5.66,4.97,8.64,6.7,2.98,1.73,5.83,3.1,8.57,4.1,2.74,1.01,5.04,1.78,6.91,2.3-1.39.29-2.71.95-3.96,1.98-1.25,1.03-2.14,1.96-2.66,2.77-1.92-.96-4.07-2.21-6.44-3.74-2.38-1.54-4.81-3.43-7.31-5.69-2.5-2.26-4.85-4.88-7.06-7.88-2.21-3-4.1-6.44-5.69-10.33-2.3,3.7-4.93,7.14-7.88,10.33-2.95,3.19-6,6.08-9.14,8.68-3.14,2.59-6.23,4.86-9.25,6.8-3.02,1.94-5.76,3.49-8.21,4.64Zm2.02,28.01l-.65-3.17c1.2.34,2.69.55,4.46.65h24.55v-12.46h-15.34c-1.58.05-2.86.17-3.82.36l-.58-3.17c1.2.34,2.66.55,4.39.65h15.34v-11.88h-14.9c-1.58.05-2.86.17-3.82.36l-.58-3.1c1.2.29,2.66.48,4.39.58h31.1c.29,0,.55-.12.79-.36.14-.19.4-.47.76-.83l1.12-1.12.72-.72c.38-.38.84-.38,1.37,0,.24.14.65.46,1.22.94.58.48,1.14.95,1.69,1.4.55.46.92.78,1.12.97.38.34.53.73.43,1.19-.1.46-.34.68-.72.68h-20.09v11.88h12.24c.29,0,.55-.12.79-.36.14-.14.41-.44.79-.9.38-.46.77-.9,1.15-1.33.38-.43.65-.72.79-.86.33-.33.77-.36,1.3-.07.29.19.71.55,1.26,1.08.55.53,1.12,1.04,1.69,1.55.58.5.96.88,1.15,1.12.43.43.59.86.47,1.3-.12.43-.42.65-.9.65h-20.74v12.46h19.01c.29,0,.55-.12.79-.36l.97-.97,1.55-1.55.94-.94c.34-.34.74-.36,1.22-.07.24.14.77.53,1.58,1.15.82.62,1.62,1.24,2.41,1.84.79.6,1.28,1,1.48,1.19.38.33.53.73.43,1.19-.1.46-.34.68-.72.68h-58.82c-1.58.05-2.86.17-3.82.36Z"/><path class="cls-2" d="m267.86,34.52c-1.06.05-1.75-.4-2.09-1.33-.34-.94-.05-1.86.86-2.77,1.3-1.39,2.24-3.31,2.84-5.76.6-2.45.85-5.06.76-7.85.43-.58.91-.65,1.44-.22.77,3.02,1.19,5.88,1.26,8.57.07,2.69-.28,4.9-1.04,6.62-.77,1.73-2.11,2.64-4.03,2.74Zm9.5,31.1c-1.01,0-1.51-.41-1.51-1.22,0-.19.02-.92.07-2.2.05-1.27.11-2.92.18-4.93.07-2.02.13-4.26.18-6.73.05-2.47.1-5.02.14-7.63.05-2.62.07-5.1.07-7.45V4.86c0-1.68-.17-2.81-.5-3.38-.24-.24-.24-.5,0-.79.14-.14.36-.19.65-.14.77.14,1.84.36,3.2.65,1.37.29,2.44.55,3.2.79.48.14.67.43.58.86,0,.43-.24.7-.72.79-.53.05-1.04.14-1.55.29s-.76.58-.76,1.3v30.31c0,3.07.02,6.22.07,9.43.05,3.22.11,6.2.18,8.96.07,2.76.13,5.04.18,6.84.05,1.8.07,2.84.07,3.13,0,.38-.4.77-1.19,1.15-.79.38-1.65.58-2.56.58Zm11.09-40.1c-.43.05-.88-.05-1.33-.29-.46-.24-.78-.84-.97-1.8-.24-1.68-.7-3.47-1.37-5.36-.67-1.9-1.61-3.52-2.81-4.86,0-.72.34-1.08,1.01-1.08,1.68.91,3.22,2.1,4.61,3.56,1.39,1.46,2.33,3.01,2.81,4.64.38,1.2.38,2.32,0,3.35-.38,1.03-1.03,1.64-1.94,1.84Zm-.79,37.51l-.58-3.1c1.2.29,2.66.48,4.39.58h16.27v-19.37h-11.16c-1.58.05-2.86.17-3.82.36l-.58-3.1c1.2.29,2.66.48,4.39.58h11.16v-16.34h-10.73c-1.44,3.12-3.01,6.1-4.72,8.93-1.7,2.83-3.35,5.3-4.93,7.42-.67.14-1.1-.12-1.3-.79,1.1-1.82,2.22-3.98,3.35-6.48,1.13-2.5,2.2-5.12,3.2-7.88,1.01-2.76,1.88-5.47,2.63-8.14.74-2.66,1.26-5.08,1.55-7.24.05-.43.06-.82.04-1.15-.02-.33-.06-.62-.11-.86-.05-.53,0-.86.14-1.01.24-.14.5-.17.79-.07.48.14,1.15.38,2.02.72.86.34,1.73.66,2.59.97.86.31,1.56.59,2.09.83.38.19.53.53.43,1.01-.14.48-.43.67-.86.58-.77-.05-1.33-.01-1.69.11-.36.12-.59.44-.68.97-.43,1.63-.95,3.28-1.55,4.93-.6,1.66-1.26,3.32-1.98,5h9.72V4.86c0-1.78-.17-2.9-.5-3.38-.19-.29-.19-.55,0-.79.14-.14.38-.19.72-.14.53.1,1.22.23,2.09.4.86.17,1.74.34,2.63.5.89.17,1.6.32,2.12.47.38.1.58.38.58.86-.05.43-.31.7-.79.79-.48.05-.98.14-1.51.29-.53.14-.79.6-.79,1.37v15.26h8.64c.34,0,.6-.1.79-.29.24-.29.7-.82,1.37-1.58.67-.77,1.13-1.3,1.37-1.58.38-.38.82-.38,1.3,0,.48.34,1.18.92,2.09,1.76.91.84,1.58,1.48,2.02,1.91.43.48.59.92.47,1.33-.12.41-.42.61-.9.61h-17.14v16.34h7.85c.34,0,.6-.1.79-.29.24-.29.7-.82,1.37-1.58.67-.77,1.13-1.3,1.37-1.58.38-.38.82-.38,1.3,0,.53.34,1.23.92,2.12,1.76.89.84,1.57,1.48,2.05,1.91.38.48.53.92.43,1.33-.1.41-.41.61-.94.61h-16.34v19.37h9.86c.48,0,.84-.14,1.08-.43.24-.38.67-.95,1.3-1.69.62-.74,1.06-1.28,1.3-1.62.34-.43.79-.46,1.37-.07.38.24.89.64,1.51,1.19.62.55,1.26,1.1,1.91,1.66.65.55,1.12.97,1.4,1.26.38.38.53.79.43,1.22-.1.43-.36.65-.79.65h-40.18c-1.58.05-2.86.17-3.82.36Z"/><path class="cls-1" d="m22.03,56.07c-3.22,0-6.2-1.05-8.93-3.15-2.73-2.1-4.94-5.18-6.62-9.26-1.68-4.07-2.52-9.08-2.52-15.04s.84-10.96,2.52-15.04c1.68-4.07,3.89-7.16,6.62-9.26,2.73-2.1,5.71-3.15,8.93-3.15s6.19,1.05,8.93,3.15c2.73,2.1,4.94,5.18,6.62,9.26,1.68,4.07,2.52,9.09,2.52,15.04s-.84,10.96-2.52,15.04c-1.68,4.07-3.89,7.16-6.62,9.26-2.73,2.1-5.71,3.15-8.93,3.15Zm0-3.22c2.83,0,5.01-1.04,6.55-3.11,1.54-2.07,2.62-4.93,3.26-8.56.63-3.63.95-7.82.95-12.55s-.32-8.91-.95-12.55c-.63-3.63-1.72-6.49-3.26-8.56-1.54-2.07-3.72-3.11-6.55-3.11s-4.95,1.04-6.51,3.11c-1.56,2.07-2.66,4.94-3.29,8.6-.63,3.66-.95,7.83-.95,12.51s.32,8.85.95,12.51c.63,3.66,1.73,6.52,3.29,8.6,1.56,2.07,3.73,3.11,6.51,3.11Z"/><path class="cls-1" d="m65.5,56.07c-4.44,0-7.98-.76-10.61-2.27-2.63-1.51-3.95-3.34-3.95-5.49,0-.98.29-1.83.88-2.56.58-.73,1.41-1.1,2.49-1.1.73,0,1.36.22,1.9.66.54.44,1.05,1.22,1.54,2.34.63,1.42,1.61,2.56,2.93,3.44.68.49,1.43.87,2.23,1.13.8.27,1.67.4,2.6.4,2.73,0,4.93-.63,6.59-1.9,1.66-1.27,2.88-2.83,3.66-4.68.78-1.85,1.17-3.61,1.17-5.27,0-2.34-.35-4.27-1.06-5.78-.71-1.51-1.59-2.67-2.63-3.48-1.05-.81-2.11-1.37-3.18-1.68-1.07-.32-2-.48-2.78-.48-.93,0-2,.04-3.22.11-1.22.07-2.02.11-2.41.11-1.17,0-1.76-.68-1.76-2.05s.59-2.12,1.76-2.12c.54,0,1.22.01,2.05.04.83.02,1.58.04,2.27.04.54,0,1.32-.24,2.34-.73,1.02-.49,2.07-1.24,3.15-2.27,1.07-1.02,1.99-2.32,2.74-3.88.76-1.56,1.13-3.41,1.13-5.56,0-2.88-.88-5.04-2.63-6.48-1.76-1.44-3.78-2.16-6.07-2.16-1.66,0-3.26.37-4.79,1.1-1.54.73-2.65,1.93-3.33,3.59-.34.83-.46,1.55-.37,2.16.1.61.22,1.16.37,1.65.05.24.1.48.15.7.05.22.07.43.07.62,0,1.02-.38,1.83-1.13,2.41-.76.59-1.55.88-2.38.88-1.02,0-1.83-.37-2.41-1.1-.59-.73-.94-1.65-1.06-2.74-.12-1.1-.06-2.23.18-3.4.54-2,1.57-3.67,3.11-5.01,1.54-1.34,3.39-2.35,5.56-3.04,2.17-.68,4.4-1.02,6.7-1.02,3.02,0,5.63.56,7.83,1.68,2.19,1.12,3.9,2.59,5.12,4.39,1.22,1.81,1.83,3.78,1.83,5.93,0,3.12-1.1,5.89-3.29,8.3-2.2,2.42-4.9,4.18-8.12,5.31-.2.05-.28.16-.26.33.02.17.16.26.4.26,2.49,0,4.74.6,6.77,1.79,2.02,1.2,3.63,2.81,4.83,4.83,1.19,2.02,1.79,4.26,1.79,6.7,0,3.32-.89,6.12-2.67,8.41-1.78,2.29-4.1,4.02-6.95,5.2-2.85,1.17-5.87,1.76-9.04,1.76Z"/><rect class="cls-1" y="69.32" width="84.65" height="1"/></g></svg>