<?xml version="1.0" encoding="UTF-8"?><svg id="_レイヤー_2" xmlns="http://www.w3.org/2000/svg" viewBox="0 0 46 171"><defs><style>.cls-1{fill:#a0b4d2;}.cls-2{fill:#1a3d70;}</style></defs><g id="design"><path class="cls-2" d="m7.22,56.33l-.32-1.72c.67.16,1.48.27,2.44.32h13.96v-2.88c0-.93-.09-1.56-.28-1.88-.13-.13-.13-.28,0-.44.05-.11.17-.13.36-.08.32.03.74.09,1.26.2.52.11,1.05.21,1.58.32.53.11.95.2,1.24.28.21.08.32.24.32.48-.03.27-.17.4-.44.4-.29.03-.58.09-.86.18-.28.09-.42.34-.42.74v2.68h10.12c.21,0,.35-.07.4-.2.08-.08.27-.26.56-.54.29-.28.58-.57.86-.86.28-.29.45-.47.5-.52.21-.19.45-.2.72-.04.13.08.43.29.88.64.45.35.9.69,1.34,1.02.44.33.71.55.82.66.21.19.29.41.24.66-.05.25-.19.38-.4.38H9.34c-.88.03-1.59.09-2.12.2Zm2.32,29.49c-.21,0-.41-.05-.58-.14-.17-.09-.26-.29-.26-.58,0-.16.01-.65.04-1.46.03-.81.07-1.83.12-3.06.05-1.23.09-2.57.12-4.02.03-1.45.04-2.9.04-4.34,0-1.07-.02-1.89-.06-2.46-.04-.57-.09-.99-.14-1.26-.05-.27-.13-.49-.24-.68-.08-.13-.05-.27.08-.4.11-.11.25-.12.44-.04.32.16.81.42,1.46.78.65.36,1.17.65,1.54.86h24.84c.19,0,.32-.07.4-.2.13-.16.33-.38.58-.66.25-.28.46-.51.62-.7.19-.27.44-.28.76-.04.32.19.76.51,1.32.96.56.45,1,.83,1.32,1.12.29.29.24.56-.16.8-.19.11-.39.22-.62.34-.23.12-.42.22-.58.3-.11.05-.19.11-.24.16s-.08.17-.08.36c0,.91.01,1.89.04,2.94.03,1.05.05,2.07.06,3.04.01.97.03,1.81.06,2.5.03.69.04,1.12.04,1.28,0,1.07-.27,1.97-.82,2.7-.55.73-1.61,1.37-3.18,1.9-.29-.77-.6-1.38-.92-1.82-.32-.44-.73-.78-1.24-1.02-.51-.24-1.23-.43-2.16-.56-.24-.35-.2-.61.12-.8.24,0,.61.02,1.1.06.49.04,1.03.07,1.6.1.57.03,1.09.04,1.54.04.43,0,.72-.1.88-.3.16-.2.24-.5.24-.9v-10.4H11.66v14.76c0,.21-.24.41-.72.58-.48.17-.95.26-1.4.26Zm6.36-18.24c-.48,0-.72-.2-.72-.6,0-.35.04-1.07.12-2.16.08-1.09.12-2.33.12-3.72,0-.85-.02-1.46-.06-1.82-.04-.36-.13-.71-.26-1.06-.11-.13-.09-.27.04-.4.13-.13.28-.15.44-.04.29.13.74.36,1.34.68.6.32,1.1.59,1.5.8h11.72c.16,0,.29-.05.4-.16l.62-.62c.25-.25.46-.47.62-.66.13-.13.25-.2.34-.2s.23.08.42.24c.24.19.61.48,1.1.88.49.4.87.73,1.14,1,.35.29.29.55-.16.76-.13.08-.27.15-.42.22-.15.07-.29.14-.42.22-.21.11-.32.29-.32.56,0,.56.02,1.18.06,1.86.04.68.08,1.28.12,1.8s.06.85.06.98c0,.35-.26.61-.78.8-.52.19-.98.28-1.38.28-.51,0-.76-.2-.76-.6v-1h-12.8v.92c0,.27-.21.51-.64.72-.43.21-.91.32-1.44.32Zm1.96,15.04c-.48,0-.72-.21-.72-.64,0-.24.02-.73.06-1.46.04-.73.07-1.59.1-2.58.03-.99.04-1.96.04-2.92s-.01-1.6-.04-1.92c-.03-.32-.11-.63-.24-.92v-.04c-.05-.16-.03-.28.08-.36.13-.13.28-.15.44-.04.29.16.75.41,1.36.76.61.35,1.11.63,1.48.84h7.6c.19,0,.33-.05.44-.16.19-.21.39-.44.62-.68.23-.24.42-.44.58-.6.24-.24.49-.25.76-.04.27.19.65.49,1.16.92.51.43.89.76,1.16,1,.29.29.25.57-.12.84-.16.08-.32.17-.48.26-.16.09-.32.18-.48.26-.21.11-.32.27-.32.48,0,.43.02,1,.06,1.72.04.72.07,1.39.1,2,.03.61.04.99.04,1.12,0,.29-.25.55-.74.76-.49.21-.93.32-1.3.32-.51,0-.76-.2-.76-.6v-1.32h-8.84v2.04c0,.27-.22.49-.66.68-.44.19-.9.28-1.38.28Zm.12-18.2h12.8v-3.96h-12.8v3.96Zm1.92,14h8.84v-3.88h-8.84v3.88Z"/><path class="cls-2" d="m9.34,127.47c-.45,0-.68-.19-.68-.56,0-.16.01-.63.04-1.42.03-.79.06-1.75.1-2.88.04-1.13.07-2.31.1-3.54.03-1.23.04-2.36.04-3.4s-.01-1.84-.04-2.4c-.03-.56-.07-.99-.14-1.28-.07-.29-.15-.56-.26-.8-.08-.13-.05-.27.08-.4s.28-.15.44-.04c.27.13.71.38,1.32.74.61.36,1.11.65,1.48.86h6.16c.19,0,.33-.05.44-.16.19-.19.43-.44.72-.76.29-.32.52-.56.68-.72.24-.24.53-.24.88,0,.16.11.41.31.76.62.35.31.7.61,1.06.9.36.29.61.51.74.64.13.11.19.24.18.4-.01.16-.13.28-.34.36-.24.11-.45.21-.64.3-.19.09-.37.19-.56.3-.11.03-.19.08-.24.16-.05.08-.08.25-.08.52,0,.91.01,1.94.04,3.1.03,1.16.06,2.29.1,3.38.04,1.09.07,2.01.1,2.76.03.75.04,1.16.04,1.24,0,.27-.25.52-.74.76-.49.24-.98.36-1.46.36-.51,0-.76-.21-.76-.64v-1.32h-7.36v1.88c0,.21-.21.44-.64.68-.43.24-.95.36-1.56.36Zm2.2-4.12h7.36v-9.8h-7.36v9.8Zm4.24-14.48c-.19,0-.35-.05-.5-.14-.15-.09-.22-.29-.22-.58,0-.24.03-.89.08-1.96.05-1.07.11-2.37.16-3.92.05-1.55.08-3.15.08-4.8,0-1.12-.04-1.96-.12-2.52-.08-.56-.19-1-.32-1.32-.08-.19-.07-.33.04-.44.11-.11.27-.12.48-.04.19.08.47.23.84.46.37.23.76.45,1.16.68.4.23.73.42,1,.58h11.92c.27,0,.45-.05.56-.16.19-.19.43-.44.72-.76.29-.32.52-.56.68-.72.21-.24.49-.24.84,0,.13.08.39.27.76.56.37.29.74.59,1.1.9.36.31.61.53.74.66.35.29.31.56-.12.8-.21.11-.43.21-.64.3-.21.09-.41.19-.6.3-.11.05-.19.12-.24.2-.05.08-.08.25-.08.52,0,.83.01,1.75.04,2.78.03,1.03.07,2.02.12,2.98.05.96.09,1.77.12,2.44.03.67.04,1.04.04,1.12,0,.27-.21.51-.64.74-.43.23-.96.34-1.6.34-.51,0-.76-.2-.76-.6v-1h-13.4v1.56c0,.21-.22.44-.66.68-.44.24-.97.36-1.58.36Zm2.24-3.8h13.4v-8.96h-13.4v8.96Zm9.52,22.41c-.53,0-.8-.2-.8-.6,0-.16.01-.62.04-1.38.03-.76.07-1.68.12-2.76.05-1.08.09-2.22.12-3.42.03-1.2.04-2.33.04-3.4,0-1.57-.03-2.67-.1-3.28-.07-.61-.18-1.09-.34-1.44-.11-.13-.09-.27.04-.4s.28-.15.44-.04c.32.16.77.41,1.36.76.59.35,1.07.63,1.44.84h6.52c.27,0,.45-.05.56-.16.16-.19.39-.45.68-.78.29-.33.51-.57.64-.7.24-.27.52-.27.84,0,.16.11.43.31.8.6.37.29.75.59,1.12.9.37.31.63.53.76.66.19.13.27.27.24.42-.03.15-.15.26-.36.34-.21.11-.43.21-.64.3-.21.09-.41.19-.6.3-.11.03-.19.08-.24.16-.05.08-.08.25-.08.52,0,.88.01,1.89.04,3.04.03,1.15.06,2.27.1,3.36.04,1.09.07,2.02.1,2.78.03.76.04,1.18.04,1.26,0,.27-.21.53-.62.78-.41.25-.94.38-1.58.38-.51,0-.76-.21-.76-.64v-1.32h-7.8v1.88c0,.21-.2.44-.6.68-.4.24-.91.36-1.52.36Zm2.12-4.12h7.8v-9.8h-7.8v9.8Z"/><path class="cls-2" d="m6.94,151.59c-.19,0-.33-.06-.44-.18-.11-.12-.15-.26-.12-.42,1.01-1.17,1.79-2.32,2.32-3.44.53-1.12.9-2.39,1.1-3.82.2-1.43.3-3.17.3-5.22,0-.61-.03-1.1-.08-1.46-.05-.36-.13-.67-.24-.94-.11-.13-.09-.27.04-.4.13-.13.29-.15.48-.04.29.19.73.46,1.3.82.57.36,1.02.65,1.34.86,1.25-.21,2.53-.51,3.84-.9,1.31-.39,2.35-.77,3.12-1.14.45-.21.71-.4.76-.56.05-.16.15-.25.28-.28.13-.05.27-.01.4.12.29.29.69.72,1.18,1.28.49.56.87.99,1.14,1.28.16.19.15.37-.04.56-.16.27-.35.29-.56.08-.29-.19-.57-.29-.82-.3-.25-.01-.57,0-.94.06-.83.11-1.77.21-2.82.3-1.05.09-2.1.17-3.14.24-1.04.07-1.99.11-2.84.14v.72c-.03.4-.04.79-.04,1.16s-.03.75-.08,1.12h7.96c.19,0,.33-.05.44-.16.13-.16.34-.39.62-.7.28-.31.49-.53.62-.66.19-.21.44-.23.76-.04.24.19.55.46.92.82.37.36.69.67.96.94.21.21.29.43.22.66-.07.23-.21.34-.42.34h-5.08c0,1.33.02,2.5.06,3.5s.06,1.65.06,1.94c0,.19-.17.39-.5.62s-.75.34-1.26.34c-.56,0-.84-.17-.84-.52,0-.21.01-.84.04-1.88.03-1.04.05-2.37.08-4h-4.76c-.24,1.79-.76,3.42-1.56,4.9s-2.05,2.9-3.76,4.26Zm-.04,19.33c-.13-.11-.22-.24-.26-.4-.04-.16,0-.29.1-.4,1.17-.32,2.47-.75,3.88-1.28,1.41-.53,2.79-1.13,4.12-1.8,1.33-.67,2.47-1.35,3.4-2.04.35-.27.56-.53.64-.78.08-.25.19-.41.32-.46.11-.03.24.01.4.12.32.27.76.67,1.32,1.2.56.53,1,.96,1.32,1.28.19.19.2.37.04.56-.16.24-.35.29-.56.16-.35-.16-.62-.23-.82-.22-.2.01-.47.09-.82.22-1.25.59-2.67,1.14-4.26,1.66-1.59.52-3.16.97-4.72,1.34-1.56.37-2.93.65-4.1.84Zm7.72-5.64c-.56,0-.84-.2-.84-.6,0-.16.02-.8.06-1.92s.08-2.58.12-4.38c.04-1.8.06-3.77.06-5.9,0-1.17-.04-1.98-.12-2.42-.08-.44-.19-.79-.32-1.06-.05-.19-.03-.33.08-.44.13-.11.28-.12.44-.04.19.08.47.23.86.44.39.21.77.42,1.16.62.39.2.69.37.9.5h15.16c.21,0,.36-.05.44-.16.13-.13.32-.33.56-.6.24-.27.43-.48.56-.64.24-.27.51-.28.8-.04.16.13.39.33.68.58.29.25.59.51.88.78s.51.47.64.6c.32.32.29.57-.08.76-.27.13-.56.28-.88.44-.27.13-.4.36-.4.68,0,.85.01,1.87.04,3.06.03,1.19.07,2.37.12,3.54.05,1.17.09,2.18.12,3.02.03.84.04,1.34.04,1.5,0,.24-.2.46-.6.66s-.87.3-1.4.3-.76-.2-.76-.6v-.56h-16.48v.96c0,.19-.19.39-.56.6-.37.21-.8.32-1.28.32Zm1.84-11.2h16.48v-2.8h-16.48v2.8Zm0,3.96h16.48v-2.76h-16.48v2.76Zm0,4.16h16.48v-2.96h-16.48v2.96Zm4.8-12.84c-.4-.08-.55-.32-.44-.72,1.25-.72,2.31-1.52,3.16-2.4.85-.88,1.49-1.94,1.92-3.18.43-1.24.64-2.75.64-4.54,0-.61-.03-1.1-.08-1.46-.05-.36-.15-.67-.28-.94-.11-.16-.08-.29.08-.4.13-.13.28-.15.44-.04.32.19.77.46,1.36.82.59.36,1.04.65,1.36.86,1.28-.21,2.62-.5,4.02-.86,1.4-.36,2.54-.75,3.42-1.18.45-.24.71-.43.78-.58.07-.15.15-.23.26-.26.13-.05.27-.01.4.12.29.29.69.72,1.18,1.28.49.56.87.99,1.14,1.28.16.19.15.37-.04.56-.16.24-.36.27-.6.08-.27-.19-.53-.29-.78-.3-.25-.01-.57,0-.94.06-.85.11-1.84.21-2.96.3-1.12.09-2.23.17-3.34.24-1.11.07-2.1.11-2.98.14,0,.56-.02,1.09-.06,1.58-.04.49-.11.97-.22,1.42h9.56c.19,0,.33-.05.44-.16.13-.16.34-.39.62-.7.28-.31.49-.53.62-.66.19-.21.44-.23.76-.04.24.19.55.46.92.82.37.36.69.67.96.94.21.21.29.43.22.66-.07.23-.21.34-.42.34h-7.8c.03,1.31.05,2.37.08,3.2.03.83.04,1.39.04,1.68,0,.19-.16.39-.48.62s-.73.34-1.24.34c-.56,0-.84-.19-.84-.56,0-.21.01-.81.04-1.8.03-.99.04-2.15.04-3.48h-3.8c-.56,1.89-1.47,3.37-2.74,4.42-1.27,1.05-2.74,1.89-4.42,2.5Zm17.84,21.33c-.4.45-.89.43-1.48-.08-.8-.67-1.77-1.34-2.9-2.02-1.13-.68-2.33-1.33-3.58-1.94-1.25-.61-2.49-1.15-3.72-1.6-.16-.35-.08-.61.24-.8,1.17.21,2.43.49,3.76.82,1.33.33,2.59.69,3.78,1.08,1.19.39,2.11.79,2.78,1.22.83.51,1.29,1.11,1.4,1.82.11.71.01,1.21-.28,1.5Z"/><path class="cls-1" d="m12.28,30.01c-1.76,0-3.39-.57-4.88-1.72-1.49-1.15-2.7-2.83-3.62-5.06-.92-2.23-1.38-4.97-1.38-8.22s.46-5.99,1.38-8.22c.92-2.23,2.13-3.91,3.62-5.06,1.49-1.15,3.12-1.72,4.88-1.72s3.39.57,4.88,1.72c1.49,1.15,2.7,2.83,3.62,5.06.92,2.23,1.38,4.97,1.38,8.22s-.46,6-1.38,8.22c-.92,2.23-2.13,3.91-3.62,5.06-1.49,1.15-3.12,1.72-4.88,1.72Zm0-1.76c1.55,0,2.74-.57,3.58-1.7.84-1.13,1.43-2.69,1.78-4.68.35-1.99.52-4.27.52-6.86s-.17-4.87-.52-6.86c-.35-1.99-.94-3.55-1.78-4.68-.84-1.13-2.03-1.7-3.58-1.7s-2.71.57-3.56,1.7c-.85,1.13-1.45,2.7-1.8,4.7-.35,2-.52,4.28-.52,6.84s.17,4.84.52,6.84c.35,2,.95,3.57,1.8,4.7.85,1.13,2.04,1.7,3.56,1.7Z"/><path class="cls-1" d="m30.2,29.53c-.24-.21-.35-.45-.34-.72.01-.27.13-.49.34-.68.88-.11,1.69-.23,2.42-.36.73-.13,1.32-.36,1.76-.68s.66-.79.66-1.4V5c0-.75-.15-1.31-.44-1.68-.29-.37-1.03-.56-2.2-.56h-1.72c-.24-.21-.35-.45-.34-.72.01-.27.13-.49.34-.68.51-.03,1.12-.08,1.84-.16.72-.08,1.43-.2,2.12-.36.69-.16,1.25-.36,1.68-.6.29-.16.72-.24,1.28-.24.27,0,.5.05.7.14.2.09.3.25.3.46v25.09c0,.93.45,1.54,1.34,1.82.89.28,2.01.49,3.34.62.21.19.32.41.32.68s-.11.51-.32.72h-13.08Z"/><rect class="cls-1" y="36.66" width="46" height="1"/></g></svg>