<?xml version="1.0" encoding="UTF-8"?><svg id="_レイヤー_2" xmlns="http://www.w3.org/2000/svg" viewBox="0 0 338.6 70.02"><defs><style>.cls-1{fill:#a0b4d2;}.cls-2{fill:#1a3d70;}</style></defs><g id="design"><path class="cls-2" d="m124.69,12.26l-.58-3.1c1.2.29,2.66.48,4.39.58h25.13v-5.18c0-1.68-.17-2.81-.5-3.38-.24-.24-.24-.5,0-.79.1-.19.31-.24.65-.14.58.05,1.33.17,2.27.36.94.19,1.88.38,2.84.58.96.19,1.7.36,2.23.5.38.14.58.43.58.86-.05.48-.31.72-.79.72-.53.05-1.04.16-1.55.32-.5.17-.76.61-.76,1.33v4.82h18.22c.38,0,.62-.12.72-.36.14-.14.48-.47,1.01-.97s1.04-1.02,1.55-1.55c.5-.53.8-.84.9-.94.38-.34.81-.36,1.29-.07.24.14.77.53,1.58,1.15.82.62,1.62,1.24,2.41,1.84.79.6,1.28,1,1.48,1.19.38.34.53.73.43,1.19-.1.46-.34.68-.72.68h-58.97c-1.58.05-2.86.17-3.82.36Zm4.18,53.06c-.38,0-.73-.08-1.04-.25-.31-.17-.47-.52-.47-1.04,0-.29.02-1.16.07-2.63.05-1.46.12-3.3.22-5.51.1-2.21.17-4.62.22-7.24.05-2.62.07-5.22.07-7.81,0-1.92-.04-3.4-.11-4.43-.07-1.03-.16-1.79-.25-2.27-.1-.48-.24-.89-.43-1.22-.14-.24-.1-.48.14-.72.19-.19.46-.22.79-.07.58.29,1.45.76,2.63,1.4s2.1,1.16,2.77,1.55h44.71c.34,0,.58-.12.72-.36.24-.29.59-.68,1.04-1.19.46-.5.83-.92,1.12-1.26.33-.48.79-.5,1.37-.07.58.34,1.37.91,2.38,1.73,1.01.82,1.8,1.49,2.38,2.02.53.53.43,1.01-.29,1.44-.34.19-.71.4-1.12.61-.41.22-.76.4-1.04.54-.19.1-.34.19-.43.29s-.14.31-.14.65c0,1.63.02,3.4.07,5.29.05,1.9.08,3.72.11,5.47.02,1.75.06,3.25.11,4.5.05,1.25.07,2.02.07,2.3,0,1.92-.49,3.54-1.48,4.86-.98,1.32-2.89,2.46-5.72,3.42-.53-1.39-1.08-2.48-1.66-3.28s-1.32-1.4-2.23-1.84c-.91-.43-2.21-.77-3.89-1.01-.43-.62-.36-1.1.22-1.44.43,0,1.09.04,1.98.11.89.07,1.85.13,2.88.18,1.03.05,1.96.07,2.77.07.77,0,1.3-.18,1.58-.54.29-.36.43-.9.43-1.62v-18.72h-46.73v26.57c0,.38-.43.73-1.3,1.04-.86.31-1.7.47-2.52.47Zm11.45-32.83c-.86,0-1.3-.36-1.3-1.08,0-.62.07-1.92.22-3.89.14-1.97.22-4.2.22-6.7,0-1.54-.04-2.63-.11-3.28s-.23-1.28-.47-1.91c-.19-.24-.17-.48.07-.72.24-.24.5-.26.79-.07.53.24,1.33.65,2.41,1.22,1.08.58,1.98,1.06,2.7,1.44h21.1c.29,0,.53-.1.72-.29.29-.29.66-.66,1.12-1.12.46-.46.83-.85,1.12-1.19.24-.24.44-.36.61-.36s.42.14.76.43c.43.34,1.09.86,1.98,1.58.89.72,1.57,1.32,2.05,1.8.62.53.53.98-.29,1.37-.24.14-.49.28-.76.4-.26.12-.52.25-.76.4-.38.19-.58.53-.58,1.01,0,1.01.04,2.12.11,3.35.07,1.22.14,2.3.22,3.24.07.94.11,1.52.11,1.76,0,.62-.47,1.1-1.4,1.44-.94.34-1.76.5-2.48.5-.91,0-1.37-.36-1.37-1.08v-1.8h-23.04v1.66c0,.48-.38.91-1.15,1.3s-1.63.58-2.59.58Zm3.53,27.07c-.86,0-1.3-.38-1.3-1.15,0-.43.04-1.31.11-2.63.07-1.32.13-2.87.18-4.64.05-1.78.07-3.53.07-5.26s-.03-2.88-.07-3.46c-.05-.58-.19-1.13-.43-1.66v-.07c-.1-.29-.05-.5.14-.65.24-.24.5-.26.79-.07.53.29,1.34.75,2.45,1.37,1.1.62,1.99,1.13,2.66,1.51h13.68c.34,0,.6-.1.79-.29.33-.38.71-.79,1.12-1.22s.76-.79,1.04-1.08c.43-.43.89-.46,1.37-.07.48.34,1.18.89,2.09,1.66.91.77,1.61,1.37,2.09,1.8.53.53.46,1.03-.21,1.51-.29.14-.58.3-.87.47-.29.17-.58.32-.86.47-.38.19-.58.48-.58.86,0,.77.04,1.8.11,3.1.07,1.3.13,2.5.18,3.6.05,1.1.07,1.78.07,2.02,0,.53-.44.98-1.33,1.37-.89.38-1.67.58-2.34.58-.91,0-1.37-.36-1.37-1.08v-2.38h-15.91v3.67c0,.48-.4.89-1.19,1.22-.79.34-1.62.5-2.48.5Zm.22-32.76h23.04v-7.13h-23.04v7.13Zm3.46,25.2h15.91v-6.98h-15.91v6.98Z"/><path class="cls-2" d="m207.2,65.32c-1.34.1-2.21-.08-2.59-.54-.38-.46-.58-1.12-.58-1.98,0-.19.01-.43.04-.72s.04-.6.04-.94c.1-1.3.17-2.92.22-4.86s-.12-3.68-.5-5.22c-.38-1.58-1-2.6-1.84-3.06-.84-.46-2.1-.83-3.78-1.12-.43-.67-.34-1.18.29-1.51.96.05,1.88.02,2.77-.07.89-.1,1.67-.48,2.34-1.15.53-.58,1.22-1.61,2.09-3.1.86-1.49,1.8-3.2,2.81-5.15,1.01-1.94,2.02-3.96,3.02-6.05s1.94-4.07,2.81-5.94c.86-1.87,1.59-3.43,2.2-4.68.6-1.25.95-2.02,1.04-2.3.62-.33,1.08-.14,1.37.58-.1.19-.44,1.01-1.04,2.45-.6,1.44-1.34,3.23-2.23,5.36-.89,2.14-1.83,4.43-2.81,6.88-.98,2.45-1.92,4.8-2.81,7.06-.89,2.26-1.62,4.19-2.2,5.8-.58,1.61-.89,2.68-.94,3.2-.19,1.58-.03,3.22.5,4.9.53,1.68,1.05,3.26,1.58,4.75.29.72.54,1.4.76,2.05.22.65.37,1.21.47,1.69.43,2.16-.58,3.38-3.02,3.67Zm.72-37.37c-.96.53-1.78.07-2.45-1.37-.82-1.54-1.83-3.05-3.02-4.54-1.2-1.49-2.54-2.76-4.03-3.82-.19-.72.05-1.15.72-1.3,1.82.53,3.61,1.25,5.36,2.16,1.75.91,3.04,1.99,3.85,3.24.82,1.2,1.14,2.34.97,3.42-.17,1.08-.64,1.81-1.4,2.2Zm6.19-15.19c-.38.29-.78.41-1.19.36-.41-.05-.88-.46-1.4-1.22-2.69-3.89-5.71-6.67-9.07-8.35-.24-.62-.05-1.08.58-1.37,1.87.38,3.83.97,5.87,1.76,2.04.79,3.73,1.93,5.08,3.42.87.96,1.26,2,1.19,3.13-.07,1.13-.42,1.88-1.04,2.27Zm-1.15,52.63c-.72,0-1.08-.34-1.08-1.01,1.73-2.21,3.13-4.51,4.21-6.91,1.08-2.4,1.87-5.27,2.38-8.6.5-3.34.76-7.52.76-12.56,0-2.5-.05-4.37-.14-5.62-.1-1.25-.34-2.26-.72-3.02-.1-.33-.05-.6.14-.79.24-.19.5-.22.79-.07.53.29,1.37.72,2.52,1.3s2.04,1.03,2.66,1.37h30.38c.34,0,.6-.1.79-.29.14-.19.41-.49.79-.9.38-.41.77-.83,1.15-1.26.38-.43.65-.74.79-.94.33-.38.74-.41,1.22-.07.53.34,1.25.92,2.16,1.76.91.84,1.58,1.5,2.02,1.98.43.43.59.86.47,1.3-.12.43-.42.65-.9.65h-39.89v9.22c0,.72-.05,1.42-.14,2.09h30.38c.29,0,.55-.12.79-.36.24-.29.6-.71,1.08-1.26.48-.55.81-.95,1.01-1.19.33-.43.79-.46,1.37-.07.53.34,1.2.84,2.02,1.51.82.67,1.46,1.22,1.94,1.66.38.34.53.73.43,1.19-.1.46-.34.68-.72.68h-20.81c.91,1.49,1.92,2.86,3.02,4.1,1.1,1.25,2.28,2.38,3.53,3.38.77-.62,1.67-1.38,2.7-2.27,1.03-.89,1.81-1.72,2.34-2.48.48-.67.73-1.13.76-1.37.02-.24.18-.43.47-.58.19-.14.43-.1.72.14.62.43,1.33,1,2.12,1.69.79.7,1.5,1.31,2.12,1.84.29.24.31.58.07,1.01-.19.43-.53.55-1.01.36-.53-.24-.94-.35-1.22-.32-.29.02-.62.13-1.01.32-.91.38-1.99.84-3.24,1.37-1.25.53-2.38.98-3.38,1.37,2.4,1.63,4.97,2.9,7.7,3.82,2.74.91,5.57,1.56,8.5,1.94-1.49.48-2.75,1.16-3.78,2.05-1.03.89-1.76,1.84-2.2,2.84-2.35-1.15-4.55-2.38-6.59-3.67-2.04-1.3-4-2.86-5.87-4.68-1.68.67-3.73,1.44-6.16,2.3-2.42.86-4.86,1.68-7.31,2.45-2.45.77-4.56,1.37-6.34,1.8-.48.14-.8.33-.97.58-.17.24-.16.65.04,1.22.1.53-.07.86-.5,1.01-.43.19-.77.1-1.01-.29-.24-.43-.59-1.01-1.04-1.73-.46-.72-.9-1.45-1.33-2.2-.43-.74-.79-1.33-1.08-1.76-.19-.33-.19-.6,0-.79.14-.14.55-.19,1.22-.14.24,0,.54.01.9.04.36.02.76.01,1.19-.04.96-.1,1.99-.19,3.1-.29,1.1-.1,2.26-.24,3.46-.43v-12.6h-7.63c-.53,4.51-1.67,8.34-3.42,11.48-1.75,3.14-4,6.06-6.73,8.75Zm11.02-38.52c-.77,0-1.15-.36-1.15-1.08,0-.24.06-1.7.18-4.39.12-2.69.18-6.07.18-10.15,0-1.39-.06-2.47-.18-3.24-.12-.77-.3-1.42-.54-1.94-.1-.29-.05-.53.14-.72s.46-.22.79-.07c.38.19,1.07.54,2.05,1.04.98.5,1.79.95,2.41,1.33h5.4v-3.1c0-1.68-.17-2.81-.5-3.38-.24-.24-.24-.5,0-.79.14-.14.38-.19.72-.14.72.14,1.54.35,2.45.61.91.26,1.78.52,2.59.76.38.05.58.34.58.86-.05.48-.31.72-.79.72-.53.05-.9.16-1.12.32-.22.17-.32.61-.32,1.33v2.81h6.05v-3.02c0-1.77-.17-2.9-.5-3.38-.19-.29-.19-.55,0-.79.14-.14.38-.19.72-.14.77.1,1.61.28,2.52.54.91.26,1.75.52,2.52.76.48.14.67.43.58.86-.05.43-.31.7-.79.79-.48.05-.83.14-1.04.29-.22.14-.32.6-.32,1.37v2.74h5.54c.29,0,.55-.12.79-.36.24-.24.47-.49.68-.76.22-.26.44-.49.68-.68.34-.33.72-.33,1.15,0,.43.34,1.01.79,1.73,1.37.72.58,1.25,1.01,1.58,1.3.62.58.58,1.06-.14,1.44-.43.19-.82.38-1.15.58-.48.24-.72.6-.72,1.08,0,1.58.04,3.32.11,5.22.07,1.9.13,3.58.18,5.04.05,1.46.07,2.41.07,2.84,0,.38-.32.74-.97,1.08-.65.34-1.38.5-2.2.5-.72,0-1.08-.31-1.08-.94v-1.15h-25.78v1.22c0,.43-.36.78-1.08,1.04-.72.26-1.39.4-2.02.4Zm3.02,11.88l-.58-3.1c1.2.29,2.66.48,4.39.58h14.54c.34,0,.6-.1.79-.29.24-.29.61-.71,1.12-1.26.5-.55.85-.95,1.04-1.19.43-.43.89-.46,1.37-.07.43.34,1,.83,1.69,1.48s1.28,1.21,1.76,1.69c.38.38.51.78.4,1.19-.12.41-.37.61-.76.61h-21.96c-1.58.05-2.86.17-3.82.36Zm.07-23.83h6.19v-5.26h-6.19v5.26Zm0,7.2h6.19v-5.18h-6.19v5.18Zm7.92,34.92c1.92-.33,3.79-.69,5.62-1.08,1.82-.38,3.41-.77,4.75-1.15-1.2-1.25-2.37-2.68-3.49-4.28-1.13-1.61-2.24-3.4-3.35-5.36h-3.53v11.88Zm1.87-42.12h6.05v-5.26h-6.05v5.26Zm0,7.2h6.05v-5.18h-6.05v5.18Zm9.72-7.2h6.26v-5.26h-6.26v5.26Zm0,7.2h6.26v-5.18h-6.26v5.18Z"/><path class="cls-2" d="m273.51,65.32c-.34.05-.61-.01-.83-.18-.22-.17-.35-.4-.4-.68,1.44-2.21,2.71-4.61,3.82-7.2,1.1-2.59,2.03-5.56,2.77-8.89.74-3.34,1.31-7.22,1.69-11.66.38-4.44.58-9.61.58-15.52,0-3.7-.04-6.49-.11-8.39-.07-1.9-.18-3.25-.32-4.07-.14-.82-.31-1.44-.5-1.87-.14-.29-.1-.53.14-.72.24-.24.5-.26.79-.07.48.24,1.28.68,2.41,1.33,1.13.65,2.05,1.16,2.77,1.55h20.23v-4.61c0-1.68-.17-2.81-.5-3.38-.19-.29-.19-.55,0-.79.14-.14.38-.19.72-.14.82.1,1.94.31,3.38.65,1.44.34,2.62.62,3.53.86.48.14.67.43.58.86,0,.48-.24.72-.72.72-.53.05-1.04.16-1.55.32-.5.17-.76.61-.76,1.33v4.18h16.78c.33,0,.6-.1.79-.29.14-.14.44-.47.9-.97l1.37-1.51c.46-.5.73-.83.83-.97.43-.43.89-.48,1.37-.14.29.19.78.59,1.48,1.19.7.6,1.38,1.2,2.05,1.8.67.6,1.1,1,1.3,1.19.38.34.53.73.43,1.19-.1.46-.36.68-.79.68h-52.13v9.58h12.38v-3.74c0-.86-.04-1.51-.11-1.94-.07-.43-.2-.77-.4-1.01-.19-.34-.19-.6,0-.79.1-.19.33-.24.72-.14.77.1,1.86.3,3.28.61,1.42.31,2.58.59,3.49.83.43.14.6.43.5.86,0,.43-.24.7-.72.79-.53.05-1.04.16-1.55.32-.5.17-.76.61-.76,1.33v2.88h12.82v-3.31c0-1.68-.17-2.81-.5-3.38-.24-.29-.24-.55,0-.79.1-.19.31-.24.65-.14.81.1,1.93.3,3.35.61,1.42.31,2.56.59,3.42.83.48.14.67.46.58.94-.05.48-.31.72-.79.72-.48.05-.98.16-1.51.32-.53.17-.79.61-.79,1.33,0,.48.01.96.04,1.44.02.48.04.96.04,1.44h8.28c.33,0,.6-.1.79-.29.14-.14.44-.47.9-.97.46-.5.91-1.01,1.37-1.51s.73-.83.83-.97c.43-.43.89-.46,1.37-.07.29.19.78.59,1.48,1.19.7.6,1.38,1.19,2.05,1.76.67.58,1.1.96,1.3,1.15.38.34.53.74.43,1.22-.1.48-.34.72-.72.72h-18.07c.1,2.64.2,4.97.32,6.98.12,2.02.18,3.14.18,3.38,0,.62-.43,1.1-1.3,1.44-.86.34-1.63.5-2.3.5-.91,0-1.37-.38-1.37-1.15v-1.3h-12.82v1.3c0,.53-.46.98-1.37,1.37-.91.38-1.71.58-2.38.58-.34,0-.62-.1-.86-.29-.24-.19-.36-.55-.36-1.08,0-.48.06-1.79.18-3.92.12-2.14.2-4.74.25-7.81h-12.31v4.1c0,6.29-.47,11.76-1.4,16.42-.94,4.66-2.3,8.74-4.1,12.24-1.8,3.5-4,6.72-6.59,9.65Zm8.28.07c-.62-.43-.72-.94-.29-1.51,3.98-.72,8.15-1.85,12.49-3.38,4.34-1.54,8.46-3.62,12.35-6.26-2.06-1.73-3.92-3.73-5.58-6.01-1.66-2.28-3.11-4.93-4.36-7.96h-3.82c-1.58.05-2.86.17-3.82.36l-.58-3.1c1.2.29,2.66.48,4.39.58h26.5c.24,0,.42-.01.54-.04.12-.02.28-.13.47-.32l2.09-2.09c.29-.24.52-.37.68-.4.17-.02.42.11.76.4.58.48,1.38,1.1,2.41,1.87,1.03.77,1.79,1.42,2.27,1.94.38.38.46.79.22,1.22-.14.43-.53.65-1.15.65-.86,0-1.52.06-1.98.18-.46.12-.9.49-1.33,1.12-1.68,2.35-3.5,4.51-5.47,6.48-1.97,1.97-4.01,3.72-6.12,5.26,3.79,1.78,7.91,2.9,12.35,3.38,4.44.48,9.04.72,13.79.72-1.34.82-2.47,1.82-3.38,3.02-.91,1.2-1.54,2.23-1.87,3.1-4.27-.67-8.46-1.61-12.56-2.81-4.1-1.2-7.93-2.98-11.48-5.33-4.37,2.74-8.94,4.79-13.71,6.16-4.78,1.37-9.37,2.29-13.79,2.77Zm27.07-13.03c2.11-1.63,4.06-3.44,5.83-5.44,1.78-1.99,3.34-4.21,4.68-6.66h-20.95c1.39,2.78,2.96,5.16,4.71,7.13,1.75,1.97,3.66,3.62,5.72,4.97Zm-6.41-21.74h12.82v-7.7h-12.82v7.7Z"/><path class="cls-1" d="m19.99,55.76c-3.22,0-6.2-1.05-8.93-3.15-2.73-2.1-4.94-5.18-6.62-9.26-1.68-4.07-2.52-9.08-2.52-15.04s.84-10.96,2.52-15.04c1.68-4.07,3.89-7.16,6.62-9.26,2.73-2.1,5.71-3.15,8.93-3.15s6.19,1.05,8.93,3.15c2.73,2.1,4.94,5.18,6.62,9.26,1.68,4.07,2.52,9.09,2.52,15.04s-.84,10.96-2.52,15.04c-1.68,4.07-3.89,7.16-6.62,9.26-2.73,2.1-5.71,3.15-8.93,3.15Zm0-3.22c2.83,0,5.01-1.04,6.55-3.11,1.54-2.07,2.62-4.93,3.26-8.56.63-3.63.95-7.82.95-12.55s-.32-8.91-.95-12.55c-.63-3.63-1.72-6.49-3.26-8.56-1.54-2.07-3.72-3.11-6.55-3.11s-4.95,1.04-6.51,3.11c-1.56,2.07-2.66,4.94-3.29,8.6-.63,3.66-.95,7.83-.95,12.51s.32,8.85.95,12.51c.63,3.66,1.73,6.52,3.29,8.6,1.56,2.07,3.73,3.11,6.51,3.11Z"/><path class="cls-1" d="m50.14,54.88c-.83,0-1.24-.41-1.24-1.24v-2.27c0-1.17.62-2.56,1.87-4.17s2.85-3.4,4.83-5.38,4.06-4.07,6.26-6.29c2.19-2.22,4.28-4.52,6.26-6.91,1.98-2.39,3.58-4.82,4.83-7.28,1.24-2.46,1.87-4.89,1.87-7.28,0-1.85-.26-3.54-.77-5.05-.51-1.51-1.39-2.71-2.63-3.59-1.24-.88-2.99-1.32-5.23-1.32-2.73,0-4.94.61-6.62,1.83-1.68,1.22-2.52,3.05-2.52,5.49,0,.68.1,1.27.29,1.76.19.49.46,1,.8,1.54.34.49.51,1.02.51,1.61,0,1.07-.37,1.94-1.1,2.6-.73.66-1.63.99-2.71.99-.98,0-1.79-.37-2.45-1.1-.66-.73-1.16-1.63-1.5-2.71-.34-1.07-.51-2.12-.51-3.15,0-2.39.77-4.49,2.3-6.29,1.54-1.8,3.56-3.22,6.07-4.24,2.51-1.02,5.26-1.54,8.23-1.54,1.56,0,3.21.24,4.94.73,1.73.49,3.37,1.26,4.9,2.3,1.54,1.05,2.79,2.42,3.77,4.1.98,1.68,1.46,3.74,1.46,6.18,0,2-.55,4.06-1.65,6.18s-2.54,4.24-4.32,6.37c-1.78,2.12-3.7,4.2-5.74,6.22-2.05,2.02-4.06,3.94-6.04,5.74-1.98,1.81-3.71,3.45-5.2,4.94-1.49,1.49-2.52,2.74-3.11,3.77-.39,1.07-.17,1.61.66,1.61h18.8c1.32,0,2.17-.41,2.56-1.24.29-.54.68-1.29,1.17-2.27.49-.98.83-1.63,1.02-1.98.19-.34.51-.52.95-.55.44-.02.83.07,1.17.29.34.22.46.52.37.91l-2.71,9c-.2.59-.51,1.01-.95,1.28-.44.27-.9.4-1.39.4h-27.51Z"/><rect class="cls-1" y="69.02" width="84.65" height="1"/></g></svg>