<?xml version="1.0" encoding="UTF-8"?><svg id="_レイヤー_2" xmlns="http://www.w3.org/2000/svg" viewBox="0 0 331.72 69.83"><defs><style>.cls-1{fill:#a0b4d2;}.cls-2{fill:#1a3d70;}</style></defs><g id="design"><rect class="cls-1" y="68.83" width="84.65" height="1"/><path class="cls-1" d="m22.03,55.58c-3.22,0-6.2-1.05-8.93-3.15-2.73-2.1-4.94-5.18-6.62-9.26-1.68-4.07-2.52-9.08-2.52-15.04s.84-10.96,2.52-15.04c1.68-4.07,3.89-7.16,6.62-9.26,2.73-2.1,5.71-3.15,8.93-3.15s6.19,1.05,8.93,3.15c2.73,2.1,4.94,5.18,6.62,9.26,1.68,4.07,2.52,9.09,2.52,15.04s-.84,10.96-2.52,15.04c-1.68,4.07-3.89,7.16-6.62,9.26-2.73,2.1-5.71,3.15-8.93,3.15Zm0-3.22c2.83,0,5.01-1.04,6.55-3.11,1.54-2.07,2.62-4.93,3.26-8.56.63-3.63.95-7.82.95-12.55s-.32-8.91-.95-12.55c-.63-3.63-1.72-6.49-3.26-8.56-1.54-2.07-3.72-3.11-6.55-3.11s-4.95,1.04-6.51,3.11c-1.56,2.07-2.66,4.94-3.29,8.6-.63,3.66-.95,7.83-.95,12.51s.32,8.85.95,12.51c.63,3.66,1.73,6.52,3.29,8.6,1.56,2.07,3.73,3.11,6.51,3.11Z"/><path class="cls-1" d="m54.81,54.7c-.44-.39-.65-.83-.62-1.32.02-.49.23-.9.62-1.24,1.61-.19,3.08-.41,4.43-.66,1.34-.24,2.41-.66,3.22-1.24.8-.59,1.21-1.44,1.21-2.56V9.84c0-1.37-.27-2.39-.8-3.07-.54-.68-1.88-1.02-4.02-1.02h-3.15c-.44-.39-.65-.83-.62-1.32.02-.49.23-.9.62-1.24.93-.05,2.05-.15,3.37-.29,1.32-.15,2.61-.37,3.88-.66,1.27-.29,2.29-.66,3.07-1.1.54-.29,1.32-.44,2.34-.44.49,0,.91.09,1.28.26.37.17.55.45.55.84v45.88c0,1.71.82,2.82,2.45,3.33,1.63.51,3.67.89,6.11,1.13.39.34.58.76.58,1.24s-.2.93-.58,1.32h-23.93Z"/><path class="cls-2" d="m117.54,12.07l-.58-3.1c1.2.29,2.67.48,4.4.58h25.17v-5.18c0-1.68-.17-2.81-.5-3.38-.24-.24-.24-.5,0-.79.1-.19.31-.24.65-.14.58.05,1.33.17,2.27.36.94.19,1.89.38,2.85.58.96.19,1.71.36,2.24.5.38.14.58.43.58.86-.05.48-.31.72-.79.72-.53.05-1.05.16-1.55.32-.5.17-.76.61-.76,1.33v4.82h18.25c.38,0,.62-.12.72-.36.14-.14.48-.47,1.01-.97.53-.5,1.05-1.02,1.55-1.55.5-.53.8-.84.9-.94.38-.34.82-.36,1.3-.07.24.14.77.53,1.59,1.15.82.62,1.62,1.24,2.42,1.84.79.6,1.29,1,1.48,1.19.38.34.53.73.43,1.19-.1.46-.34.68-.72.68h-59.06c-1.59.05-2.86.17-3.82.36Zm4.18,53.06c-.39,0-.73-.08-1.05-.25-.31-.17-.47-.52-.47-1.04,0-.29.02-1.16.07-2.63.05-1.46.12-3.3.22-5.51.1-2.21.17-4.62.22-7.24.05-2.62.07-5.22.07-7.81,0-1.92-.04-3.4-.11-4.43-.07-1.03-.16-1.79-.25-2.27-.1-.48-.24-.89-.43-1.22-.14-.24-.1-.48.14-.72.19-.19.46-.22.79-.07.58.29,1.45.76,2.63,1.4,1.18.65,2.1,1.16,2.78,1.55h44.78c.34,0,.58-.12.72-.36.24-.29.59-.68,1.05-1.19.46-.5.83-.92,1.12-1.26.34-.48.79-.5,1.37-.07.58.34,1.37.91,2.38,1.73,1.01.82,1.8,1.49,2.38,2.02.53.53.43,1.01-.29,1.44-.34.19-.71.4-1.12.61-.41.22-.76.4-1.05.54-.19.1-.34.19-.43.29s-.14.31-.14.65c0,1.63.02,3.4.07,5.29.05,1.9.08,3.72.11,5.47.02,1.75.06,3.25.11,4.5.05,1.25.07,2.02.07,2.3,0,1.92-.49,3.54-1.48,4.86-.99,1.32-2.9,2.46-5.73,3.42-.53-1.39-1.08-2.48-1.66-3.28s-1.32-1.4-2.24-1.84c-.91-.43-2.21-.77-3.89-1.01-.43-.62-.36-1.1.22-1.44.43,0,1.09.04,1.98.11.89.07,1.85.13,2.88.18,1.03.05,1.96.07,2.78.07.77,0,1.3-.18,1.59-.54.29-.36.43-.9.43-1.62v-18.72h-46.8v26.57c0,.38-.43.73-1.3,1.04-.87.31-1.71.47-2.52.47Zm11.47-32.83c-.87,0-1.3-.36-1.3-1.08,0-.62.07-1.92.22-3.89.14-1.97.22-4.2.22-6.7,0-1.54-.04-2.63-.11-3.28-.07-.65-.23-1.28-.47-1.91-.19-.24-.17-.48.07-.72.24-.24.5-.26.79-.07.53.24,1.33.65,2.42,1.22,1.08.58,1.98,1.06,2.7,1.44h21.13c.29,0,.53-.1.72-.29.29-.29.66-.66,1.12-1.12.46-.46.83-.85,1.12-1.19.24-.24.44-.36.61-.36s.42.14.76.43c.43.34,1.09.86,1.98,1.58.89.72,1.57,1.32,2.06,1.8.62.53.53.98-.29,1.37-.24.14-.49.28-.76.4-.26.12-.52.25-.76.4-.39.19-.58.53-.58,1.01,0,1.01.04,2.12.11,3.35.07,1.22.14,2.3.22,3.24.07.94.11,1.52.11,1.76,0,.62-.47,1.1-1.41,1.44-.94.34-1.77.5-2.49.5-.91,0-1.37-.36-1.37-1.08v-1.8h-23.08v1.66c0,.48-.39.91-1.15,1.3-.77.38-1.63.58-2.6.58Zm3.53,27.07c-.87,0-1.3-.38-1.3-1.15,0-.43.04-1.31.11-2.63.07-1.32.13-2.87.18-4.64.05-1.78.07-3.53.07-5.26s-.02-2.88-.07-3.46c-.05-.58-.19-1.13-.43-1.66v-.07c-.1-.29-.05-.5.14-.65.24-.24.5-.26.79-.07.53.29,1.35.75,2.45,1.37,1.11.62,1.99,1.13,2.67,1.51h13.7c.34,0,.6-.1.79-.29.34-.38.71-.79,1.12-1.22.41-.43.76-.79,1.05-1.08.43-.43.89-.46,1.37-.07.48.34,1.18.89,2.09,1.66.91.77,1.61,1.37,2.09,1.8.53.53.46,1.03-.22,1.51-.29.14-.58.3-.87.47-.29.17-.58.32-.87.47-.39.19-.58.48-.58.86,0,.77.04,1.8.11,3.1s.13,2.5.18,3.6c.05,1.1.07,1.78.07,2.02,0,.53-.45.98-1.33,1.37-.89.38-1.67.58-2.34.58-.91,0-1.37-.36-1.37-1.08v-2.38h-15.94v3.67c0,.48-.4.89-1.19,1.22-.79.34-1.62.5-2.49.5Zm.22-32.76h23.08v-7.13h-23.08v7.13Zm3.46,25.2h15.94v-6.98h-15.94v6.98Z"/><path class="cls-2" d="m196.36,63.98c-.82,0-1.23-.34-1.23-1.01,0-.29.02-1.14.07-2.56.05-1.42.11-3.14.18-5.18.07-2.04.13-4.16.18-6.37.05-2.21.07-4.25.07-6.12s-.02-3.31-.07-4.32c-.05-1.01-.13-1.78-.25-2.3-.12-.53-.28-1.01-.47-1.44-.14-.24-.1-.48.14-.72.24-.24.5-.26.79-.07.48.24,1.27.68,2.38,1.33,1.11.65,1.99,1.16,2.67,1.55h11.11c.34,0,.6-.1.79-.29.34-.33.77-.79,1.3-1.37.53-.58.94-1.01,1.23-1.3.43-.43.96-.43,1.59,0,.29.19.75.56,1.37,1.12.62.55,1.26,1.09,1.91,1.62.65.53,1.09.91,1.33,1.15.24.19.35.43.32.72-.02.29-.23.5-.61.65-.43.19-.82.37-1.15.54-.34.17-.67.35-1.01.54-.19.05-.34.14-.43.29-.1.14-.14.46-.14.94,0,1.63.02,3.49.07,5.58.05,2.09.11,4.12.18,6.08.07,1.97.13,3.62.18,4.97.05,1.34.07,2.09.07,2.23,0,.48-.44.94-1.33,1.37-.89.43-1.77.65-2.63.65-.91,0-1.37-.38-1.37-1.15v-2.38h-13.27v3.38c0,.38-.39.79-1.15,1.22-.77.43-1.71.65-2.81.65Zm3.97-7.42h13.27v-17.64h-13.27v17.64Zm7.64-26.06c-.34,0-.64-.08-.9-.25-.26-.17-.4-.52-.4-1.04,0-.43.05-1.61.14-3.53.1-1.92.19-4.27.29-7.06.1-2.78.14-5.66.14-8.64,0-2.02-.07-3.53-.22-4.54-.14-1.01-.34-1.8-.58-2.38-.14-.34-.12-.6.07-.79.19-.19.48-.22.87-.07.34.14.84.42,1.51.83.67.41,1.37.82,2.09,1.22.72.41,1.32.76,1.8,1.04h21.49c.48,0,.82-.1,1.01-.29.34-.34.77-.79,1.3-1.37.53-.58.94-1.01,1.23-1.3.38-.43.89-.43,1.51,0,.24.14.7.48,1.37,1.01.67.53,1.33,1.07,1.98,1.62.65.55,1.09.95,1.33,1.19.62.53.55,1.01-.22,1.44-.39.19-.77.37-1.15.54-.39.17-.75.35-1.08.54-.19.1-.34.22-.43.36-.1.14-.14.46-.14.94,0,1.49.02,3.16.07,5,.05,1.85.12,3.64.22,5.36.1,1.73.17,3.19.22,4.39.05,1.2.07,1.87.07,2.02,0,.48-.39.92-1.15,1.33-.77.41-1.73.61-2.88.61-.91,0-1.37-.36-1.37-1.08v-1.8h-24.16v2.81c0,.38-.4.79-1.19,1.22-.79.43-1.74.65-2.85.65Zm4.04-6.84h24.16V7.54h-24.16v16.13Zm17.16,40.32c-.96,0-1.44-.36-1.44-1.08,0-.29.02-1.12.07-2.48.05-1.37.12-3.02.22-4.97.1-1.94.17-4,.22-6.16.05-2.16.07-4.2.07-6.12,0-2.83-.06-4.8-.18-5.9-.12-1.1-.32-1.97-.61-2.59-.19-.24-.17-.48.07-.72.24-.24.5-.26.79-.07.58.29,1.39.74,2.45,1.37,1.06.62,1.92,1.13,2.6,1.51h11.75c.48,0,.82-.1,1.01-.29.29-.33.7-.8,1.23-1.4.53-.6.91-1.02,1.15-1.26.43-.48.94-.48,1.51,0,.29.19.77.55,1.44,1.08.67.53,1.35,1.07,2.02,1.62.67.55,1.13.95,1.37,1.19.34.24.48.49.43.76-.05.26-.26.47-.65.61-.39.19-.77.37-1.15.54-.39.17-.75.35-1.08.54-.19.05-.34.14-.43.29-.1.14-.14.46-.14.94,0,1.58.02,3.41.07,5.47.05,2.06.11,4.08.18,6.05.07,1.97.13,3.64.18,5,.05,1.37.07,2.12.07,2.27,0,.48-.37.95-1.12,1.4-.75.46-1.69.68-2.85.68-.91,0-1.37-.38-1.37-1.15v-2.38h-14.06v3.38c0,.38-.36.79-1.08,1.22-.72.43-1.64.65-2.74.65Zm3.82-7.42h14.06v-17.64h-14.06v17.64Z"/><path class="cls-2" d="m267.03,30.86c-.34,0-.6-.11-.79-.32-.19-.22-.26-.47-.22-.76,1.83-2.11,3.22-4.18,4.18-6.19.96-2.02,1.62-4.31,1.98-6.88.36-2.57.54-5.7.54-9.4,0-1.1-.05-1.98-.14-2.63-.1-.65-.24-1.21-.43-1.69-.19-.24-.17-.48.07-.72.24-.24.53-.26.87-.07.53.34,1.31.83,2.34,1.48,1.03.65,1.84,1.16,2.42,1.55,2.26-.38,4.57-.92,6.92-1.62,2.35-.7,4.23-1.38,5.62-2.05.82-.38,1.27-.72,1.37-1.01.1-.29.26-.46.5-.5.24-.1.48-.02.72.22.53.53,1.24,1.3,2.13,2.3.89,1.01,1.57,1.78,2.06,2.3.29.34.26.67-.07,1.01-.29.48-.63.53-1.01.14-.53-.33-1.02-.52-1.48-.54-.46-.02-1.02.01-1.69.11-1.49.19-3.19.37-5.08.54-1.9.17-3.79.31-5.66.43-1.88.12-3.58.21-5.12.25v1.3c-.05.72-.07,1.42-.07,2.09s-.05,1.34-.14,2.02h14.35c.34,0,.6-.1.79-.29.24-.29.61-.71,1.12-1.26.5-.55.88-.95,1.12-1.19.34-.38.79-.41,1.37-.07.43.34.98.83,1.66,1.48.67.65,1.25,1.21,1.73,1.69.38.38.52.78.4,1.19-.12.41-.37.61-.76.61h-9.16c0,2.4.04,4.5.11,6.3.07,1.8.11,2.96.11,3.49,0,.34-.3.71-.9,1.12-.6.41-1.36.61-2.27.61-1.01,0-1.51-.31-1.51-.94,0-.38.02-1.51.07-3.38.05-1.87.1-4.27.14-7.2h-8.58c-.43,3.22-1.37,6.16-2.81,8.82s-3.7,5.22-6.78,7.67Zm-.07,34.78c-.24-.19-.4-.43-.47-.72-.07-.29-.01-.53.18-.72,2.11-.58,4.45-1.34,7-2.3,2.55-.96,5.02-2.04,7.43-3.24,2.4-1.2,4.45-2.42,6.13-3.67.62-.48,1.01-.95,1.15-1.4.14-.46.34-.73.58-.83.19-.05.43.02.72.22.58.48,1.37,1.2,2.38,2.16,1.01.96,1.8,1.73,2.38,2.3.34.34.36.67.07,1.01-.29.43-.63.53-1.01.29-.63-.29-1.12-.42-1.48-.4-.36.02-.85.16-1.48.4-2.26,1.06-4.82,2.05-7.68,2.99-2.86.94-5.7,1.74-8.51,2.41-2.81.67-5.28,1.18-7.39,1.51Zm13.92-10.15c-1.01,0-1.51-.36-1.51-1.08,0-.29.04-1.44.11-3.46s.14-4.64.22-7.88c.07-3.24.11-6.78.11-10.62,0-2.11-.07-3.56-.22-4.36-.14-.79-.34-1.43-.58-1.91-.1-.33-.05-.6.14-.79.24-.19.5-.22.79-.07.34.14.85.41,1.55.79.7.38,1.39.76,2.09,1.12.7.36,1.24.66,1.62.9h27.33c.38,0,.65-.1.79-.29.24-.24.58-.6,1.01-1.08.43-.48.77-.86,1.01-1.15.43-.48.91-.5,1.44-.07.29.24.7.59,1.23,1.04.53.46,1.06.92,1.59,1.4.53.48.91.84,1.15,1.08.58.58.53,1.03-.14,1.37-.48.24-1.01.5-1.59.79-.48.24-.72.65-.72,1.22,0,1.54.02,3.37.07,5.51.05,2.14.12,4.26.22,6.37.1,2.11.17,3.92.22,5.44.05,1.51.07,2.41.07,2.7,0,.43-.36.83-1.08,1.19-.72.36-1.56.54-2.52.54s-1.37-.36-1.37-1.08v-1.01h-29.71v1.73c0,.34-.34.7-1.01,1.08-.67.38-1.44.58-2.31.58Zm3.32-20.16h29.71v-5.04h-29.71v5.04Zm0,7.13h29.71v-4.97h-29.71v4.97Zm0,7.49h29.71v-5.33h-29.71v5.33Zm8.65-23.11c-.72-.14-.99-.58-.79-1.3,2.26-1.3,4.16-2.74,5.7-4.32,1.54-1.58,2.69-3.49,3.46-5.72.77-2.23,1.15-4.96,1.15-8.17,0-1.1-.05-1.98-.14-2.63-.1-.65-.26-1.21-.5-1.69-.19-.29-.14-.53.14-.72.24-.24.5-.26.79-.07.58.34,1.39.83,2.45,1.48,1.06.65,1.88,1.16,2.45,1.55,2.31-.38,4.72-.9,7.25-1.55s4.58-1.36,6.17-2.12c.82-.43,1.29-.78,1.41-1.04.12-.26.28-.42.47-.47.24-.1.48-.02.72.22.53.53,1.24,1.3,2.13,2.3.89,1.01,1.57,1.78,2.06,2.3.29.34.26.67-.07,1.01-.29.43-.65.48-1.08.14-.48-.33-.95-.52-1.41-.54-.46-.02-1.02.01-1.69.11-1.54.19-3.32.37-5.34.54-2.02.17-4.03.31-6.02.43-2,.12-3.79.21-5.37.25,0,1.01-.04,1.96-.11,2.84-.07.89-.21,1.74-.4,2.56h17.24c.34,0,.6-.1.79-.29.24-.29.61-.71,1.12-1.26.5-.55.88-.95,1.12-1.19.34-.38.79-.41,1.37-.07.43.34.98.83,1.66,1.48.67.65,1.25,1.21,1.73,1.69.38.38.52.78.4,1.19-.12.41-.37.61-.76.61h-14.06c.05,2.35.1,4.27.14,5.76.05,1.49.07,2.5.07,3.02,0,.34-.29.71-.87,1.12-.58.41-1.32.61-2.24.61-1.01,0-1.51-.34-1.51-1.01,0-.38.02-1.46.07-3.24.05-1.78.07-3.86.07-6.26h-6.85c-1.01,3.41-2.66,6.06-4.94,7.96-2.28,1.9-4.94,3.4-7.97,4.5Zm32.16,38.38c-.72.82-1.61.77-2.67-.14-1.44-1.2-3.19-2.41-5.23-3.64-2.04-1.22-4.19-2.39-6.45-3.49-2.26-1.1-4.5-2.06-6.71-2.88-.29-.62-.14-1.1.43-1.44,2.11.38,4.37.88,6.78,1.48,2.4.6,4.67,1.25,6.81,1.94,2.14.7,3.81,1.43,5.01,2.2,1.49.91,2.33,2,2.52,3.28.19,1.27.02,2.17-.5,2.7Z"/></g></svg>