<?xml version="1.0" encoding="UTF-8"?><svg id="_レイヤー_2" xmlns="http://www.w3.org/2000/svg" viewBox="0 0 46 171"><defs><style>.cls-1{fill:#a0b4d2;}.cls-2{fill:#1a3d70;}</style></defs><g id="design"><path class="cls-2" d="m7.22,56.43l-.32-1.72c.67.16,1.48.27,2.44.32h13.96v-2.89c0-.93-.09-1.56-.28-1.88-.13-.13-.13-.28,0-.44.05-.11.17-.13.36-.08.32.03.74.09,1.26.2.52.11,1.05.21,1.58.32s.95.2,1.24.28c.21.08.32.24.32.48-.03.27-.17.4-.44.4-.29.03-.58.09-.86.18-.28.09-.42.34-.42.74v2.69h10.12c.21,0,.35-.07.4-.2.08-.08.27-.26.56-.54.29-.28.58-.57.86-.86.28-.29.45-.47.5-.52.21-.19.45-.2.72-.04.13.08.43.29.88.64.45.35.9.69,1.34,1.02.44.33.71.55.82.66.21.19.29.41.24.66-.05.25-.19.38-.4.38H9.34c-.88.03-1.59.09-2.12.2Zm2.32,29.54c-.21,0-.41-.05-.58-.14-.17-.09-.26-.29-.26-.58,0-.16.01-.65.04-1.46.03-.82.07-1.84.12-3.07.05-1.23.09-2.57.12-4.03.03-1.46.04-2.91.04-4.35,0-1.07-.02-1.89-.06-2.46-.04-.57-.09-1-.14-1.26-.05-.27-.13-.49-.24-.68-.08-.13-.05-.27.08-.4.11-.11.25-.12.44-.04.32.16.81.42,1.46.78.65.36,1.17.65,1.54.86h24.84c.19,0,.32-.07.4-.2.13-.16.33-.38.58-.66.25-.28.46-.51.62-.7.19-.27.44-.28.76-.04.32.19.76.51,1.32.96.56.45,1,.83,1.32,1.12.29.29.24.56-.16.8-.19.11-.39.22-.62.34-.23.12-.42.22-.58.3-.11.05-.19.11-.24.16-.05.05-.08.17-.08.36,0,.91.01,1.89.04,2.95.03,1.06.05,2.07.06,3.05.01.98.03,1.81.06,2.5.03.7.04,1.12.04,1.28,0,1.07-.27,1.97-.82,2.71-.55.73-1.61,1.37-3.18,1.9-.29-.77-.6-1.38-.92-1.82s-.73-.78-1.24-1.02c-.51-.24-1.23-.43-2.16-.56-.24-.35-.2-.61.12-.8.24,0,.61.02,1.1.06.49.04,1.03.07,1.6.1.57.03,1.09.04,1.54.04.43,0,.72-.1.88-.3.16-.2.24-.5.24-.9v-10.42H11.66v14.79c0,.21-.24.41-.72.58-.48.17-.95.26-1.4.26Zm6.36-18.28c-.48,0-.72-.2-.72-.6,0-.35.04-1.07.12-2.16.08-1.09.12-2.34.12-3.73,0-.86-.02-1.46-.06-1.82-.04-.36-.13-.71-.26-1.06-.11-.13-.09-.27.04-.4.13-.13.28-.15.44-.04.29.13.74.36,1.34.68s1.1.59,1.5.8h11.72c.16,0,.29-.05.4-.16l.62-.62c.25-.25.46-.47.62-.66.13-.13.25-.2.34-.2s.23.08.42.24c.24.19.61.48,1.1.88.49.4.87.74,1.14,1,.35.29.29.55-.16.76-.13.08-.27.15-.42.22-.15.07-.29.14-.42.22-.21.11-.32.29-.32.56,0,.56.02,1.18.06,1.86.04.68.08,1.28.12,1.8s.06.85.06.98c0,.35-.26.61-.78.8-.52.19-.98.28-1.38.28-.51,0-.76-.2-.76-.6v-1h-12.8v.92c0,.27-.21.51-.64.72-.43.21-.91.32-1.44.32Zm1.96,15.07c-.48,0-.72-.21-.72-.64,0-.24.02-.73.06-1.46.04-.73.07-1.6.1-2.59.03-.99.04-1.96.04-2.93s-.01-1.6-.04-1.92c-.03-.32-.11-.63-.24-.92v-.04c-.05-.16-.03-.28.08-.36.13-.13.28-.15.44-.04.29.16.75.41,1.36.76.61.35,1.11.63,1.48.84h7.6c.19,0,.33-.05.44-.16.19-.21.39-.44.62-.68.23-.24.42-.44.58-.6.24-.24.49-.25.76-.04.27.19.65.49,1.16.92.51.43.89.76,1.16,1,.29.29.25.57-.12.84-.16.08-.32.17-.48.26-.16.09-.32.18-.48.26-.21.11-.32.27-.32.48,0,.43.02,1,.06,1.72.04.72.07,1.39.1,2,.03.61.04.99.04,1.12,0,.29-.25.55-.74.76-.49.21-.93.32-1.3.32-.51,0-.76-.2-.76-.6v-1.32h-8.84v2.04c0,.27-.22.49-.66.68-.44.19-.9.28-1.38.28Zm.12-18.24h12.8v-3.97h-12.8v3.97Zm1.92,14.03h8.84v-3.89h-8.84v3.89Z"/><path class="cls-2" d="m11.46,128.48c-.75.05-1.23-.05-1.44-.3-.21-.25-.32-.62-.32-1.1,0-.11,0-.24.02-.4s.02-.33.02-.52c.05-.72.09-1.62.12-2.71.03-1.08-.07-2.05-.28-2.91-.21-.88-.55-1.45-1.02-1.7-.47-.25-1.17-.46-2.1-.62-.24-.37-.19-.65.16-.84.53.03,1.05.01,1.54-.04.49-.05.93-.27,1.3-.64.29-.32.68-.89,1.16-1.72.48-.83,1-1.78,1.56-2.87.56-1.08,1.12-2.2,1.68-3.37.56-1.16,1.08-2.26,1.56-3.31.48-1.04.89-1.91,1.22-2.61.33-.69.53-1.12.58-1.28.35-.19.6-.08.76.32-.05.11-.25.56-.58,1.36-.33.8-.75,1.8-1.24,2.99-.49,1.19-1.01,2.46-1.56,3.83s-1.07,2.67-1.56,3.93c-.49,1.26-.9,2.33-1.22,3.23-.32.9-.49,1.49-.52,1.78-.11.88-.01,1.79.28,2.73.29.94.59,1.82.88,2.64.16.4.3.78.42,1.14s.21.67.26.94c.24,1.2-.32,1.88-1.68,2.04Zm.4-20.8c-.53.29-.99.04-1.36-.76-.45-.85-1.01-1.7-1.68-2.53-.67-.83-1.41-1.54-2.24-2.12-.11-.4.03-.64.4-.72,1.01.29,2.01.7,2.98,1.2.97.51,1.69,1.11,2.14,1.8.45.67.63,1.3.54,1.9s-.35,1.01-.78,1.22Zm3.44-8.46c-.21.16-.43.23-.66.2-.23-.03-.49-.25-.78-.68-1.49-2.16-3.17-3.71-5.04-4.65-.13-.35-.03-.6.32-.76,1.04.21,2.13.54,3.26.98,1.13.44,2.07,1.08,2.82,1.9.48.53.7,1.12.66,1.74-.04.63-.23,1.05-.58,1.26Zm-.64,29.3c-.4,0-.6-.19-.6-.56.96-1.23,1.74-2.51,2.34-3.85.6-1.34,1.04-2.93,1.32-4.79.28-1.86.42-4.19.42-6.99,0-1.39-.03-2.43-.08-3.13-.05-.69-.19-1.26-.4-1.68-.05-.19-.03-.33.08-.44.13-.11.28-.12.44-.04.29.16.76.4,1.4.72.64.32,1.13.57,1.48.76h16.88c.19,0,.33-.05.44-.16.08-.11.23-.27.44-.5.21-.23.43-.46.64-.7.21-.24.36-.41.44-.52.19-.21.41-.23.68-.04.29.19.69.51,1.2.98.51.47.88.84,1.12,1.1.24.24.33.48.26.72-.07.24-.23.36-.5.36h-22.16v5.13c0,.4-.03.79-.08,1.16h16.88c.16,0,.31-.07.44-.2.13-.16.33-.39.6-.7.27-.31.45-.53.56-.66.19-.24.44-.25.76-.04.29.19.67.47,1.12.84.45.37.81.68,1.08.92.21.19.29.41.24.66-.05.25-.19.38-.4.38h-11.56c.51.83,1.07,1.59,1.68,2.28.61.7,1.27,1.32,1.96,1.88.43-.35.93-.77,1.5-1.26.57-.49,1.01-.96,1.3-1.38.27-.37.41-.63.42-.76.01-.13.1-.24.26-.32.11-.08.24-.05.4.08.35.24.74.55,1.18.94.44.39.83.73,1.18,1.02.16.13.17.32.04.56-.11.24-.29.31-.56.2-.29-.13-.52-.19-.68-.18-.16.01-.35.07-.56.18-.51.21-1.11.47-1.8.76s-1.32.55-1.88.76c1.33.91,2.76,1.62,4.28,2.12,1.52.51,3.09.87,4.72,1.08-.83.27-1.53.65-2.1,1.14-.57.49-.98,1.02-1.22,1.58-1.31-.64-2.53-1.32-3.66-2.04-1.13-.72-2.22-1.59-3.26-2.6-.93.37-2.07.8-3.42,1.28s-2.7.94-4.06,1.36c-1.36.43-2.53.76-3.52,1-.27.08-.45.19-.54.32-.09.13-.09.36.02.68.05.29-.04.48-.28.56-.24.11-.43.05-.56-.16-.13-.24-.33-.56-.58-.96-.25-.4-.5-.81-.74-1.22-.24-.41-.44-.74-.6-.98-.11-.19-.11-.33,0-.44.08-.08.31-.11.68-.08.13,0,.3,0,.5.02.2.01.42,0,.66-.02.53-.05,1.11-.11,1.72-.16.61-.05,1.25-.13,1.92-.24v-7.01h-4.24c-.29,2.51-.93,4.64-1.9,6.39-.97,1.75-2.22,3.37-3.74,4.87Zm6.12-21.44c-.43,0-.64-.2-.64-.6,0-.13.03-.95.1-2.44.07-1.5.1-3.38.1-5.65,0-.77-.03-1.38-.1-1.8-.07-.43-.17-.79-.3-1.08-.05-.16-.03-.29.08-.4.11-.11.25-.12.44-.04.21.11.59.3,1.14.58.55.28.99.53,1.34.74h3v-1.72c0-.93-.09-1.56-.28-1.88-.13-.13-.13-.28,0-.44.08-.08.21-.11.4-.08.4.08.85.19,1.36.34.51.15.99.29,1.44.42.21.03.32.19.32.48-.03.27-.17.4-.44.4-.29.03-.5.09-.62.18-.12.09-.18.34-.18.74v1.56h3.36v-1.68c0-.99-.09-1.62-.28-1.88-.11-.16-.11-.31,0-.44.08-.08.21-.11.4-.08.43.05.89.15,1.4.3.51.15.97.29,1.4.42.27.08.37.24.32.48-.03.24-.17.39-.44.44-.27.03-.46.08-.58.16-.12.08-.18.33-.18.76v1.52h3.08c.16,0,.31-.07.44-.2.13-.13.26-.27.38-.42s.25-.27.38-.38c.19-.19.4-.19.64,0,.24.19.56.44.96.76.4.32.69.56.88.72.35.32.32.59-.08.8-.24.11-.45.21-.64.32-.27.13-.4.33-.4.6,0,.88.02,1.85.06,2.91.04,1.06.07,1.99.1,2.81s.04,1.34.04,1.58c0,.21-.18.41-.54.6-.36.19-.77.28-1.22.28-.4,0-.6-.17-.6-.52v-.64h-14.32v.68c0,.24-.2.43-.6.58-.4.15-.77.22-1.12.22Zm1.68,6.61l-.32-1.72c.67.16,1.48.27,2.44.32h8.08c.19,0,.33-.05.44-.16.13-.16.34-.39.62-.7.28-.31.47-.53.58-.66.24-.24.49-.25.76-.04.24.19.55.46.94.82s.71.68.98.94c.21.21.29.43.22.66-.07.23-.21.34-.42.34h-12.2c-.88.03-1.59.09-2.12.2Zm.04-13.27h3.44v-2.93h-3.44v2.93Zm0,4.01h3.44v-2.89h-3.44v2.89Zm4.4,19.44c1.07-.19,2.11-.39,3.12-.6s1.89-.43,2.64-.64c-.67-.69-1.31-1.49-1.94-2.38-.63-.89-1.25-1.89-1.86-2.99h-1.96v6.61Zm1.04-23.45h3.36v-2.93h-3.36v2.93Zm0,4.01h3.36v-2.89h-3.36v2.89Zm5.4-4.01h3.48v-2.93h-3.48v2.93Zm0,4.01h3.48v-2.89h-3.48v2.89Z"/><path class="cls-2" d="m6.7,170.96c-.19.03-.34,0-.46-.1-.12-.09-.19-.22-.22-.38.8-1.23,1.51-2.57,2.12-4.01s1.13-3.09,1.54-4.95c.41-1.86.73-4.02.94-6.49.21-2.47.32-5.35.32-8.64,0-2.06-.02-3.61-.06-4.67-.04-1.06-.1-1.81-.18-2.26-.08-.45-.17-.8-.28-1.04-.08-.16-.05-.29.08-.4.13-.13.28-.15.44-.04.27.13.71.38,1.34.74.63.36,1.14.65,1.54.86h11.24v-2.57c0-.93-.09-1.56-.28-1.88-.11-.16-.11-.31,0-.44.08-.08.21-.11.4-.08.45.05,1.08.17,1.88.36.8.19,1.45.35,1.96.48.27.08.37.24.32.48,0,.27-.13.4-.4.4-.29.03-.58.09-.86.18-.28.09-.42.34-.42.74v2.32h9.32c.19,0,.33-.05.44-.16.08-.08.25-.26.5-.54.25-.28.51-.56.76-.84s.41-.46.46-.54c.24-.24.49-.27.76-.08.16.11.43.33.82.66.39.33.77.67,1.14,1,.37.33.61.55.72.66.21.19.29.41.24.66-.05.25-.2.38-.44.38H13.42v5.33h6.88v-2.08c0-.48-.02-.84-.06-1.08-.04-.24-.11-.43-.22-.56-.11-.19-.11-.33,0-.44.05-.11.19-.13.4-.08.43.05,1.03.17,1.82.34.79.17,1.43.33,1.94.46.24.08.33.24.28.48,0,.24-.13.39-.4.44-.29.03-.58.09-.86.18-.28.09-.42.34-.42.74v1.6h7.12v-1.84c0-.94-.09-1.56-.28-1.88-.13-.16-.13-.31,0-.44.05-.11.17-.13.36-.08.45.05,1.07.17,1.86.34.79.17,1.42.33,1.9.46.27.08.37.25.32.52-.03.27-.17.4-.44.4-.27.03-.55.09-.84.18-.29.09-.44.34-.44.74,0,.27,0,.53.02.8.01.27.02.54.02.8h4.6c.19,0,.33-.05.44-.16.08-.08.25-.26.5-.54.25-.28.51-.56.76-.84.25-.28.41-.46.46-.54.24-.24.49-.25.76-.04.16.11.43.33.82.66.39.33.77.66,1.14.98.37.32.61.53.72.64.21.19.29.41.24.68-.05.27-.19.4-.4.4h-10.04c.05,1.47.11,2.77.18,3.89.07,1.12.1,1.75.1,1.88,0,.35-.24.61-.72.8-.48.19-.91.28-1.28.28-.51,0-.76-.21-.76-.64v-.72h-7.12v.72c0,.29-.25.55-.76.76-.51.21-.95.32-1.32.32-.19,0-.35-.05-.48-.16-.13-.11-.2-.31-.2-.6,0-.27.03-1,.1-2.18.07-1.19.11-2.64.14-4.35h-6.84v2.28c0,3.5-.26,6.55-.78,9.14-.52,2.59-1.28,4.86-2.28,6.81-1,1.95-2.22,3.74-3.66,5.37Zm4.6.04c-.35-.24-.4-.52-.16-.84,2.21-.4,4.53-1.03,6.94-1.88,2.41-.86,4.7-2.02,6.86-3.49-1.15-.96-2.18-2.08-3.1-3.35-.92-1.27-1.73-2.75-2.42-4.43h-2.12c-.88.03-1.59.09-2.12.2l-.32-1.72c.67.16,1.48.27,2.44.32h14.72c.13,0,.23,0,.3-.02.07-.01.15-.07.26-.18l1.16-1.16c.16-.13.29-.21.38-.22.09-.01.23.06.42.22.32.27.77.61,1.34,1.04.57.43.99.79,1.26,1.08.21.21.25.44.12.68-.08.24-.29.36-.64.36-.48,0-.85.03-1.1.1-.25.07-.5.27-.74.62-.93,1.31-1.95,2.51-3.04,3.61s-2.23,2.07-3.4,2.93c2.11.99,4.39,1.62,6.86,1.88,2.47.27,5.02.4,7.66.4-.75.45-1.37,1.02-1.88,1.68-.51.67-.85,1.24-1.04,1.72-2.37-.37-4.7-.9-6.98-1.56-2.28-.67-4.41-1.66-6.38-2.97-2.43,1.52-4.97,2.67-7.62,3.43-2.65.76-5.21,1.28-7.66,1.54Zm15.04-7.25c1.17-.91,2.25-1.92,3.24-3.03.99-1.11,1.85-2.34,2.6-3.71h-11.64c.77,1.55,1.65,2.87,2.62,3.97.97,1.1,2.03,2.02,3.18,2.77Zm-3.56-12.1h7.12v-4.29h-7.12v4.29Z"/><path class="cls-1" d="m11.6,30.06c-1.76,0-3.39-.57-4.88-1.72-1.49-1.15-2.7-2.84-3.62-5.07s-1.38-4.98-1.38-8.24.46-6.01,1.38-8.24c.92-2.23,2.13-3.92,3.62-5.07,1.49-1.15,3.12-1.72,4.88-1.72s3.39.57,4.88,1.72c1.49,1.15,2.7,2.84,3.62,5.07.92,2.23,1.38,4.98,1.38,8.24s-.46,6.01-1.38,8.24-2.13,3.92-3.62,5.07c-1.49,1.15-3.12,1.72-4.88,1.72Zm0-1.76c1.55,0,2.74-.57,3.58-1.7.84-1.14,1.43-2.7,1.78-4.69.35-1.99.52-4.28.52-6.87s-.17-4.88-.52-6.87c-.35-1.99-.94-3.55-1.78-4.69-.84-1.14-2.03-1.7-3.58-1.7s-2.71.57-3.56,1.7c-.85,1.14-1.45,2.71-1.8,4.71s-.52,4.29-.52,6.85.17,4.85.52,6.85.95,3.57,1.8,4.71c.85,1.14,2.04,1.7,3.56,1.7Z"/><path class="cls-1" d="m28.08,29.58c-.45,0-.68-.23-.68-.68v-1.24c0-.64.34-1.4,1.02-2.28.68-.88,1.56-1.86,2.64-2.95s2.22-2.23,3.42-3.45c1.2-1.22,2.34-2.48,3.42-3.79,1.08-1.31,1.96-2.64,2.64-3.99.68-1.35,1.02-2.68,1.02-3.99,0-1.02-.14-1.94-.42-2.77-.28-.83-.76-1.48-1.44-1.96s-1.63-.72-2.86-.72c-1.49,0-2.7.33-3.62,1-.92.67-1.38,1.67-1.38,3.01,0,.37.05.69.16.96s.25.55.44.84c.19.27.28.56.28.88,0,.59-.2,1.06-.6,1.42-.4.36-.89.54-1.48.54-.53,0-.98-.2-1.34-.6-.36-.4-.63-.89-.82-1.48-.19-.59-.28-1.16-.28-1.72,0-1.31.42-2.46,1.26-3.45.84-.99,1.95-1.76,3.32-2.32,1.37-.56,2.87-.84,4.5-.84.85,0,1.75.13,2.7.4.95.27,1.84.69,2.68,1.26.84.57,1.53,1.32,2.06,2.24.53.92.8,2.05.8,3.39,0,1.1-.3,2.22-.9,3.39-.6,1.16-1.39,2.32-2.36,3.49-.97,1.16-2.02,2.3-3.14,3.41-1.12,1.11-2.22,2.16-3.3,3.15-1.08.99-2.03,1.89-2.84,2.71-.81.82-1.38,1.5-1.7,2.06-.21.59-.09.88.36.88h10.28c.72,0,1.19-.23,1.4-.68.16-.29.37-.71.64-1.24.27-.53.45-.89.56-1.08.11-.19.28-.29.52-.3.24-.01.45.04.64.16.19.12.25.29.2.5l-1.48,4.93c-.11.32-.28.55-.52.7-.24.15-.49.22-.76.22h-15.04Z"/><rect class="cls-1" y="36.72" width="46" height="1"/></g></svg>